{
.appVersion = "942";
copyright = "Copyright 2011 The Metrophobic Project Authors (contact@sansoxygen.com), with Reserved Font Name 'Metrophobic'.";
customParameters = (
{
name = licenseURL;
value = "http://scripts.sil.org/OFL";
},
{
name = vendorID;
value = newt;
},
{
name = license;
value = "This Font Software is licensed under the SIL Open Font License, Version 1.1. This license is available with a FAQ at: http://scripts.sil.org/OFL";
},
{
name = fsType;
value = (
);
},
{
name = "Disable Last Change";
value = 1;
},
{
name = "Use Line Breaks";
value = 1;
},
{
name = "Use Typo Metrics";
value = 1;
}
);
date = "2011-05-04 23:11:35 +0000";
designer = "Vernon Adams";
designerURL = "http://www.sansoxygen.com";
disablesAutomaticAlignment = 1;
disablesNiceNames = 1;
familyName = Metrophobic;
featurePrefixes = (
{
automatic = 1;
code = "languagesystem DFLT dflt;
";
name = Languagesystems;
}
);
features = (
{
automatic = 1;
code = "feature sups;
feature frac;
feature ordn;
";
name = aalt;
},
{
automatic = 1;
code = "sub one by onesuperior;
sub two by twosuperior;
sub three by threesuperior;
sub four by foursuperior;
";
name = sups;
},
{
automatic = 1;
code = "sub one slash four by onequarter;
sub one slash two by onehalf;
sub three slash four by threequarters;
";
name = frac;
},
{
automatic = 1;
code = "sub [zero one two three four five six seven eight nine] [A a]' by ordfeminine;
sub [zero one two three four five six seven eight nine] [O o]' by ordmasculine;
";
name = ordn;
},
{
automatic = 1;
code = "sub f i by fi;
sub f l by fl;
";
name = liga;
}
);
fontMaster = (
{
ascender = 2065;
capHeight = 1441;
customParameters = (
{
name = typoAscender;
value = 2065;
},
{
name = typoDescender;
value = -460;
},
{
name = typoLineGap;
value = 0;
},
{
name = winAscent;
value = 2065;
},
{
name = winDescent;
value = 545;
},
{
name = hheaAscender;
value = 2065;
},
{
name = hheaDescender;
value = -460;
},
{
name = hheaLineGap;
value = 0;
}
);
descender = -460;

glyphs = (
{
color = 4;
glyphname = A;
layers = (
{
layerId = "2F8B9CD4-7B7F-4ACC-ADF3-B6E0F7033A19";
paths = (
{
closed = 1;
nodes = (
"378 502 LINE",
"663 1329 LINE",
"943 502 LINE"
);
},
{
closed = 1;
nodes = (
"195 0 LINE",
"330 367 LINE",
"992 367 LINE",
"1128 0 LINE",
"1304 0 LINE",
"763 1441 LINE",
"562 1441 LINE",
"18 0 LINE"
);
}
);
width = 1324;
}
);
note = A;
unicode = 0041;
},
{
color = 4;
glyphname = AE;
layers = (
{
layerId = "2F8B9CD4-7B7F-4ACC-ADF3-B6E0F7033A19";
paths = (
{
closed = 1;
nodes = (
"928 507 LINE",
"403 507 LINE",
"771 1299 LINE",
"805 1299 LINE"
);
},
{
closed = 1;
nodes = (
"166 0 LINE",
"343 368 LINE",
"941 368 LINE",
"1003 0 LINE",
"1784 0 LINE",
"1751 139 LINE",
"1159 139 LINE",
"1067 685 LINE",
"1650 685 LINE",
"1639 821 LINE",
"1048 821 LINE",
"969 1302 LINE",
"1623 1302 LINE",
"1636 1441 LINE",
"670 1441 LINE",
"-17 0 LINE"
);
}
);
width = 1839;
}
);
note = AE;
unicode = 00C6;
},
{
color = 4;
glyphname = B;
layers = (
{
layerId = "2F8B9CD4-7B7F-4ACC-ADF3-B6E0F7033A19";
paths = (
{
closed = 1;
nodes = (
"847 1300 OFFCURVE",
"929 1287 OFFCURVE",
"972 1244 CURVE SMOOTH",
"1005 1209 OFFCURVE",
"1014 1159 OFFCURVE",
"1014 1079 CURVE SMOOTH",
"1014 1006 OFFCURVE",
"1002 950 OFFCURVE",
"969 910 CURVE SMOOTH",
"926 858 OFFCURVE",
"847 833 OFFCURVE",
"707 833 CURVE SMOOTH",
"366 833 LINE",
"366 1300 LINE",
"695 1300 LINE SMOOTH"
);
},
{
closed = 1;
nodes = (
"876 696 OFFCURVE",
"958 665 OFFCURVE",
"997 632 CURVE SMOOTH",
"1017 616 OFFCURVE",
"1034 594 OFFCURVE",
"1046 559 CURVE SMOOTH",
"1058 524 OFFCURVE",
"1066 478 OFFCURVE",
"1066 410 CURVE SMOOTH",
"1066 315 OFFCURVE",
"1054 254 OFFCURVE",
"1019 211 CURVE SMOOTH",
"975 159 OFFCURVE",
"895 141 OFFCURVE",
"752 141 CURVE SMOOTH",
"366 141 LINE",
"366 696 LINE",
"727 696 LINE SMOOTH"
);
},
{
closed = 1;
nodes = (
"781 0 LINE SMOOTH",
"877 0 OFFCURVE",
"951 11 OFFCURVE",
"1008 28 CURVE SMOOTH",
"1065 45 OFFCURVE",
"1105 68 OFFCURVE",
"1132 95 CURVE SMOOTH",
"1157 120 OFFCURVE",
"1186 155 OFFCURVE",
"1208 206 CURVE SMOOTH",
"1230 257 OFFCURVE",
"1244 322 OFFCURVE",
"1244 407 CURVE SMOOTH",
"1244 527 OFFCURVE",
"1218 598 OFFCURVE",
"1182 646 CURVE SMOOTH",
"1146 693 OFFCURVE",
"1100 714 OFFCURVE",
"1063 731 CURVE SMOOTH",
"1044 739 OFFCURVE",
"1019 747 OFFCURVE",
"995 754 CURVE SMOOTH",
"970 761 OFFCURVE",
"944 766 OFFCURVE",
"924 770 CURVE",
"951 778 OFFCURVE",
"981 787 OFFCURVE",
"1012 800 CURVE SMOOTH",
"1043 813 OFFCURVE",
"1074 832 OFFCURVE",
"1099 861 CURVE SMOOTH",
"1136 904 OFFCURVE",
"1163 968 OFFCURVE",
"1163 1072 CURVE SMOOTH",
"1163 1191 OFFCURVE",
"1139 1284 OFFCURVE",
"1072 1348 CURVE SMOOTH",
"1016 1401 OFFCURVE",
"936 1432 OFFCURVE",
"815 1437 CURVE SMOOTH",
"755 1440 OFFCURVE",
"688 1441 OFFCURVE",
"608 1441 CURVE SMOOTH",
"192 1441 LINE",
"192 0 LINE"
);
}
);
width = 1353;
}
);
note = B;
unicode = 0042;
},
{
color = 4;
glyphname = C;
layers = (
{
layerId = "2F8B9CD4-7B7F-4ACC-ADF3-B6E0F7033A19";
paths = (
{
closed = 1;
nodes = (
"1168 383 OFFCURVE",
"1159 354 OFFCURVE",
"1150 330 CURVE SMOOTH",
"1131 281 OFFCURVE",
"1113 247 OFFCURVE",
"1098 227 CURVE SMOOTH",
"1090 217 OFFCURVE",
"1084 210 OFFCURVE",
"1080 206 CURVE SMOOTH",
"1064 190 OFFCURVE",
"1029 166 OFFCURVE",
"977 146 CURVE SMOOTH",
"924 126 OFFCURVE",
"852 110 OFFCURVE",
"763 110 CURVE SMOOTH",
"675 110 OFFCURVE",
"601 125 OFFCURVE",
"541 148 CURVE SMOOTH",
"481 171 OFFCURVE",
"436 202 OFFCURVE",
"408 234 CURVE SMOOTH",
"388 258 OFFCURVE",
"360 303 OFFCURVE",
"338 380 CURVE SMOOTH",
"316 457 OFFCURVE",
"298 566 OFFCURVE",
"298 714 CURVE SMOOTH",
"298 863 OFFCURVE",
"317 975 OFFCURVE",
"342 1055 CURVE SMOOTH",
"367 1135 OFFCURVE",
"400 1184 OFFCURVE",
"428 1211 CURVE SMOOTH",
"449 1231 OFFCURVE",
"486 1259 OFFCURVE",
"542 1282 CURVE SMOOTH",
"597 1305 OFFCURVE",
"671 1322 OFFCURVE",
"767 1322 CURVE SMOOTH",
"810 1322 OFFCURVE",
"848 1319 OFFCURVE",
"881 1313 CURVE SMOOTH",
"947 1300 OFFCURVE",
"993 1282 OFFCURVE",
"1021 1266 CURVE SMOOTH",
"1034 1258 OFFCURVE",
"1044 1252 OFFCURVE",
"1049 1249 CURVE SMOOTH",
"1092 1222 OFFCURVE",
"1137 1143 OFFCURVE",
"1164 1020 CURVE",
"1310 1095 LINE",
"1297 1160 OFFCURVE",
"1276 1214 OFFCURVE",
"1254 1255 CURVE SMOOTH",
"1232 1296 OFFCURVE",
"1208 1324 OFFCURVE",
"1192 1340 CURVE SMOOTH",
"1176 1356 OFFCURVE",
"1133 1389 OFFCURVE",
"1062 1418 CURVE SMOOTH",
"991 1447 OFFCURVE",
"893 1472 OFFCURVE",
"764 1472 CURVE SMOOTH",
"632 1472 OFFCURVE",
"526 1444 OFFCURVE",
"446 1408 CURVE SMOOTH",
"366 1371 OFFCURVE",
"311 1325 OFFCURVE",
"280 1289 CURVE SMOOTH",
"249 1253 OFFCURVE",
"209 1192 OFFCURVE",
"176 1097 CURVE SMOOTH",
"143 1002 OFFCURVE",
"118 872 OFFCURVE",
"118 699 CURVE SMOOTH",
"118 559 OFFCURVE",
"139 436 OFFCURVE",
"172 337 CURVE SMOOTH",
"204 238 OFFCURVE",
"248 163 OFFCURVE",
"296 118 CURVE SMOOTH",
"324 91 OFFCURVE",
"374 52 OFFCURVE",
"451 20 CURVE SMOOTH",
"527 -13 OFFCURVE",
"631 -39 OFFCURVE",
"763 -39 CURVE SMOOTH",
"825 -39 OFFCURVE",
"880 -34 OFFCURVE",
"928 -24 CURVE SMOOTH",
"1024 -4 OFFCURVE",
"1092 24 OFFCURVE",
"1135 51 CURVE SMOOTH",
"1156 64 OFFCURVE",
"1171 74 OFFCURVE",
"1179 81 CURVE",
"1196 94 OFFCURVE",
"1222 120 OFFCURVE",
"1247 161 CURVE SMOOTH",
"1272 202 OFFCURVE",
"1298 260 OFFCURVE",
"1315 337 CURVE",
"1175 416 LINE"
);
}
);
width = 1405;
}
);
note = C;
unicode = 0043;
},
{
color = 4;
glyphname = D;
layers = (
{
layerId = "2F8B9CD4-7B7F-4ACC-ADF3-B6E0F7033A19";
paths = (
{
closed = 1;
nodes = (
"797 0 OFFCURVE",
"898 24 OFFCURVE",
"974 53 CURVE SMOOTH",
"1049 81 OFFCURVE",
"1100 116 OFFCURVE",
"1128 140 CURVE SMOOTH",
"1167 172 OFFCURVE",
"1216 227 OFFCURVE",
"1256 320 CURVE SMOOTH",
"1295 413 OFFCURVE",
"1324 543 OFFCURVE",
"1324 727 CURVE SMOOTH",
"1324 898 OFFCURVE",
"1296 1022 OFFCURVE",
"1258 1112 CURVE SMOOTH",
"1220 1202 OFFCURVE",
"1171 1257 OFFCURVE",
"1132 1292 CURVE SMOOTH",
"1103 1317 OFFCURVE",
"1053 1354 OFFCURVE",
"976 1385 CURVE SMOOTH",
"899 1416 OFFCURVE",
"796 1441 OFFCURVE",
"660 1441 CURVE SMOOTH",
"192 1441 LINE",
"192 0 LINE",
"666 0 LINE SMOOTH"
);
},
{
closed = 1;
nodes = (
"765 1297 OFFCURVE",
"853 1279 OFFCURVE",
"917 1255 CURVE SMOOTH",
"980 1231 OFFCURVE",
"1019 1200 OFFCURVE",
"1039 1175 CURVE SMOOTH",
"1059 1150 OFFCURVE",
"1086 1106 OFFCURVE",
"1107 1034 CURVE SMOOTH",
"1128 962 OFFCURVE",
"1145 862 OFFCURVE",
"1145 723 CURVE SMOOTH",
"1145 579 OFFCURVE",
"1127 477 OFFCURVE",
"1104 405 CURVE SMOOTH",
"1081 333 OFFCURVE",
"1053 291 OFFCURVE",
"1032 266 CURVE SMOOTH",
"1011 241 OFFCURVE",
"974 211 OFFCURVE",
"914 187 CURVE SMOOTH",
"854 163 OFFCURVE",
"772 145 OFFCURVE",
"663 145 CURVE SMOOTH",
"366 145 LINE",
"366 1297 LINE",
"645 1297 LINE SMOOTH"
);
}
);
width = 1442;
}
);
note = D;
unicode = 0044;
},
{
color = 4;
glyphname = Eth;
layers = (
{
layerId = "2F8B9CD4-7B7F-4ACC-ADF3-B6E0F7033A19";
paths = (
{
closed = 1;
nodes = (
"194 670 LINE",
"194 0 LINE",
"668 0 LINE SMOOTH",
"799 0 OFFCURVE",
"900 24 OFFCURVE",
"976 53 CURVE SMOOTH",
"1051 81 OFFCURVE",
"1102 116 OFFCURVE",
"1130 140 CURVE SMOOTH",
"1169 172 OFFCURVE",
"1218 227 OFFCURVE",
"1258 320 CURVE SMOOTH",
"1297 413 OFFCURVE",
"1326 543 OFFCURVE",
"1326 727 CURVE SMOOTH",
"1326 898 OFFCURVE",
"1298 1022 OFFCURVE",
"1260 1112 CURVE SMOOTH",
"1222 1202 OFFCURVE",
"1173 1257 OFFCURVE",
"1134 1292 CURVE SMOOTH",
"1105 1317 OFFCURVE",
"1055 1354 OFFCURVE",
"978 1385 CURVE SMOOTH",
"901 1416 OFFCURVE",
"798 1441 OFFCURVE",
"662 1441 CURVE SMOOTH",
"194 1441 LINE",
"194 801 LINE",
"64 801 LINE",
"64 670 LINE"
);
},
{
closed = 1;
nodes = (
"767 1297 OFFCURVE",
"855 1279 OFFCURVE",
"919 1255 CURVE SMOOTH",
"982 1231 OFFCURVE",
"1021 1200 OFFCURVE",
"1041 1175 CURVE SMOOTH",
"1061 1150 OFFCURVE",
"1088 1106 OFFCURVE",
"1109 1034 CURVE SMOOTH",
"1130 962 OFFCURVE",
"1147 862 OFFCURVE",
"1147 723 CURVE SMOOTH",
"1147 579 OFFCURVE",
"1129 477 OFFCURVE",
"1106 405 CURVE SMOOTH",
"1083 333 OFFCURVE",
"1055 291 OFFCURVE",
"1034 266 CURVE SMOOTH",
"1013 241 OFFCURVE",
"976 211 OFFCURVE",
"916 187 CURVE SMOOTH",
"856 163 OFFCURVE",
"774 145 OFFCURVE",
"665 145 CURVE SMOOTH",
"368 145 LINE",
"368 670 LINE",
"623 670 LINE",
"623 801 LINE",
"368 801 LINE",
"368 1297 LINE",
"647 1297 LINE SMOOTH"
);
}
);
width = 1444;
}
);
note = Eth;
unicode = 00D0;
},
{
color = 4;
glyphname = E;
layers = (
{
layerId = "2F8B9CD4-7B7F-4ACC-ADF3-B6E0F7033A19";
paths = (
{
closed = 1;
nodes = (
"1055 0 LINE",
"1032 143 LINE",
"366 143 LINE",
"366 686 LINE",
"976 686 LINE",
"976 824 LINE",
"366 824 LINE",
"366 1299 LINE",
"1030 1299 LINE",
"1052 1441 LINE",
"192 1441 LINE",
"192 0 LINE"
);
}
);
width = 1164;
}
);
note = E;
unicode = 0045;
},
{
color = 4;
glyphname = F;
layers = (
{
layerId = "2F8B9CD4-7B7F-4ACC-ADF3-B6E0F7033A19";
paths = (
{
closed = 1;
nodes = (
"366 0 LINE",
"366 673 LINE",
"914 673 LINE",
"914 819 LINE",
"366 819 LINE",
"366 1295 LINE",
"990 1295 LINE",
"1021 1441 LINE",
"192 1441 LINE",
"192 0 LINE"
);
}
);
width = 1076;
}
);
note = F;
unicode = 0046;
},
{
color = 4;
glyphname = G;
layers = (
{
layerId = "2F8B9CD4-7B7F-4ACC-ADF3-B6E0F7033A19";
paths = (
{
closed = 1;
nodes = (
"733 707 LINE",
"733 564 LINE",
"1170 564 LINE",
"1170 257 LINE",
"1135 221 OFFCURVE",
"1092 184 OFFCURVE",
"1029 156 CURVE SMOOTH",
"966 127 OFFCURVE",
"885 108 OFFCURVE",
"773 108 CURVE SMOOTH",
"674 108 OFFCURVE",
"600 125 OFFCURVE",
"544 146 CURVE SMOOTH",
"488 167 OFFCURVE",
"451 194 OFFCURVE",
"430 213 CURVE SMOOTH",
"401 238 OFFCURVE",
"367 286 OFFCURVE",
"340 364 CURVE SMOOTH",
"312 442 OFFCURVE",
"293 550 OFFCURVE",
"293 697 CURVE SMOOTH",
"293 854 OFFCURVE",
"313 969 OFFCURVE",
"340 1052 CURVE SMOOTH",
"367 1135 OFFCURVE",
"401 1186 OFFCURVE",
"432 1214 CURVE SMOOTH",
"453 1234 OFFCURVE",
"491 1262 OFFCURVE",
"548 1285 CURVE SMOOTH",
"605 1308 OFFCURVE",
"681 1326 OFFCURVE",
"781 1326 CURVE SMOOTH",
"874 1326 OFFCURVE",
"946 1308 OFFCURVE",
"999 1287 CURVE SMOOTH",
"1051 1266 OFFCURVE",
"1084 1241 OFFCURVE",
"1100 1228 CURVE",
"1108 1221 OFFCURVE",
"1124 1204 OFFCURVE",
"1141 1175 CURVE SMOOTH",
"1158 1146 OFFCURVE",
"1177 1104 OFFCURVE",
"1192 1049 CURVE",
"1322 1136 LINE",
"1312 1171 OFFCURVE",
"1301 1201 OFFCURVE",
"1288 1226 CURVE SMOOTH",
"1263 1277 OFFCURVE",
"1239 1312 OFFCURVE",
"1220 1332 CURVE",
"1210 1341 OFFCURVE",
"1203 1348 OFFCURVE",
"1198 1352 CURVE SMOOTH",
"1179 1367 OFFCURVE",
"1134 1397 OFFCURVE",
"1065 1424 CURVE SMOOTH",
"996 1451 OFFCURVE",
"901 1473 OFFCURVE",
"784 1473 CURVE SMOOTH",
"655 1473 OFFCURVE",
"553 1448 OFFCURVE",
"476 1416 CURVE SMOOTH",
"399 1384 OFFCURVE",
"347 1344 OFFCURVE",
"315 1315 CURVE SMOOTH",
"276 1279 OFFCURVE",
"226 1216 OFFCURVE",
"186 1116 CURVE SMOOTH",
"145 1015 OFFCURVE",
"114 877 OFFCURVE",
"114 692 CURVE SMOOTH",
"114 525 OFFCURVE",
"143 402 OFFCURVE",
"180 312 CURVE SMOOTH",
"216 222 OFFCURVE",
"260 165 OFFCURVE",
"292 132 CURVE SMOOTH",
"323 99 OFFCURVE",
"377 57 OFFCURVE",
"455 22 CURVE SMOOTH",
"533 -13 OFFCURVE",
"636 -39 OFFCURVE",
"768 -39 CURVE SMOOTH",
"876 -38 OFFCURVE",
"960 -18 OFFCURVE",
"1028 11 CURVE SMOOTH",
"1095 40 OFFCURVE",
"1147 78 OFFCURVE",
"1191 118 CURVE",
"1220 0 LINE",
"1344 0 LINE",
"1344 707 LINE"
);
}
);
width = 1482;
}
);
note = G;
unicode = 0047;
},
{
color = 4;
glyphname = H;
layers = (
{
layerId = "2F8B9CD4-7B7F-4ACC-ADF3-B6E0F7033A19";
paths = (
{
closed = 1;
nodes = (
"366 0 LINE",
"366 680 LINE",
"1157 680 LINE",
"1157 0 LINE",
"1331 0 LINE",
"1331 1441 LINE",
"1157 1441 LINE",
"1157 817 LINE",
"366 817 LINE",
"366 1441 LINE",
"192 1441 LINE",
"192 0 LINE"
);
}
);
width = 1523;
}
);
note = H;
unicode = 0048;
},
{
color = 4;
glyphname = I;
layers = (
{
layerId = "2F8B9CD4-7B7F-4ACC-ADF3-B6E0F7033A19";
paths = (
{
closed = 1;
nodes = (
"270 1340 LINE",
"270 101 LINE",
"97 101 LINE",
"103 0 LINE",
"593 0 LINE",
"599 101 LINE",
"444 101 LINE",
"444 1340 LINE",
"597 1340 LINE",
"605 1441 LINE",
"96 1441 LINE",
"102 1340 LINE"
);
}
);
width = 696;
}
);
note = I;
unicode = 0049;
},
{
color = 4;
glyphname = J;
layers = (
{
layerId = "2F8B9CD4-7B7F-4ACC-ADF3-B6E0F7033A19";
paths = (
{
closed = 1;
nodes = (
"461 260 OFFCURVE",
"451 188 OFFCURVE",
"430 146 CURVE SMOOTH",
"409 104 OFFCURVE",
"376 92 OFFCURVE",
"331 92 CURVE SMOOTH",
"292 92 OFFCURVE",
"257 96 OFFCURVE",
"232 109 CURVE SMOOTH",
"207 121 OFFCURVE",
"192 141 OFFCURVE",
"192 173 CURVE SMOOTH",
"192 192 OFFCURVE",
"192 207 OFFCURVE",
"192 217 CURVE",
"191 226 OFFCURVE",
"191 234 OFFCURVE",
"191 239 CURVE SMOOTH",
"191 249 LINE",
"49 219 LINE",
"48 207 OFFCURVE",
"47 196 OFFCURVE",
"46 186 CURVE",
"43 167 OFFCURVE",
"43 150 OFFCURVE",
"43 139 CURVE SMOOTH",
"43 96 OFFCURVE",
"68 47 OFFCURVE",
"114 8 CURVE SMOOTH",
"160 -31 OFFCURVE",
"229 -58 OFFCURVE",
"317 -58 CURVE SMOOTH",
"429 -58 OFFCURVE",
"502 -24 OFFCURVE",
"535 4 CURVE SMOOTH",
"560 24 OFFCURVE",
"587 54 OFFCURVE",
"605 106 CURVE SMOOTH",
"623 157 OFFCURVE",
"635 229 OFFCURVE",
"635 332 CURVE SMOOTH",
"635 1441 LINE",
"461 1441 LINE",
"461 380 LINE SMOOTH"
);
}
);
width = 815;
}
);
note = J;
unicode = 004A;
},
{
color = 4;
glyphname = K;
layers = (
{
layerId = "2F8B9CD4-7B7F-4ACC-ADF3-B6E0F7033A19";
paths = (
{
closed = 1;
nodes = (
"366 0 LINE",
"366 594 LINE",
"571 757 LINE",
"1055 0 LINE",
"1251 0 LINE",
"710 820 LINE",
"1225 1441 LINE",
"1013 1441 LINE",
"551 871 LINE",
"366 725 LINE",
"366 1441 LINE",
"192 1441 LINE",
"192 0 LINE"
);
}
);
width = 1273;
}
);
note = K;
unicode = 004B;
},
{
color = 4;
glyphname = L;
layers = (
{
layerId = "2F8B9CD4-7B7F-4ACC-ADF3-B6E0F7033A19";
paths = (
{
closed = 1;
nodes = (
"1001 143 LINE",
"366 143 LINE",
"366 1441 LINE",
"192 1441 LINE",
"192 0 LINE",
"1001 0 LINE"
);
}
);
width = 1041;
}
);
note = L;
unicode = 004C;
},
{
color = 4;
glyphname = Lslash;
layers = (
{
layerId = "2F8B9CD4-7B7F-4ACC-ADF3-B6E0F7033A19";
paths = (
{
closed = 1;
nodes = (
"957 143 LINE",
"370 143 LINE",
"370 662 LINE",
"667 829 LINE",
"602 936 LINE",
"370 805 LINE",
"370 1441 LINE",
"196 1441 LINE",
"196 708 LINE",
"41 621 LINE",
"102 512 LINE",
"196 564 LINE",
"196 0 LINE",
"957 0 LINE"
);
}
);
width = 1039;
}
);
note = Lslash;
unicode = 0141;
},
{
color = 4;
glyphname = M;
layers = (
{
layerId = "2F8B9CD4-7B7F-4ACC-ADF3-B6E0F7033A19";
paths = (
{
closed = 1;
nodes = (
"451 1441 LINE",
"192 1441 LINE",
"192 0 LINE",
"348 0 LINE",
"348 1284 LINE",
"387 1172 LINE",
"787 63 LINE",
"956 63 LINE",
"1355 1172 LINE",
"1393 1284 LINE",
"1393 0 LINE",
"1549 0 LINE",
"1549 1441 LINE",
"1292 1441 LINE",
"872 253 LINE"
);
}
);
width = 1741;
}
);
note = M;
unicode = 004D;
},
{
color = 4;
glyphname = N;
layers = (
{
layerId = "2F8B9CD4-7B7F-4ACC-ADF3-B6E0F7033A19";
paths = (
{
closed = 1;
nodes = (
"353 0 LINE",
"353 1250 LINE",
"535 963 LINE",
"1170 0 LINE",
"1369 0 LINE",
"1369 1441 LINE",
"1207 1441 LINE",
"1207 223 LINE",
"1016 527 LINE",
"409 1441 LINE",
"192 1441 LINE",
"192 0 LINE"
);
}
);
width = 1561;
}
);
note = N;
unicode = 004E;
},
{
color = 4;
glyphname = O;
layers = (
{
layerId = "2F8B9CD4-7B7F-4ACC-ADF3-B6E0F7033A19";
paths = (
{
closed = 1;
nodes = (
"872 1324 OFFCURVE",
"953 1306 OFFCURVE",
"1014 1282 CURVE SMOOTH",
"1075 1258 OFFCURVE",
"1117 1227 OFFCURVE",
"1138 1200 CURVE SMOOTH",
"1159 1173 OFFCURVE",
"1185 1131 OFFCURVE",
"1206 1057 CURVE SMOOTH",
"1226 983 OFFCURVE",
"1241 878 OFFCURVE",
"1241 729 CURVE SMOOTH",
"1241 572 OFFCURVE",
"1226 462 OFFCURVE",
"1206 385 CURVE SMOOTH",
"1185 308 OFFCURVE",
"1158 264 OFFCURVE",
"1137 236 CURVE",
"1114 208 OFFCURVE",
"1073 177 OFFCURVE",
"1012 153 CURVE SMOOTH",
"951 128 OFFCURVE",
"869 110 OFFCURVE",
"769 110 CURVE SMOOTH",
"669 110 OFFCURVE",
"589 128 OFFCURVE",
"528 152 CURVE SMOOTH",
"467 176 OFFCURVE",
"425 207 OFFCURVE",
"404 234 CURVE",
"381 261 OFFCURVE",
"356 305 OFFCURVE",
"336 381 CURVE SMOOTH",
"315 457 OFFCURVE",
"300 565 OFFCURVE",
"300 721 CURVE SMOOTH",
"300 873 OFFCURVE",
"315 978 OFFCURVE",
"335 1053 CURVE SMOOTH",
"355 1128 OFFCURVE",
"380 1171 OFFCURVE",
"403 1199 CURVE SMOOTH",
"424 1226 OFFCURVE",
"467 1257 OFFCURVE",
"528 1282 CURVE SMOOTH",
"589 1306 OFFCURVE",
"671 1324 OFFCURVE",
"772 1324 CURVE SMOOTH"
);
},
{
closed = 1;
nodes = (
"121 546 OFFCURVE",
"144 417 OFFCURVE",
"174 324 CURVE SMOOTH",
"204 231 OFFCURVE",
"241 175 OFFCURVE",
"272 140 CURVE SMOOTH",
"303 105 OFFCURVE",
"355 61 OFFCURVE",
"436 25 CURVE SMOOTH",
"516 -11 OFFCURVE",
"625 -38 OFFCURVE",
"769 -38 CURVE SMOOTH",
"892 -38 OFFCURVE",
"991 -16 OFFCURVE",
"1068 15 CURVE SMOOTH",
"1144 46 OFFCURVE",
"1200 83 OFFCURVE",
"1236 114 CURVE SMOOTH",
"1272 145 OFFCURVE",
"1319 199 OFFCURVE",
"1356 295 CURVE SMOOTH",
"1392 391 OFFCURVE",
"1420 529 OFFCURVE",
"1420 728 CURVE SMOOTH",
"1420 901 OFFCURVE",
"1398 1026 OFFCURVE",
"1367 1116 CURVE SMOOTH",
"1336 1206 OFFCURVE",
"1299 1259 OFFCURVE",
"1268 1294 CURVE SMOOTH",
"1237 1327 OFFCURVE",
"1184 1372 OFFCURVE",
"1104 1408 CURVE SMOOTH",
"1023 1444 OFFCURVE",
"915 1472 OFFCURVE",
"772 1472 CURVE SMOOTH",
"629 1472 OFFCURVE",
"520 1445 OFFCURVE",
"440 1409 CURVE SMOOTH",
"359 1373 OFFCURVE",
"306 1328 OFFCURVE",
"275 1295 CURVE SMOOTH",
"244 1260 OFFCURVE",
"206 1206 OFFCURVE",
"175 1116 CURVE SMOOTH",
"144 1026 OFFCURVE",
"121 900 OFFCURVE",
"121 727 CURVE SMOOTH"
);
}
);
width = 1541;
}
);
note = O;
unicode = 004F;
},
{
color = 4;
glyphname = OE;
layers = (
{
layerId = "2F8B9CD4-7B7F-4ACC-ADF3-B6E0F7033A19";
paths = (
{
closed = 1;
nodes = (
"1046 132 OFFCURVE",
"1013 127 OFFCURVE",
"981 122 CURVE SMOOTH",
"925 114 OFFCURVE",
"857 107 OFFCURVE",
"805 107 CURVE SMOOTH",
"688 107 OFFCURVE",
"603 123 OFFCURVE",
"541 144 CURVE SMOOTH",
"479 165 OFFCURVE",
"440 194 OFFCURVE",
"417 218 CURVE",
"393 246 OFFCURVE",
"364 289 OFFCURVE",
"341 367 CURVE SMOOTH",
"317 445 OFFCURVE",
"301 557 OFFCURVE",
"301 724 CURVE SMOOTH",
"301 880 OFFCURVE",
"317 989 OFFCURVE",
"341 1065 CURVE SMOOTH",
"364 1141 OFFCURVE",
"393 1186 OFFCURVE",
"417 1214 CURVE SMOOTH",
"438 1238 OFFCURVE",
"480 1266 OFFCURVE",
"544 1287 CURVE SMOOTH",
"608 1307 OFFCURVE",
"697 1323 OFFCURVE",
"814 1323 CURVE SMOOTH",
"837 1323 OFFCURVE",
"863 1322 OFFCURVE",
"894 1319 CURVE SMOOTH",
"954 1313 OFFCURVE",
"1012 1305 OFFCURVE",
"1079 1296 CURVE",
"1079 138 LINE"
);
},
{
closed = 1;
nodes = (
"629 1472 OFFCURVE",
"520 1446 OFFCURVE",
"440 1411 CURVE SMOOTH",
"360 1375 OFFCURVE",
"307 1332 OFFCURVE",
"275 1296 CURVE SMOOTH",
"244 1261 OFFCURVE",
"206 1206 OFFCURVE",
"175 1115 CURVE SMOOTH",
"144 1023 OFFCURVE",
"121 896 OFFCURVE",
"121 720 CURVE SMOOTH",
"121 529 OFFCURVE",
"146 396 OFFCURVE",
"180 301 CURVE SMOOTH",
"214 206 OFFCURVE",
"257 150 OFFCURVE",
"294 117 CURVE SMOOTH",
"323 90 OFFCURVE",
"372 50 OFFCURVE",
"448 18 CURVE SMOOTH",
"524 -15 OFFCURVE",
"628 -41 OFFCURVE",
"768 -41 CURVE SMOOTH",
"801 -41 OFFCURVE",
"837 -39 OFFCURVE",
"874 -34 CURVE SMOOTH",
"948 -26 OFFCURVE",
"1014 -15 OFFCURVE",
"1087 1 CURVE",
"1941 1 LINE",
"1917 141 LINE",
"1248 141 LINE",
"1248 686 LINE",
"1862 686 LINE",
"1862 822 LINE",
"1248 822 LINE",
"1248 1303 LINE",
"1915 1303 LINE",
"1939 1441 LINE",
"1081 1441 LINE",
"1046 1446 OFFCURVE",
"1011 1451 OFFCURVE",
"975 1456 CURVE SMOOTH",
"914 1464 OFFCURVE",
"839 1471 OFFCURVE",
"776 1472 CURVE SMOOTH"
);
}
);
width = 2050;
}
);
note = OE;
unicode = 0152;
},
{
color = 4;
glyphname = P;
layers = (
{
layerId = "2F8B9CD4-7B7F-4ACC-ADF3-B6E0F7033A19";
paths = (
{
closed = 1;
nodes = (
"727 1297 OFFCURVE",
"783 1291 OFFCURVE",
"823 1281 CURVE SMOOTH",
"863 1271 OFFCURVE",
"886 1256 OFFCURVE",
"905 1243 CURVE",
"928 1226 OFFCURVE",
"949 1204 OFFCURVE",
"965 1168 CURVE SMOOTH",
"981 1132 OFFCURVE",
"991 1082 OFFCURVE",
"991 1009 CURVE SMOOTH",
"991 938 OFFCURVE",
"982 891 OFFCURVE",
"967 859 CURVE SMOOTH",
"952 826 OFFCURVE",
"933 806 OFFCURVE",
"913 790 CURVE SMOOTH",
"886 769 OFFCURVE",
"853 754 OFFCURVE",
"797 744 CURVE SMOOTH",
"741 734 OFFCURVE",
"662 728 OFFCURVE",
"549 728 CURVE SMOOTH",
"366 728 LINE",
"366 1297 LINE",
"642 1297 LINE SMOOTH"
);
},
{
closed = 1;
nodes = (
"366 0 LINE",
"366 588 LINE",
"629 588 LINE SMOOTH",
"750 588 OFFCURVE",
"840 600 OFFCURVE",
"907 620 CURVE SMOOTH",
"974 640 OFFCURVE",
"1018 666 OFFCURVE",
"1050 694 CURVE SMOOTH",
"1079 719 OFFCURVE",
"1110 755 OFFCURVE",
"1134 806 CURVE SMOOTH",
"1158 857 OFFCURVE",
"1174 924 OFFCURVE",
"1174 1012 CURVE SMOOTH",
"1174 1100 OFFCURVE",
"1158 1167 OFFCURVE",
"1135 1219 CURVE SMOOTH",
"1111 1271 OFFCURVE",
"1081 1307 OFFCURVE",
"1052 1334 CURVE SMOOTH",
"1012 1371 OFFCURVE",
"960 1398 OFFCURVE",
"882 1415 CURVE SMOOTH",
"804 1432 OFFCURVE",
"702 1441 OFFCURVE",
"562 1441 CURVE SMOOTH",
"192 1441 LINE",
"192 0 LINE"
);
}
);
width = 1246;
}
);
note = P;
unicode = 0050;
},
{
color = 4;
glyphname = Thorn;
layers = (
{
layerId = "2F8B9CD4-7B7F-4ACC-ADF3-B6E0F7033A19";
paths = (
{
closed = 1;
nodes = (
"726 1087 OFFCURVE",
"782 1081 OFFCURVE",
"822 1071 CURVE SMOOTH",
"862 1061 OFFCURVE",
"885 1046 OFFCURVE",
"904 1033 CURVE",
"927 1016 OFFCURVE",
"948 994 OFFCURVE",
"964 958 CURVE SMOOTH",
"980 922 OFFCURVE",
"990 872 OFFCURVE",
"990 799 CURVE SMOOTH",
"990 727 OFFCURVE",
"981 681 OFFCURVE",
"966 648 CURVE SMOOTH",
"951 615 OFFCURVE",
"932 596 OFFCURVE",
"912 580 CURVE SMOOTH",
"885 559 OFFCURVE",
"852 544 OFFCURVE",
"796 534 CURVE SMOOTH",
"740 524 OFFCURVE",
"661 518 OFFCURVE",
"548 518 CURVE SMOOTH",
"365 518 LINE",
"365 1087 LINE",
"641 1087 LINE SMOOTH"
);
},
{
closed = 1;
nodes = (
"365 0 LINE",
"365 378 LINE",
"628 378 LINE SMOOTH",
"749 378 OFFCURVE",
"839 390 OFFCURVE",
"906 410 CURVE SMOOTH",
"973 430 OFFCURVE",
"1017 456 OFFCURVE",
"1049 484 CURVE SMOOTH",
"1078 509 OFFCURVE",
"1109 545 OFFCURVE",
"1133 596 CURVE SMOOTH",
"1157 647 OFFCURVE",
"1173 714 OFFCURVE",
"1173 802 CURVE SMOOTH",
"1173 890 OFFCURVE",
"1157 957 OFFCURVE",
"1134 1009 CURVE SMOOTH",
"1110 1061 OFFCURVE",
"1080 1097 OFFCURVE",
"1051 1124 CURVE SMOOTH",
"1011 1161 OFFCURVE",
"959 1188 OFFCURVE",
"881 1205 CURVE SMOOTH",
"803 1222 OFFCURVE",
"701 1231 OFFCURVE",
"561 1231 CURVE SMOOTH",
"365 1231 LINE",
"365 1441 LINE",
"191 1441 LINE",
"191 0 LINE"
);
}
);
width = 1245;
}
);
note = Thorn;
unicode = 00DE;
},
{
color = 4;
glyphname = Q;
layers = (
{
layerId = "2F8B9CD4-7B7F-4ACC-ADF3-B6E0F7033A19";
paths = (
{
closed = 1;
nodes = (
"751 262 OFFCURVE",
"801 197 OFFCURVE",
"858 114 CURVE",
"853 113 OFFCURVE",
"847 113 OFFCURVE",
"842 113 CURVE SMOOTH",
"837 113 OFFCURVE",
"831 113 OFFCURVE",
"826 113 CURVE SMOOTH",
"675 113 OFFCURVE",
"576 130 OFFCURVE",
"510 154 CURVE SMOOTH",
"444 177 OFFCURVE",
"411 208 OFFCURVE",
"394 236 CURVE",
"374 265 OFFCURVE",
"352 316 OFFCURVE",
"333 395 CURVE SMOOTH",
"314 474 OFFCURVE",
"301 580 OFFCURVE",
"301 721 CURVE SMOOTH",
"301 872 OFFCURVE",
"316 977 OFFCURVE",
"336 1052 CURVE SMOOTH",
"356 1127 OFFCURVE",
"381 1170 OFFCURVE",
"404 1198 CURVE SMOOTH",
"425 1225 OFFCURVE",
"467 1256 OFFCURVE",
"528 1281 CURVE SMOOTH",
"589 1305 OFFCURVE",
"671 1323 OFFCURVE",
"772 1323 CURVE SMOOTH",
"872 1323 OFFCURVE",
"953 1305 OFFCURVE",
"1014 1281 CURVE SMOOTH",
"1075 1257 OFFCURVE",
"1116 1226 OFFCURVE",
"1139 1199 CURVE",
"1160 1172 OFFCURVE",
"1187 1129 OFFCURVE",
"1208 1056 CURVE SMOOTH",
"1228 983 OFFCURVE",
"1243 878 OFFCURVE",
"1243 729 CURVE SMOOTH",
"1243 560 OFFCURVE",
"1225 445 OFFCURVE",
"1202 367 CURVE SMOOTH",
"1178 289 OFFCURVE",
"1149 246 OFFCURVE",
"1128 223 CURVE SMOOTH",
"1101 194 OFFCURVE",
"1056 166 OFFCURVE",
"1000 146 CURVE",
"983 171 OFFCURVE",
"967 194 OFFCURVE",
"952 216 CURVE SMOOTH",
"937 237 OFFCURVE",
"922 258 OFFCURVE",
"907 277 CURVE SMOOTH",
"878 315 OFFCURVE",
"850 350 OFFCURVE",
"819 386 CURVE",
"690 329 LINE"
);
},
{
closed = 1;
nodes = (
"1198 -133 OFFCURVE",
"1147 -70 OFFCURVE",
"1084 18 CURVE",
"1185 61 OFFCURVE",
"1247 116 OFFCURVE",
"1282 160 CURVE SMOOTH",
"1309 193 OFFCURVE",
"1344 248 OFFCURVE",
"1372 338 CURVE SMOOTH",
"1400 428 OFFCURVE",
"1422 552 OFFCURVE",
"1422 731 CURVE SMOOTH",
"1422 903 OFFCURVE",
"1399 1026 OFFCURVE",
"1368 1115 CURVE SMOOTH",
"1337 1204 OFFCURVE",
"1299 1259 OFFCURVE",
"1267 1294 CURVE SMOOTH",
"1236 1327 OFFCURVE",
"1183 1372 OFFCURVE",
"1102 1408 CURVE SMOOTH",
"1021 1444 OFFCURVE",
"912 1472 OFFCURVE",
"769 1472 CURVE SMOOTH",
"637 1472 OFFCURVE",
"534 1447 OFFCURVE",
"456 1414 CURVE SMOOTH",
"378 1381 OFFCURVE",
"323 1341 OFFCURVE",
"290 1309 CURVE SMOOTH",
"257 1277 OFFCURVE",
"215 1223 OFFCURVE",
"181 1131 CURVE SMOOTH",
"147 1039 OFFCURVE",
"121 908 OFFCURVE",
"121 724 CURVE SMOOTH",
"121 549 OFFCURVE",
"141 426 OFFCURVE",
"169 338 CURVE SMOOTH",
"196 250 OFFCURVE",
"229 196 OFFCURVE",
"254 163 CURVE SMOOTH",
"285 120 OFFCURVE",
"339 70 OFFCURVE",
"423 30 CURVE SMOOTH",
"507 -10 OFFCURVE",
"622 -39 OFFCURVE",
"773 -39 CURVE SMOOTH",
"834 -39 OFFCURVE",
"901 -32 OFFCURVE",
"944 -23 CURVE",
"980 -75 OFFCURVE",
"1010 -116 OFFCURVE",
"1041 -154 CURVE SMOOTH",
"1072 -192 OFFCURVE",
"1102 -226 OFFCURVE",
"1138 -262 CURVE",
"1261 -192 LINE"
);
}
);
width = 1545;
}
);
note = Q;
unicode = 0051;
},
{
color = 4;
glyphname = R;
layers = (
{
layerId = "2F8B9CD4-7B7F-4ACC-ADF3-B6E0F7033A19";
paths = (
{
closed = 1;
nodes = (
"939 799 OFFCURVE",
"873 779 OFFCURVE",
"770 776 CURVE SMOOTH",
"751 775 OFFCURVE",
"730 775 OFFCURVE",
"709 775 CURVE SMOOTH",
"688 775 OFFCURVE",
"666 775 OFFCURVE",
"643 775 CURVE SMOOTH",
"366 775 LINE",
"366 1299 LINE",
"673 1299 LINE SMOOTH",
"820 1299 OFFCURVE",
"916 1291 OFFCURVE",
"972 1244 CURVE SMOOTH",
"1019 1205 OFFCURVE",
"1034 1142 OFFCURVE",
"1034 1047 CURVE SMOOTH",
"1034 955 OFFCURVE",
"1025 888 OFFCURVE",
"984 843 CURVE"
);
},
{
closed = 1;
nodes = (
"366 0 LINE",
"366 632 LINE",
"669 632 LINE",
"691 610 OFFCURVE",
"718 577 OFFCURVE",
"749 533 CURVE SMOOTH",
"811 444 OFFCURVE",
"886 322 OFFCURVE",
"971 179 CURVE SMOOTH",
"1013 108 OFFCURVE",
"1057 34 OFFCURVE",
"1102 -41 CURVE",
"1254 20 LINE",
"976 481 LINE SMOOTH",
"959 508 OFFCURVE",
"942 531 OFFCURVE",
"925 552 CURVE SMOOTH",
"890 593 OFFCURVE",
"858 625 OFFCURVE",
"825 649 CURVE",
"946 657 OFFCURVE",
"1036 681 OFFCURVE",
"1099 728 CURVE SMOOTH",
"1180 792 OFFCURVE",
"1212 895 OFFCURVE",
"1212 1048 CURVE SMOOTH",
"1212 1187 OFFCURVE",
"1174 1292 OFFCURVE",
"1087 1357 CURVE SMOOTH",
"1022 1408 OFFCURVE",
"927 1430 OFFCURVE",
"814 1437 CURVE SMOOTH",
"758 1440 OFFCURVE",
"700 1441 OFFCURVE",
"637 1441 CURVE SMOOTH",
"192 1441 LINE",
"192 0 LINE"
);
}
);
width = 1335;
}
);
note = R;
unicode = 0052;
},
{
color = 4;
glyphname = S;
layers = (
{
layerId = "2F8B9CD4-7B7F-4ACC-ADF3-B6E0F7033A19";
paths = (
{
closed = 1;
nodes = (
"135 102 OFFCURVE",
"194 52 OFFCURVE",
"277 17 CURVE SMOOTH",
"360 -18 OFFCURVE",
"465 -39 OFFCURVE",
"588 -39 CURVE SMOOTH",
"739 -39 OFFCURVE",
"857 -12 OFFCURVE",
"943 43 CURVE SMOOTH",
"1060 118 OFFCURVE",
"1115 237 OFFCURVE",
"1115 398 CURVE SMOOTH",
"1115 507 OFFCURVE",
"1093 587 OFFCURVE",
"1051 647 CURVE SMOOTH",
"1009 706 OFFCURVE",
"950 745 OFFCURVE",
"876 776 CURVE SMOOTH",
"802 807 OFFCURVE",
"714 828 OFFCURVE",
"617 852 CURVE SMOOTH",
"518 875 OFFCURVE",
"438 896 OFFCURVE",
"382 932 CURVE SMOOTH",
"326 968 OFFCURVE",
"295 1017 OFFCURVE",
"295 1096 CURVE SMOOTH",
"295 1157 OFFCURVE",
"309 1206 OFFCURVE",
"337 1241 CURVE SMOOTH",
"386 1304 OFFCURVE",
"457 1325 OFFCURVE",
"602 1325 CURVE SMOOTH",
"753 1325 OFFCURVE",
"830 1289 OFFCURVE",
"871 1268 CURVE SMOOTH",
"935 1233 OFFCURVE",
"972 1189 OFFCURVE",
"987 1168 CURVE",
"1045 1320 LINE",
"1029 1339 OFFCURVE",
"989 1376 OFFCURVE",
"919 1415 CURVE SMOOTH",
"849 1454 OFFCURVE",
"769 1477 OFFCURVE",
"612 1477 CURVE SMOOTH",
"408 1477 OFFCURVE",
"306 1438 OFFCURVE",
"222 1361 CURVE SMOOTH",
"157 1298 OFFCURVE",
"121 1207 OFFCURVE",
"121 1092 CURVE SMOOTH",
"121 971 OFFCURVE",
"161 879 OFFCURVE",
"253 808 CURVE",
"305 771 OFFCURVE",
"362 746 OFFCURVE",
"427 726 CURVE SMOOTH",
"491 706 OFFCURVE",
"565 689 OFFCURVE",
"649 669 CURVE SMOOTH",
"756 644 OFFCURVE",
"827 616 OFFCURVE",
"872 574 CURVE SMOOTH",
"917 532 OFFCURVE",
"935 474 OFFCURVE",
"935 390 CURVE SMOOTH",
"935 294 OFFCURVE",
"906 220 OFFCURVE",
"842 172 CURVE SMOOTH",
"789 133 OFFCURVE",
"712 112 OFFCURVE",
"605 112 CURVE SMOOTH",
"501 112 OFFCURVE",
"403 134 OFFCURVE",
"326 169 CURVE SMOOTH",
"249 204 OFFCURVE",
"192 250 OFFCURVE",
"172 301 CURVE",
"106 158 LINE"
);
}
);
width = 1211;
}
);
note = S;
unicode = 0053;
},
{
color = 4;
glyphname = T;
layers = (
{
layerId = "2F8B9CD4-7B7F-4ACC-ADF3-B6E0F7033A19";
paths = (
{
closed = 1;
nodes = (
"485 1297 LINE",
"485 -1 LINE",
"658 -1 LINE",
"658 1297 LINE",
"1106 1297 LINE",
"1106 1441 LINE",
"38 1441 LINE",
"38 1297 LINE"
);
}
);
width = 1145;
}
);
note = T;
unicode = 0054;
},
{
color = 4;
glyphname = U;
layers = (
{
layerId = "2F8B9CD4-7B7F-4ACC-ADF3-B6E0F7033A19";
paths = (
{
closed = 1;
nodes = (
"1161 554 OFFCURVE",
"1158 496 OFFCURVE",
"1153 448 CURVE SMOOTH",
"1141 352 OFFCURVE",
"1126 290 OFFCURVE",
"1110 254 CURVE",
"1101 236 OFFCURVE",
"1095 223 OFFCURVE",
"1090 216 CURVE",
"1074 191 OFFCURVE",
"1041 162 OFFCURVE",
"987 139 CURVE SMOOTH",
"933 115 OFFCURVE",
"858 99 OFFCURVE",
"759 99 CURVE SMOOTH",
"656 99 OFFCURVE",
"582 117 OFFCURVE",
"528 141 CURVE SMOOTH",
"474 164 OFFCURVE",
"441 193 OFFCURVE",
"425 216 CURVE SMOOTH",
"409 239 OFFCURVE",
"390 284 OFFCURVE",
"375 360 CURVE SMOOTH",
"360 435 OFFCURVE",
"350 540 OFFCURVE",
"350 683 CURVE SMOOTH",
"350 1441 LINE",
"176 1441 LINE",
"176 679 LINE SMOOTH",
"176 494 OFFCURVE",
"193 363 OFFCURVE",
"219 269 CURVE SMOOTH",
"245 175 OFFCURVE",
"279 119 OFFCURVE",
"315 87 CURVE SMOOTH",
"340 64 OFFCURVE",
"389 31 OFFCURVE",
"462 3 CURVE SMOOTH",
"535 -25 OFFCURVE",
"632 -48 OFFCURVE",
"755 -48 CURVE SMOOTH",
"878 -48 OFFCURVE",
"973 -25 OFFCURVE",
"1045 3 CURVE SMOOTH",
"1116 31 OFFCURVE",
"1163 64 OFFCURVE",
"1188 87 CURVE SMOOTH",
"1223 118 OFFCURVE",
"1259 173 OFFCURVE",
"1287 269 CURVE SMOOTH",
"1315 365 OFFCURVE",
"1335 500 OFFCURVE",
"1335 688 CURVE SMOOTH",
"1335 1441 LINE",
"1161 1441 LINE",
"1161 621 LINE SMOOTH"
);
}
);
width = 1511;
}
);
note = U;
unicode = 0055;
},
{
color = 4;
glyphname = V;
layers = (
{
layerId = "2F8B9CD4-7B7F-4ACC-ADF3-B6E0F7033A19";
paths = (
{
closed = 1;
nodes = (
"705 24 OFFCURVE",
"717 58 OFFCURVE",
"734 101 CURVE SMOOTH",
"750 144 OFFCURVE",
"770 200 OFFCURVE",
"795 268 CURVE SMOOTH",
"843 404 OFFCURVE",
"910 593 OFFCURVE",
"998 849 CURVE SMOOTH",
"1200 1441 LINE",
"1026 1441 LINE",
"877 995 LINE SMOOTH",
"872 979 OFFCURVE",
"864 957 OFFCURVE",
"855 929 CURVE SMOOTH",
"845 900 OFFCURVE",
"834 868 OFFCURVE",
"822 832 CURVE SMOOTH",
"810 796 OFFCURVE",
"797 757 OFFCURVE",
"783 716 CURVE SMOOTH",
"769 675 OFFCURVE",
"755 633 OFFCURVE",
"741 590 CURVE SMOOTH",
"712 505 OFFCURVE",
"684 420 OFFCURVE",
"661 349 CURVE SMOOTH",
"638 277 OFFCURVE",
"621 220 OFFCURVE",
"614 189 CURVE",
"605 229 OFFCURVE",
"577 319 OFFCURVE",
"542 424 CURVE SMOOTH",
"507 528 OFFCURVE",
"467 650 OFFCURVE",
"431 756 CURVE SMOOTH",
"395 862 OFFCURVE",
"364 952 OFFCURVE",
"349 995 CURVE SMOOTH",
"195 1441 LINE",
"21 1441 LINE",
"193 945 LINE SMOOTH",
"240 809 OFFCURVE",
"283 689 OFFCURVE",
"320 586 CURVE SMOOTH",
"395 378 OFFCURVE",
"450 228 OFFCURVE",
"490 125 CURVE SMOOTH",
"509 74 OFFCURVE",
"525 32 OFFCURVE",
"537 0 CURVE",
"696 0 LINE"
);
}
);
width = 1226;
}
);
note = V;
unicode = 0056;
},
{
color = 4;
glyphname = W;
layers = (
{
layerId = "2F8B9CD4-7B7F-4ACC-ADF3-B6E0F7033A19";
paths = (
{
closed = 1;
nodes = (
"455 478 LINE",
"203 1441 LINE",
"38 1441 LINE",
"429 0 LINE",
"601 0 LINE",
"839 987 LINE",
"894 1258 LINE",
"950 987 LINE",
"1187 0 LINE",
"1360 0 LINE",
"1752 1441 LINE",
"1588 1441 LINE",
"1333 476 LINE",
"1272 193 LINE",
"1214 474 LINE",
"1030 1251 LINE",
"979 1441 LINE",
"809 1441 LINE",
"757 1251 LINE",
"573 476 LINE",
"517 194 LINE"
);
}
);
width = 1789;
}
);
note = W;
unicode = 0057;
},
{
color = 4;
glyphname = X;
layers = (
{
layerId = "2F8B9CD4-7B7F-4ACC-ADF3-B6E0F7033A19";
paths = (
{
closed = 1;
nodes = (
"346 498 LINE",
"46 0 LINE",
"243 0 LINE",
"594 614 LINE",
"953 0 LINE",
"1152 0 LINE",
"848 500 LINE",
"691 747 LINE",
"837 975 LINE",
"1121 1441 LINE",
"927 1441 LINE",
"594 871 LINE",
"551 944 OFFCURVE",
"509 1015 OFFCURVE",
"468 1085 CURVE SMOOTH",
"451 1115 OFFCURVE",
"433 1146 OFFCURVE",
"414 1178 CURVE SMOOTH",
"395 1209 OFFCURVE",
"376 1241 OFFCURVE",
"357 1272 CURVE SMOOTH",
"320 1335 OFFCURVE",
"285 1393 OFFCURVE",
"257 1441 CURVE",
"59 1441 LINE",
"350 973 LINE",
"499 745 LINE"
);
}
);
width = 1191;
}
);
note = X;
unicode = 0058;
},
{
color = 4;
glyphname = Y;
layers = (
{
layerId = "2F8B9CD4-7B7F-4ACC-ADF3-B6E0F7033A19";
paths = (
{
closed = 1;
nodes = (
"657 0 LINE",
"657 602 LINE",
"724 712 OFFCURVE",
"789 819 OFFCURVE",
"851 923 CURVE SMOOTH",
"878 967 OFFCURVE",
"905 1013 OFFCURVE",
"933 1060 CURVE SMOOTH",
"960 1107 OFFCURVE",
"987 1154 OFFCURVE",
"1014 1199 CURVE SMOOTH",
"1067 1290 OFFCURVE",
"1116 1376 OFFCURVE",
"1152 1441 CURVE",
"964 1441 LINE",
"953 1420 OFFCURVE",
"939 1395 OFFCURVE",
"924 1368 CURVE SMOOTH",
"893 1313 OFFCURVE",
"858 1251 OFFCURVE",
"822 1187 CURVE SMOOTH",
"803 1154 OFFCURVE",
"786 1123 OFFCURVE",
"769 1093 CURVE SMOOTH",
"728 1022 OFFCURVE",
"687 949 OFFCURVE",
"644 872 CURVE SMOOTH",
"572 740 LINE",
"499 872 LINE SMOOTH",
"456 949 OFFCURVE",
"414 1022 OFFCURVE",
"374 1093 CURVE SMOOTH",
"357 1123 OFFCURVE",
"339 1154 OFFCURVE",
"322 1187 CURVE",
"304 1219 OFFCURVE",
"287 1250 OFFCURVE",
"270 1281 CURVE SMOOTH",
"236 1342 OFFCURVE",
"205 1398 OFFCURVE",
"182 1441 CURVE",
"-4 1441 LINE",
"13 1408 OFFCURVE",
"34 1370 OFFCURVE",
"57 1329 CURVE SMOOTH",
"104 1246 OFFCURVE",
"156 1154 OFFCURVE",
"212 1059 CURVE SMOOTH",
"239 1012 OFFCURVE",
"266 966 OFFCURVE",
"292 921 CURVE SMOOTH",
"353 816 OFFCURVE",
"417 709 OFFCURVE",
"483 599 CURVE",
"483 0 LINE"
);
}
);
width = 1142;
}
);
note = Y;
unicode = 0059;
},
{
color = 4;
glyphname = Z;
layers = (
{
layerId = "2F8B9CD4-7B7F-4ACC-ADF3-B6E0F7033A19";
paths = (
{
closed = 1;
nodes = (
"897 1297 LINE",
"872 1260 OFFCURVE",
"839 1212 OFFCURVE",
"799 1155 CURVE SMOOTH",
"759 1098 OFFCURVE",
"715 1034 OFFCURVE",
"667 965 CURVE SMOOTH",
"570 826 OFFCURVE",
"457 668 OFFCURVE",
"349 516 CURVE SMOOTH",
"240 363 OFFCURVE",
"133 217 OFFCURVE",
"48 102 CURVE",
"88 0 LINE",
"1095 0 LINE",
"1095 144 LINE",
"277 144 LINE",
"306 185 OFFCURVE",
"338 230 OFFCURVE",
"373 281 CURVE SMOOTH",
"443 382 OFFCURVE",
"520 494 OFFCURVE",
"601 610 CURVE SMOOTH",
"681 726 OFFCURVE",
"760 839 OFFCURVE",
"833 943 CURVE SMOOTH",
"870 995 OFFCURVE",
"903 1043 OFFCURVE",
"934 1087 CURVE SMOOTH",
"995 1174 OFFCURVE",
"1043 1240 OFFCURVE",
"1070 1275 CURVE",
"1049 1441 LINE",
"152 1441 LINE",
"152 1297 LINE"
);
}
);
width = 1183;
}
);
note = Z;
unicode = 005A;
},
{
color = 4;
glyphname = a;
layers = (
{
layerId = "2F8B9CD4-7B7F-4ACC-ADF3-B6E0F7033A19";
paths = (
{
closed = 1;
nodes = (
"270 799 OFFCURVE",
"288 831 OFFCURVE",
"303 851 CURVE SMOOTH",
"320 875 OFFCURVE",
"333 884 OFFCURVE",
"368 893 CURVE SMOOTH",
"399 901 OFFCURVE",
"450 909 OFFCURVE",
"541 909 CURVE SMOOTH",
"574 909 OFFCURVE",
"601 908 OFFCURVE",
"624 905 CURVE SMOOTH",
"668 899 OFFCURVE",
"695 889 OFFCURVE",
"711 881 CURVE",
"718 877 OFFCURVE",
"724 874 OFFCURVE",
"728 872 CURVE SMOOTH",
"741 865 OFFCURVE",
"754 856 OFFCURVE",
"763 822 CURVE SMOOTH",
"772 788 OFFCURVE",
"778 728 OFFCURVE",
"778 627 CURVE",
"762 623 OFFCURVE",
"746 620 OFFCURVE",
"730 619 CURVE SMOOTH",
"697 616 OFFCURVE",
"660 615 OFFCURVE",
"614 615 CURVE SMOOTH",
"591 615 OFFCURVE",
"564 614 OFFCURVE",
"534 613 CURVE SMOOTH",
"413 608 OFFCURVE",
"327 588 OFFCURVE",
"267 565 CURVE SMOOTH",
"207 541 OFFCURVE",
"173 513 OFFCURVE",
"156 492 CURVE SMOOTH",
"145 479 OFFCURVE",
"131 460 OFFCURVE",
"120 428 CURVE SMOOTH",
"108 395 OFFCURVE",
"99 350 OFFCURVE",
"99 282 CURVE SMOOTH",
"99 225 OFFCURVE",
"108 180 OFFCURVE",
"120 145 CURVE SMOOTH",
"132 110 OFFCURVE",
"146 86 OFFCURVE",
"157 73 CURVE SMOOTH",
"172 54 OFFCURVE",
"201 30 OFFCURVE",
"249 11 CURVE SMOOTH",
"296 -9 OFFCURVE",
"362 -23 OFFCURVE",
"450 -23 CURVE SMOOTH",
"553 -23 OFFCURVE",
"632 1 OFFCURVE",
"689 31 CURVE SMOOTH",
"745 61 OFFCURVE",
"782 95 OFFCURVE",
"799 118 CURVE",
"799 91 OFFCURVE",
"804 59 OFFCURVE",
"821 32 CURVE SMOOTH",
"838 4 OFFCURVE",
"870 -18 OFFCURVE",
"922 -25 CURVE",
"946 -25 OFFCURVE",
"965 -23 OFFCURVE",
"992 -15 CURVE",
"992 99 LINE",
"978 99 OFFCURVE",
"967 100 OFFCURVE",
"959 102 CURVE SMOOTH",
"943 106 OFFCURVE",
"936 120 OFFCURVE",
"933 150 CURVE SMOOTH",
"932 165 OFFCURVE",
"931 185 OFFCURVE",
"931 211 CURVE SMOOTH",
"931 591 LINE SMOOTH",
"931 702 OFFCURVE",
"925 776 OFFCURVE",
"917 826 CURVE SMOOTH",
"909 876 OFFCURVE",
"898 903 OFFCURVE",
"889 922 CURVE",
"878 942 OFFCURVE",
"853 970 OFFCURVE",
"799 994 CURVE SMOOTH",
"745 1017 OFFCURVE",
"662 1035 OFFCURVE",
"539 1035 CURVE SMOOTH",
"414 1035 OFFCURVE",
"334 1017 OFFCURVE",
"279 992 CURVE SMOOTH",
"242 975 OFFCURVE",
"211 957 OFFCURVE",
"187 929 CURVE SMOOTH",
"163 900 OFFCURVE",
"146 859 OFFCURVE",
"134 798 CURVE",
"262 750 LINE"
);
},
{
closed = 1;
nodes = (
"778 243 OFFCURVE",
"751 194 OFFCURVE",
"702 158 CURVE SMOOTH",
"653 122 OFFCURVE",
"580 99 OFFCURVE",
"487 99 CURVE SMOOTH",
"407 99 OFFCURVE",
"360 107 OFFCURVE",
"330 119 CURVE SMOOTH",
"300 131 OFFCURVE",
"287 146 OFFCURVE",
"279 159 CURVE SMOOTH",
"274 167 OFFCURVE",
"269 182 OFFCURVE",
"264 203 CURVE SMOOTH",
"259 224 OFFCURVE",
"256 252 OFFCURVE",
"256 285 CURVE SMOOTH",
"256 321 OFFCURVE",
"259 350 OFFCURVE",
"265 372 CURVE SMOOTH",
"276 415 OFFCURVE",
"288 425 OFFCURVE",
"311 441 CURVE SMOOTH",
"334 456 OFFCURVE",
"373 470 OFFCURVE",
"434 482 CURVE SMOOTH",
"494 493 OFFCURVE",
"584 498 OFFCURVE",
"633 499 CURVE SMOOTH",
"657 500 OFFCURVE",
"678 501 OFFCURVE",
"695 502 CURVE SMOOTH",
"730 505 OFFCURVE",
"754 507 OFFCURVE",
"778 515 CURVE",
"778 295 LINE SMOOTH"
);
}
);
width = 1091;
}
);
note = a;
unicode = 0061;
},
{
color = 4;
glyphname = ae;
layers = (
{
layerId = "2F8B9CD4-7B7F-4ACC-ADF3-B6E0F7033A19";
paths = (
{
closed = 1;
nodes = (
"270 799 OFFCURVE",
"288 831 OFFCURVE",
"303 851 CURVE SMOOTH",
"320 875 OFFCURVE",
"333 884 OFFCURVE",
"368 893 CURVE SMOOTH",
"399 901 OFFCURVE",
"450 909 OFFCURVE",
"541 909 CURVE SMOOTH",
"574 909 OFFCURVE",
"601 908 OFFCURVE",
"624 905 CURVE SMOOTH",
"668 899 OFFCURVE",
"695 889 OFFCURVE",
"711 881 CURVE",
"718 877 OFFCURVE",
"724 874 OFFCURVE",
"728 872 CURVE SMOOTH",
"741 865 OFFCURVE",
"754 856 OFFCURVE",
"763 822 CURVE SMOOTH",
"772 788 OFFCURVE",
"778 728 OFFCURVE",
"778 627 CURVE",
"762 623 OFFCURVE",
"746 620 OFFCURVE",
"730 619 CURVE SMOOTH",
"697 616 OFFCURVE",
"660 615 OFFCURVE",
"614 615 CURVE SMOOTH",
"591 615 OFFCURVE",
"564 614 OFFCURVE",
"534 613 CURVE SMOOTH",
"413 608 OFFCURVE",
"327 588 OFFCURVE",
"267 565 CURVE SMOOTH",
"207 541 OFFCURVE",
"173 513 OFFCURVE",
"156 492 CURVE SMOOTH",
"145 479 OFFCURVE",
"131 460 OFFCURVE",
"120 428 CURVE SMOOTH",
"108 395 OFFCURVE",
"99 350 OFFCURVE",
"99 282 CURVE SMOOTH",
"99 225 OFFCURVE",
"108 180 OFFCURVE",
"120 145 CURVE SMOOTH",
"132 110 OFFCURVE",
"146 86 OFFCURVE",
"157 73 CURVE SMOOTH",
"172 54 OFFCURVE",
"201 30 OFFCURVE",
"249 10 CURVE SMOOTH",
"296 -10 OFFCURVE",
"362 -25 OFFCURVE",
"450 -25 CURVE SMOOTH",
"653 -25 OFFCURVE",
"790 43 OFFCURVE",
"858 147 CURVE",
"887 82 OFFCURVE",
"940 39 OFFCURVE",
"1005 12 CURVE SMOOTH",
"1070 -15 OFFCURVE",
"1146 -25 OFFCURVE",
"1222 -25 CURVE SMOOTH",
"1315 -25 OFFCURVE",
"1385 -9 OFFCURVE",
"1436 14 CURVE SMOOTH",
"1487 37 OFFCURVE",
"1520 65 OFFCURVE",
"1540 90 CURVE SMOOTH",
"1544 95 OFFCURVE",
"1549 101 OFFCURVE",
"1556 108 CURVE",
"1562 115 OFFCURVE",
"1568 126 OFFCURVE",
"1575 140 CURVE SMOOTH",
"1588 167 OFFCURVE",
"1602 209 OFFCURVE",
"1613 273 CURVE",
"1489 307 LINE",
"1472 212 OFFCURVE",
"1451 167 OFFCURVE",
"1415 143 CURVE",
"1404 135 OFFCURVE",
"1387 125 OFFCURVE",
"1358 115 CURVE SMOOTH",
"1329 105 OFFCURVE",
"1287 97 OFFCURVE",
"1226 97 CURVE SMOOTH",
"1194 97 OFFCURVE",
"1167 99 OFFCURVE",
"1146 102 CURVE SMOOTH",
"1103 109 OFFCURVE",
"1076 117 OFFCURVE",
"1057 129 CURVE",
"1034 142 OFFCURVE",
"1013 163 OFFCURVE",
"995 193 CURVE SMOOTH",
"964 244 OFFCURVE",
"934 332 OFFCURVE",
"934 480 CURVE",
"1621 480 LINE",
"1621 485 OFFCURVE",
"1621 493 OFFCURVE",
"1622 504 CURVE",
"1622 515 OFFCURVE",
"1622 526 OFFCURVE",
"1622 538 CURVE SMOOTH",
"1622 549 OFFCURVE",
"1622 560 OFFCURVE",
"1623 571 CURVE",
"1623 581 OFFCURVE",
"1623 588 OFFCURVE",
"1623 591 CURVE SMOOTH",
"1623 680 OFFCURVE",
"1611 748 OFFCURVE",
"1595 797 CURVE SMOOTH",
"1579 846 OFFCURVE",
"1561 878 OFFCURVE",
"1546 898 CURVE",
"1527 926 OFFCURVE",
"1498 959 OFFCURVE",
"1447 987 CURVE SMOOTH",
"1396 1014 OFFCURVE",
"1323 1034 OFFCURVE",
"1218 1034 CURVE SMOOTH",
"1115 1034 OFFCURVE",
"1040 1014 OFFCURVE",
"984 987 CURVE SMOOTH",
"928 959 OFFCURVE",
"893 925 OFFCURVE",
"872 897 CURVE",
"871 896 LINE",
"869 902 LINE",
"860 925 OFFCURVE",
"835 958 OFFCURVE",
"784 986 CURVE SMOOTH",
"733 1013 OFFCURVE",
"655 1035 OFFCURVE",
"539 1035 CURVE SMOOTH",
"414 1035 OFFCURVE",
"334 1017 OFFCURVE",
"279 992 CURVE SMOOTH",
"242 975 OFFCURVE",
"211 957 OFFCURVE",
"187 929 CURVE SMOOTH",
"163 900 OFFCURVE",
"146 859 OFFCURVE",
"134 798 CURVE",
"262 750 LINE"
);
},
{
closed = 1;
nodes = (
"778 243 OFFCURVE",
"751 194 OFFCURVE",
"702 158 CURVE SMOOTH",
"653 122 OFFCURVE",
"580 99 OFFCURVE",
"487 99 CURVE SMOOTH",
"407 99 OFFCURVE",
"360 107 OFFCURVE",
"330 119 CURVE SMOOTH",
"300 131 OFFCURVE",
"287 146 OFFCURVE",
"279 159 CURVE SMOOTH",
"274 167 OFFCURVE",
"269 182 OFFCURVE",
"264 203 CURVE SMOOTH",
"259 224 OFFCURVE",
"256 252 OFFCURVE",
"256 285 CURVE SMOOTH",
"256 321 OFFCURVE",
"259 350 OFFCURVE",
"265 372 CURVE SMOOTH",
"276 415 OFFCURVE",
"288 425 OFFCURVE",
"311 441 CURVE SMOOTH",
"334 456 OFFCURVE",
"373 470 OFFCURVE",
"434 482 CURVE SMOOTH",
"494 493 OFFCURVE",
"584 498 OFFCURVE",
"633 499 CURVE SMOOTH",
"657 500 OFFCURVE",
"678 501 OFFCURVE",
"695 502 CURVE SMOOTH",
"730 505 OFFCURVE",
"754 507 OFFCURVE",
"778 515 CURVE",
"778 505 LINE",
"778 295 LINE SMOOTH"
);
},
{
closed = 1;
nodes = (
"939 675 OFFCURVE",
"951 731 OFFCURVE",
"964 771 CURVE SMOOTH",
"977 811 OFFCURVE",
"993 833 OFFCURVE",
"1005 846 CURVE SMOOTH",
"1017 859 OFFCURVE",
"1037 875 OFFCURVE",
"1070 888 CURVE SMOOTH",
"1103 901 OFFCURVE",
"1150 911 OFFCURVE",
"1214 911 CURVE SMOOTH",
"1262 911 OFFCURVE",
"1299 905 OFFCURVE",
"1327 895 CURVE SMOOTH",
"1355 885 OFFCURVE",
"1374 872 OFFCURVE",
"1387 863 CURVE SMOOTH",
"1402 852 OFFCURVE",
"1419 832 OFFCURVE",
"1435 789 CURVE SMOOTH",
"1450 746 OFFCURVE",
"1463 683 OFFCURVE",
"1468 588 CURVE",
"1389 594 LINE",
"936 594 LINE"
);
}
);
width = 1731;
}
);
note = ae;
unicode = 00E6;
},
{
color = 4;
glyphname = b;
layers = (
{
layerId = "2F8B9CD4-7B7F-4ACC-ADF3-B6E0F7033A19";
paths = (
{
closed = 1;
nodes = (
"686 908 OFFCURVE",
"737 898 OFFCURVE",
"772 884 CURVE SMOOTH",
"807 870 OFFCURVE",
"825 851 OFFCURVE",
"836 834 CURVE SMOOTH",
"847 817 OFFCURVE",
"860 791 OFFCURVE",
"872 740 CURVE SMOOTH",
"883 689 OFFCURVE",
"891 614 OFFCURVE",
"891 498 CURVE SMOOTH",
"891 386 OFFCURVE",
"883 314 OFFCURVE",
"872 266 CURVE SMOOTH",
"860 217 OFFCURVE",
"846 192 OFFCURVE",
"834 176 CURVE",
"823 160 OFFCURVE",
"805 141 OFFCURVE",
"770 126 CURVE SMOOTH",
"735 110 OFFCURVE",
"684 100 OFFCURVE",
"608 100 CURVE SMOOTH",
"568 100 OFFCURVE",
"534 102 OFFCURVE",
"507 107 CURVE SMOOTH",
"451 116 OFFCURVE",
"415 131 OFFCURVE",
"392 150 CURVE SMOOTH",
"368 169 OFFCURVE",
"358 180 OFFCURVE",
"346 212 CURVE SMOOTH",
"340 227 OFFCURVE",
"335 248 OFFCURVE",
"330 275 CURVE SMOOTH",
"320 328 OFFCURVE",
"311 405 OFFCURVE",
"311 512 CURVE SMOOTH",
"311 623 OFFCURVE",
"320 694 OFFCURVE",
"332 743 CURVE SMOOTH",
"344 791 OFFCURVE",
"360 816 OFFCURVE",
"373 833 CURVE SMOOTH",
"385 849 OFFCURVE",
"405 869 OFFCURVE",
"441 883 CURVE SMOOTH",
"477 897 OFFCURVE",
"529 908 OFFCURVE",
"609 908 CURVE SMOOTH"
);
},
{
closed = 1;
nodes = (
"277 0 LINE",
"296 157 LINE",
"309 133 OFFCURVE",
"337 88 OFFCURVE",
"391 49 CURVE SMOOTH",
"445 9 OFFCURVE",
"525 -23 OFFCURVE",
"645 -23 CURVE SMOOTH",
"745 -23 OFFCURVE",
"820 -2 OFFCURVE",
"873 27 CURVE SMOOTH",
"926 55 OFFCURVE",
"960 92 OFFCURVE",
"977 123 CURVE SMOOTH",
"990 146 OFFCURVE",
"1008 178 OFFCURVE",
"1022 236 CURVE SMOOTH",
"1036 294 OFFCURVE",
"1047 378 OFFCURVE",
"1047 506 CURVE SMOOTH",
"1047 645 OFFCURVE",
"1034 739 OFFCURVE",
"1015 805 CURVE SMOOTH",
"996 871 OFFCURVE",
"972 907 OFFCURVE",
"949 930 CURVE SMOOTH",
"932 947 OFFCURVE",
"902 972 OFFCURVE",
"854 993 CURVE SMOOTH",
"806 1014 OFFCURVE",
"738 1031 OFFCURVE",
"646 1031 CURVE SMOOTH",
"541 1031 OFFCURVE",
"469 1004 OFFCURVE",
"418 968 CURVE SMOOTH",
"366 931 OFFCURVE",
"336 884 OFFCURVE",
"312 844 CURVE",
"312 1441 LINE",
"158 1441 LINE",
"158 0 LINE"
);
}
);
width = 1162;
}
);
note = b;
unicode = 0062;
},
{
color = 4;
glyphname = c;
layers = (
{
layerId = "2F8B9CD4-7B7F-4ACC-ADF3-B6E0F7033A19";
paths = (
{
closed = 1;
nodes = (
"845 256 OFFCURVE",
"836 224 OFFCURVE",
"828 203 CURVE SMOOTH",
"820 182 OFFCURVE",
"812 170 OFFCURVE",
"804 162 CURVE SMOOTH",
"789 147 OFFCURVE",
"768 131 OFFCURVE",
"732 119 CURVE SMOOTH",
"696 106 OFFCURVE",
"646 97 OFFCURVE",
"577 97 CURVE SMOOTH",
"496 97 OFFCURVE",
"441 107 OFFCURVE",
"402 123 CURVE SMOOTH",
"363 138 OFFCURVE",
"341 156 OFFCURVE",
"328 175 CURVE",
"313 192 OFFCURVE",
"298 217 OFFCURVE",
"286 266 CURVE SMOOTH",
"274 315 OFFCURVE",
"265 390 OFFCURVE",
"265 507 CURVE SMOOTH",
"265 620 OFFCURVE",
"273 693 OFFCURVE",
"285 741 CURVE SMOOTH",
"296 789 OFFCURVE",
"311 814 OFFCURVE",
"324 831 CURVE SMOOTH",
"337 848 OFFCURVE",
"359 868 OFFCURVE",
"397 884 CURVE SMOOTH",
"435 899 OFFCURVE",
"489 910 OFFCURVE",
"572 910 CURVE SMOOTH",
"640 910 OFFCURVE",
"689 901 OFFCURVE",
"725 889 CURVE SMOOTH",
"760 877 OFFCURVE",
"782 861 OFFCURVE",
"795 846 CURVE SMOOTH",
"802 838 OFFCURVE",
"810 826 OFFCURVE",
"818 805 CURVE SMOOTH",
"826 784 OFFCURVE",
"834 752 OFFCURVE",
"842 704 CURVE",
"968 739 LINE",
"961 802 OFFCURVE",
"948 844 OFFCURVE",
"933 875 CURVE SMOOTH",
"918 906 OFFCURVE",
"902 925 OFFCURVE",
"889 938 CURVE SMOOTH",
"873 954 OFFCURVE",
"844 978 OFFCURVE",
"794 998 CURVE SMOOTH",
"744 1018 OFFCURVE",
"673 1035 OFFCURVE",
"576 1035 CURVE SMOOTH",
"472 1035 OFFCURVE",
"393 1016 OFFCURVE",
"334 991 CURVE SMOOTH",
"274 966 OFFCURVE",
"236 935 OFFCURVE",
"215 911 CURVE SMOOTH",
"194 887 OFFCURVE",
"167 850 OFFCURVE",
"146 787 CURVE SMOOTH",
"125 724 OFFCURVE",
"109 636 OFFCURVE",
"109 509 CURVE SMOOTH",
"109 380 OFFCURVE",
"125 290 OFFCURVE",
"146 226 CURVE SMOOTH",
"166 162 OFFCURVE",
"193 124 OFFCURVE",
"214 100 CURVE SMOOTH",
"235 76 OFFCURVE",
"273 45 OFFCURVE",
"333 21 CURVE SMOOTH",
"392 -4 OFFCURVE",
"471 -23 OFFCURVE",
"575 -23 CURVE SMOOTH",
"675 -23 OFFCURVE",
"746 -7 OFFCURVE",
"798 13 CURVE SMOOTH",
"849 33 OFFCURVE",
"879 57 OFFCURVE",
"895 73 CURVE SMOOTH",
"908 86 OFFCURVE",
"925 104 OFFCURVE",
"941 135 CURVE SMOOTH",
"956 166 OFFCURVE",
"967 208 OFFCURVE",
"974 269 CURVE",
"853 304 LINE"
);
}
);
width = 1068;
}
);
note = c;
unicode = 0063;
},
{
color = 4;
glyphname = d;
layers = (
{
layerId = "2F8B9CD4-7B7F-4ACC-ADF3-B6E0F7033A19";
paths = (
{
closed = 1;
nodes = (
"687 909 OFFCURVE",
"770 882 OFFCURVE",
"813 806 CURVE SMOOTH",
"816 801 OFFCURVE",
"819 791 OFFCURVE",
"824 778 CURVE",
"828 764 OFFCURVE",
"832 745 OFFCURVE",
"836 721 CURVE SMOOTH",
"844 673 OFFCURVE",
"851 604 OFFCURVE",
"851 505 CURVE SMOOTH",
"851 390 OFFCURVE",
"841 318 OFFCURVE",
"829 270 CURVE SMOOTH",
"816 221 OFFCURVE",
"800 196 OFFCURVE",
"787 180 CURVE SMOOTH",
"774 163 OFFCURVE",
"755 144 OFFCURVE",
"719 129 CURVE SMOOTH",
"683 113 OFFCURVE",
"630 102 OFFCURVE",
"553 102 CURVE SMOOTH",
"476 102 OFFCURVE",
"425 113 OFFCURVE",
"390 129 CURVE SMOOTH",
"355 144 OFFCURVE",
"338 164 OFFCURVE",
"326 180 CURVE SMOOTH",
"314 196 OFFCURVE",
"301 219 OFFCURVE",
"290 266 CURVE SMOOTH",
"278 313 OFFCURVE",
"270 383 OFFCURVE",
"270 495 CURVE SMOOTH",
"270 607 OFFCURVE",
"278 681 OFFCURVE",
"289 732 CURVE SMOOTH",
"300 783 OFFCURVE",
"313 810 OFFCURVE",
"325 827 CURVE SMOOTH",
"337 844 OFFCURVE",
"355 865 OFFCURVE",
"391 881 CURVE SMOOTH",
"426 897 OFFCURVE",
"477 909 OFFCURVE",
"556 909 CURVE SMOOTH"
);
},
{
closed = 1;
nodes = (
"832 904 OFFCURVE",
"801 948 OFFCURVE",
"749 980 CURVE SMOOTH",
"696 1012 OFFCURVE",
"621 1033 OFFCURVE",
"520 1033 CURVE SMOOTH",
"428 1033 OFFCURVE",
"360 1017 OFFCURVE",
"312 995 CURVE SMOOTH",
"263 973 OFFCURVE",
"232 946 OFFCURVE",
"215 929 CURVE SMOOTH",
"192 905 OFFCURVE",
"167 869 OFFCURVE",
"148 803 CURVE SMOOTH",
"128 737 OFFCURVE",
"114 642 OFFCURVE",
"114 505 CURVE SMOOTH",
"114 377 OFFCURVE",
"125 292 OFFCURVE",
"139 236 CURVE SMOOTH",
"153 179 OFFCURVE",
"170 148 OFFCURVE",
"183 125 CURVE SMOOTH",
"200 94 OFFCURVE",
"234 57 OFFCURVE",
"288 28 CURVE SMOOTH",
"342 -1 OFFCURVE",
"415 -23 OFFCURVE",
"518 -23 CURVE SMOOTH",
"638 -23 OFFCURVE",
"717 9 OFFCURVE",
"769 49 CURVE SMOOTH",
"821 89 OFFCURVE",
"848 135 OFFCURVE",
"865 166 CURVE",
"883 0 LINE",
"1005 0 LINE",
"1005 1441 LINE",
"851 1441 LINE",
"851 857 LINE"
);
}
);
width = 1163;
}
);
note = d;
unicode = 0064;
},
{
color = 4;
glyphname = eth;
layers = (
{
layerId = "2F8B9CD4-7B7F-4ACC-ADF3-B6E0F7033A19";
paths = (
{
closed = 1;
nodes = (
"245 1133 OFFCURVE",
"270 1149 OFFCURVE",
"297 1164 CURVE SMOOTH",
"344 1189 OFFCURVE",
"413 1214 OFFCURVE",
"501 1214 CURVE SMOOTH",
"581 1214 OFFCURVE",
"638 1189 OFFCURVE",
"677 1164 CURVE",
"579 1088 LINE",
"642 997 LINE",
"754 1079 LINE",
"767 1054 OFFCURVE",
"785 1014 OFFCURVE",
"800 955 CURVE SMOOTH",
"815 896 OFFCURVE",
"826 820 OFFCURVE",
"826 721 CURVE",
"737 822 OFFCURVE",
"614 869 OFFCURVE",
"493 869 CURVE SMOOTH",
"401 869 OFFCURVE",
"338 851 OFFCURVE",
"295 834 CURVE SMOOTH",
"246 813 OFFCURVE",
"203 782 OFFCURVE",
"160 713 CURVE SMOOTH",
"123 653 OFFCURVE",
"87 561 OFFCURVE",
"87 428 CURVE SMOOTH",
"87 376 OFFCURVE",
"93 330 OFFCURVE",
"104 289 CURVE SMOOTH",
"127 207 OFFCURVE",
"157 147 OFFCURVE",
"198 95 CURVE",
"219 71 OFFCURVE",
"246 50 OFFCURVE",
"278 31 CURVE SMOOTH",
"334 -1 OFFCURVE",
"416 -32 OFFCURVE",
"536 -32 CURVE SMOOTH",
"635 -32 OFFCURVE",
"707 -9 OFFCURVE",
"756 14 CURVE SMOOTH",
"813 41 OFFCURVE",
"864 78 OFFCURVE",
"913 175 CURVE SMOOTH",
"934 216 OFFCURVE",
"955 271 OFFCURVE",
"971 341 CURVE SMOOTH",
"987 411 OFFCURVE",
"997 496 OFFCURVE",
"997 599 CURVE SMOOTH",
"997 758 OFFCURVE",
"979 880 OFFCURVE",
"955 973 CURVE SMOOTH",
"931 1066 OFFCURVE",
"902 1129 OFFCURVE",
"878 1169 CURVE",
"984 1246 LINE",
"913 1346 LINE",
"799 1258 LINE",
"774 1277 OFFCURVE",
"737 1301 OFFCURVE",
"688 1321 CURVE SMOOTH",
"639 1340 OFFCURVE",
"579 1354 OFFCURVE",
"507 1354 CURVE SMOOTH",
"464 1354 OFFCURVE",
"426 1350 OFFCURVE",
"391 1341 CURVE SMOOTH",
"321 1324 OFFCURVE",
"265 1297 OFFCURVE",
"218 1267 CURVE SMOOTH",
"195 1252 OFFCURVE",
"173 1238 OFFCURVE",
"154 1226 CURVE",
"224 1114 LINE"
);
},
{
closed = 1;
nodes = (
"490 99 OFFCURVE",
"453 104 OFFCURVE",
"424 114 CURVE SMOOTH",
"364 133 OFFCURVE",
"324 157 OFFCURVE",
"299 193 CURVE",
"290 203 OFFCURVE",
"282 218 OFFCURVE",
"275 239 CURVE SMOOTH",
"263 274 OFFCURVE",
"251 331 OFFCURVE",
"251 427 CURVE SMOOTH",
"251 523 OFFCURVE",
"268 585 OFFCURVE",
"287 624 CURVE SMOOTH",
"308 668 OFFCURVE",
"334 688 OFFCURVE",
"371 707 CURVE",
"403 722 OFFCURVE",
"450 738 OFFCURVE",
"514 738 CURVE SMOOTH",
"582 738 OFFCURVE",
"647 716 OFFCURVE",
"702 677 CURVE SMOOTH",
"757 637 OFFCURVE",
"801 580 OFFCURVE",
"825 511 CURVE",
"825 371 OFFCURVE",
"801 284 OFFCURVE",
"778 231 CURVE SMOOTH",
"751 168 OFFCURVE",
"723 147 OFFCURVE",
"686 130 CURVE SMOOTH",
"654 114 OFFCURVE",
"605 99 OFFCURVE",
"534 99 CURVE SMOOTH"
);
}
);
width = 1119;
}
);
note = eth;
unicode = 00F0;
},
{
color = 4;
glyphname = e;
layers = (
{
layerId = "2F8B9CD4-7B7F-4ACC-ADF3-B6E0F7033A19";
paths = (
{
closed = 1;
nodes = (
"271 675 OFFCURVE",
"283 731 OFFCURVE",
"296 771 CURVE SMOOTH",
"309 811 OFFCURVE",
"325 833 OFFCURVE",
"337 846 CURVE SMOOTH",
"349 859 OFFCURVE",
"370 875 OFFCURVE",
"405 888 CURVE SMOOTH",
"440 901 OFFCURVE",
"488 911 OFFCURVE",
"556 911 CURVE SMOOTH",
"664 911 OFFCURVE",
"724 883 OFFCURVE",
"753 863 CURVE SMOOTH",
"768 852 OFFCURVE",
"785 832 OFFCURVE",
"801 789 CURVE SMOOTH",
"816 746 OFFCURVE",
"829 683 OFFCURVE",
"834 588 CURVE",
"755 594 LINE",
"601 594 LINE",
"268 594 LINE"
);
},
{
closed = 1;
nodes = (
"838 212 OFFCURVE",
"817 167 OFFCURVE",
"781 143 CURVE SMOOTH",
"769 135 OFFCURVE",
"749 125 OFFCURVE",
"716 115 CURVE SMOOTH",
"683 105 OFFCURVE",
"635 97 OFFCURVE",
"568 97 CURVE SMOOTH",
"534 97 OFFCURVE",
"506 99 OFFCURVE",
"483 102 CURVE SMOOTH",
"438 109 OFFCURVE",
"408 117 OFFCURVE",
"389 129 CURVE",
"366 142 OFFCURVE",
"345 163 OFFCURVE",
"327 193 CURVE SMOOTH",
"296 244 OFFCURVE",
"266 332 OFFCURVE",
"266 480 CURVE",
"987 480 LINE",
"987 485 OFFCURVE",
"987 493 OFFCURVE",
"988 504 CURVE",
"988 515 OFFCURVE",
"988 526 OFFCURVE",
"988 538 CURVE SMOOTH",
"988 549 OFFCURVE",
"988 560 OFFCURVE",
"989 571 CURVE",
"989 581 OFFCURVE",
"989 588 OFFCURVE",
"989 591 CURVE SMOOTH",
"989 680 OFFCURVE",
"977 748 OFFCURVE",
"961 797 CURVE SMOOTH",
"945 846 OFFCURVE",
"927 878 OFFCURVE",
"912 898 CURVE SMOOTH",
"892 926 OFFCURVE",
"860 959 OFFCURVE",
"805 987 CURVE SMOOTH",
"749 1014 OFFCURVE",
"671 1034 OFFCURVE",
"560 1034 CURVE SMOOTH",
"461 1034 OFFCURVE",
"388 1017 OFFCURVE",
"334 994 CURVE SMOOTH",
"280 970 OFFCURVE",
"244 941 OFFCURVE",
"224 917 CURVE SMOOTH",
"203 893 OFFCURVE",
"175 856 OFFCURVE",
"152 792 CURVE SMOOTH",
"128 728 OFFCURVE",
"110 637 OFFCURVE",
"110 505 CURVE SMOOTH",
"110 374 OFFCURVE",
"127 282 OFFCURVE",
"151 217 CURVE SMOOTH",
"174 152 OFFCURVE",
"202 113 OFFCURVE",
"222 89 CURVE SMOOTH",
"243 65 OFFCURVE",
"277 37 OFFCURVE",
"331 15 CURVE SMOOTH",
"385 -7 OFFCURVE",
"460 -23 OFFCURVE",
"564 -23 CURVE SMOOTH",
"664 -23 OFFCURVE",
"739 -7 OFFCURVE",
"794 15 CURVE SMOOTH",
"849 37 OFFCURVE",
"885 65 OFFCURVE",
"906 90 CURVE SMOOTH",
"910 95 OFFCURVE",
"915 101 OFFCURVE",
"922 108 CURVE",
"928 115 OFFCURVE",
"934 126 OFFCURVE",
"941 140 CURVE SMOOTH",
"954 167 OFFCURVE",
"968 209 OFFCURVE",
"979 273 CURVE",
"855 307 LINE"
);
}
);
width = 1096;
}
);
note = e;
unicode = 0065;
},
{
color = 4;
glyphname = f;
layers = (
{
layerId = "2F8B9CD4-7B7F-4ACC-ADF3-B6E0F7033A19";
paths = (
{
closed = 1;
nodes = (
"411 1011 LINE",
"411 1122 LINE SMOOTH",
"411 1167 OFFCURVE",
"412 1202 OFFCURVE",
"414 1226 CURVE",
"415 1250 OFFCURVE",
"417 1268 OFFCURVE",
"420 1279 CURVE",
"423 1292 OFFCURVE",
"426 1299 OFFCURVE",
"429 1301 CURVE",
"431 1306 OFFCURVE",
"436 1311 OFFCURVE",
"443 1316 CURVE SMOOTH",
"455 1324 OFFCURVE",
"478 1332 OFFCURVE",
"521 1332 CURVE SMOOTH",
"544 1332 OFFCURVE",
"561 1329 OFFCURVE",
"572 1326 CURVE SMOOTH",
"585 1322 OFFCURVE",
"593 1318 OFFCURVE",
"605 1307 CURVE",
"616 1298 OFFCURVE",
"628 1282 OFFCURVE",
"640 1261 CURVE",
"722 1331 LINE",
"711 1364 OFFCURVE",
"695 1387 OFFCURVE",
"680 1403 CURVE SMOOTH",
"663 1420 OFFCURVE",
"648 1433 OFFCURVE",
"623 1442 CURVE SMOOTH",
"600 1450 OFFCURVE",
"567 1458 OFFCURVE",
"519 1458 CURVE SMOOTH",
"484 1458 OFFCURVE",
"454 1455 OFFCURVE",
"430 1449 CURVE SMOOTH",
"381 1437 OFFCURVE",
"350 1421 OFFCURVE",
"332 1406 CURVE SMOOTH",
"323 1399 OFFCURVE",
"316 1393 OFFCURVE",
"313 1390 CURVE SMOOTH",
"304 1381 OFFCURVE",
"290 1365 OFFCURVE",
"279 1328 CURVE SMOOTH",
"267 1291 OFFCURVE",
"258 1232 OFFCURVE",
"258 1135 CURVE SMOOTH",
"258 1011 LINE",
"66 1011 LINE",
"66 899 LINE",
"258 899 LINE",
"258 0 LINE",
"411 0 LINE",
"411 899 LINE",
"630 899 LINE",
"630 1011 LINE"
);
}
);
width = 697;
}
);
note = f;
unicode = 0066;
},
{
color = 4;
glyphname = g;
layers = (
{
layerId = "2F8B9CD4-7B7F-4ACC-ADF3-B6E0F7033A19";
paths = (
{
closed = 1;
nodes = (
"634 911 OFFCURVE",
"685 901 OFFCURVE",
"721 888 CURVE SMOOTH",
"756 875 OFFCURVE",
"775 857 OFFCURVE",
"790 842 CURVE",
"803 827 OFFCURVE",
"819 798 OFFCURVE",
"831 743 CURVE SMOOTH",
"843 688 OFFCURVE",
"852 608 OFFCURVE",
"852 496 CURVE SMOOTH",
"852 389 OFFCURVE",
"843 321 OFFCURVE",
"831 274 CURVE SMOOTH",
"819 227 OFFCURVE",
"804 203 OFFCURVE",
"792 187 CURVE SMOOTH",
"780 171 OFFCURVE",
"761 153 OFFCURVE",
"726 139 CURVE SMOOTH",
"690 125 OFFCURVE",
"639 115 OFFCURVE",
"560 115 CURVE SMOOTH",
"481 115 OFFCURVE",
"429 126 OFFCURVE",
"393 140 CURVE SMOOTH",
"357 154 OFFCURVE",
"339 173 OFFCURVE",
"327 190 CURVE SMOOTH",
"315 207 OFFCURVE",
"302 234 OFFCURVE",
"291 283 CURVE SMOOTH",
"279 332 OFFCURVE",
"272 406 OFFCURVE",
"272 518 CURVE SMOOTH",
"272 630 OFFCURVE",
"280 701 OFFCURVE",
"291 749 CURVE SMOOTH",
"302 797 OFFCURVE",
"315 821 OFFCURVE",
"327 837 CURVE SMOOTH",
"339 853 OFFCURVE",
"357 871 OFFCURVE",
"393 886 CURVE SMOOTH",
"428 901 OFFCURVE",
"480 911 OFFCURVE",
"557 911 CURVE SMOOTH"
);
},
{
closed = 1;
nodes = (
"852 7 OFFCURVE",
"850 -33 OFFCURVE",
"846 -64 CURVE SMOOTH",
"838 -127 OFFCURVE",
"826 -165 OFFCURVE",
"814 -184 CURVE",
"807 -194 OFFCURVE",
"802 -202 OFFCURVE",
"798 -207 CURVE SMOOTH",
"786 -223 OFFCURVE",
"762 -240 OFFCURVE",
"723 -254 CURVE SMOOTH",
"683 -268 OFFCURVE",
"630 -279 OFFCURVE",
"561 -279 CURVE SMOOTH",
"515 -279 OFFCURVE",
"478 -277 OFFCURVE",
"450 -272 CURVE SMOOTH",
"393 -263 OFFCURVE",
"358 -251 OFFCURVE",
"339 -235 CURVE",
"331 -231 OFFCURVE",
"322 -223 OFFCURVE",
"313 -212 CURVE SMOOTH",
"297 -193 OFFCURVE",
"276 -162 OFFCURVE",
"249 -103 CURVE",
"162 -150 LINE",
"167 -207 OFFCURVE",
"185 -249 OFFCURVE",
"203 -277 CURVE SMOOTH",
"221 -306 OFFCURVE",
"241 -324 OFFCURVE",
"254 -332 CURVE",
"267 -341 OFFCURVE",
"298 -358 OFFCURVE",
"348 -373 CURVE SMOOTH",
"398 -389 OFFCURVE",
"467 -402 OFFCURVE",
"562 -402 CURVE SMOOTH",
"662 -402 OFFCURVE",
"737 -386 OFFCURVE",
"791 -365 CURVE SMOOTH",
"845 -345 OFFCURVE",
"878 -319 OFFCURVE",
"898 -300 CURVE SMOOTH",
"917 -281 OFFCURVE",
"944 -247 OFFCURVE",
"966 -190 CURVE SMOOTH",
"988 -133 OFFCURVE",
"1005 -51 OFFCURVE",
"1005 62 CURVE SMOOTH",
"1005 1011 LINE",
"887 1011 LINE",
"868 851 LINE",
"852 876 OFFCURVE",
"825 923 OFFCURVE",
"772 962 CURVE SMOOTH",
"719 1001 OFFCURVE",
"641 1034 OFFCURVE",
"522 1034 CURVE SMOOTH",
"425 1034 OFFCURVE",
"354 1015 OFFCURVE",
"302 991 CURVE SMOOTH",
"250 966 OFFCURVE",
"217 935 OFFCURVE",
"200 911 CURVE",
"181 887 OFFCURVE",
"161 854 OFFCURVE",
"144 792 CURVE SMOOTH",
"127 730 OFFCURVE",
"115 640 OFFCURVE",
"115 507 CURVE SMOOTH",
"115 380 OFFCURVE",
"127 293 OFFCURVE",
"144 232 CURVE SMOOTH",
"160 171 OFFCURVE",
"180 135 OFFCURVE",
"199 111 CURVE",
"216 87 OFFCURVE",
"247 56 OFFCURVE",
"298 32 CURVE SMOOTH",
"349 7 OFFCURVE",
"420 -12 OFFCURVE",
"516 -12 CURVE SMOOTH",
"612 -12 OFFCURVE",
"681 6 OFFCURVE",
"734 35 CURVE SMOOTH",
"786 64 OFFCURVE",
"822 105 OFFCURVE",
"850 150 CURVE",
"851 56 LINE SMOOTH"
);
}
);
width = 1161;
}
);
note = g;
unicode = 0067;
},
{
color = 4;
glyphname = h;
layers = (
{
layerId = "2F8B9CD4-7B7F-4ACC-ADF3-B6E0F7033A19";
paths = (
{
closed = 1;
nodes = (
"310 0 LINE",
"310 589 LINE SMOOTH",
"310 672 OFFCURVE",
"318 724 OFFCURVE",
"327 760 CURVE SMOOTH",
"336 795 OFFCURVE",
"347 812 OFFCURVE",
"355 824 CURVE SMOOTH",
"367 843 OFFCURVE",
"388 864 OFFCURVE",
"428 880 CURVE SMOOTH",
"467 896 OFFCURVE",
"523 908 OFFCURVE",
"604 908 CURVE SMOOTH",
"681 908 OFFCURVE",
"730 898 OFFCURVE",
"762 884 CURVE SMOOTH",
"794 870 OFFCURVE",
"810 851 OFFCURVE",
"819 835 CURVE SMOOTH",
"822 830 OFFCURVE",
"825 823 OFFCURVE",
"830 815 CURVE",
"835 806 OFFCURVE",
"839 794 OFFCURVE",
"844 778 CURVE SMOOTH",
"853 746 OFFCURVE",
"860 696 OFFCURVE",
"860 616 CURVE SMOOTH",
"860 0 LINE",
"1014 0 LINE",
"1014 568 LINE SMOOTH",
"1014 701 OFFCURVE",
"1004 785 OFFCURVE",
"991 841 CURVE SMOOTH",
"978 896 OFFCURVE",
"959 922 OFFCURVE",
"942 942 CURVE",
"927 958 OFFCURVE",
"900 981 OFFCURVE",
"854 1000 CURVE SMOOTH",
"808 1019 OFFCURVE",
"741 1034 OFFCURVE",
"652 1034 CURVE SMOOTH",
"557 1034 OFFCURVE",
"486 1015 OFFCURVE",
"431 987 CURVE SMOOTH",
"375 959 OFFCURVE",
"337 922 OFFCURVE",
"310 885 CURVE",
"310 1441 LINE",
"157 1441 LINE",
"157 0 LINE"
);
}
);
width = 1163;
}
);
note = h;
unicode = 0068;
},
{
color = 4;
glyphname = i;
layers = (
{
layerId = "2F8B9CD4-7B7F-4ACC-ADF3-B6E0F7033A19";
paths = (
{
closed = 1;
nodes = (
"312 1011 LINE",
"158 1011 LINE",
"158 0 LINE",
"312 0 LINE"
);
},
{
closed = 1;
nodes = (
"162 1370 OFFCURVE",
"142 1336 OFFCURVE",
"142 1271 CURVE SMOOTH",
"142 1207 OFFCURVE",
"166 1185 OFFCURVE",
"234 1185 CURVE SMOOTH",
"310 1185 OFFCURVE",
"328 1207 OFFCURVE",
"328 1271 CURVE SMOOTH",
"328 1303 OFFCURVE",
"324 1328 OFFCURVE",
"311 1345 CURVE SMOOTH",
"298 1361 OFFCURVE",
"274 1370 OFFCURVE",
"234 1370 CURVE SMOOTH"
);
}
);
width = 470;
}
);
note = i;
unicode = 0069;
},
{
color = 4;
glyphname = idotless;
layers = (
{
layerId = "2F8B9CD4-7B7F-4ACC-ADF3-B6E0F7033A19";
paths = (
{
closed = 1;
nodes = (
"312 1011 LINE",
"158 1011 LINE",
"158 0 LINE",
"312 0 LINE"
);
}
);
width = 470;
}
);
note = dotlessi;
unicode = 0131;
},
{
color = 4;
glyphname = j;
layers = (
{
layerId = "2F8B9CD4-7B7F-4ACC-ADF3-B6E0F7033A19";
paths = (
{
closed = 1;
nodes = (
"160 1370 OFFCURVE",
"140 1336 OFFCURVE",
"140 1271 CURVE SMOOTH",
"140 1207 OFFCURVE",
"164 1185 OFFCURVE",
"232 1185 CURVE SMOOTH",
"308 1185 OFFCURVE",
"326 1207 OFFCURVE",
"326 1271 CURVE SMOOTH",
"326 1303 OFFCURVE",
"322 1328 OFFCURVE",
"309 1345 CURVE SMOOTH",
"296 1361 OFFCURVE",
"272 1370 OFFCURVE",
"232 1370 CURVE SMOOTH"
);
},
{
closed = 1;
nodes = (
"311 1011 LINE",
"311 12 LINE SMOOTH",
"311 -84 OFFCURVE",
"298 -149 OFFCURVE",
"283 -190 CURVE SMOOTH",
"267 -238 OFFCURVE",
"245 -266 OFFCURVE",
"201 -290 CURVE SMOOTH",
"162 -311 OFFCURVE",
"103 -332 OFFCURVE",
"14 -332 CURVE SMOOTH",
"-66 -332 OFFCURVE",
"-117 -320 OFFCURVE",
"-148 -308 CURVE SMOOTH",
"-184 -293 OFFCURVE",
"-202 -277 OFFCURVE",
"-219 -249 CURVE SMOOTH",
"-234 -225 OFFCURVE",
"-250 -187 OFFCURVE",
"-254 -130 CURVE",
"-145 -106 LINE",
"-136 -141 OFFCURVE",
"-125 -161 OFFCURVE",
"-116 -176 CURVE",
"-105 -192 OFFCURVE",
"-96 -200 OFFCURVE",
"-75 -207 CURVE SMOOTH",
"-56 -214 OFFCURVE",
"-29 -219 OFFCURVE",
"10 -219 CURVE SMOOTH",
"63 -219 OFFCURVE",
"94 -210 OFFCURVE",
"113 -199 CURVE SMOOTH",
"134 -187 OFFCURVE",
"139 -177 OFFCURVE",
"146 -145 CURVE",
"153 -118 OFFCURVE",
"158 -71 OFFCURVE",
"158 12 CURVE SMOOTH",
"158 1011 LINE"
);
}
);
width = 469;
}
);
note = j;
unicode = 006A;
},
{
color = 4;
glyphname = k;
layers = (
{
layerId = "2F8B9CD4-7B7F-4ACC-ADF3-B6E0F7033A19";
paths = (
{
closed = 1;
nodes = (
"311 0 LINE",
"311 405 LINE",
"431 523 LINE",
"815 -21 LINE",
"950 26 LINE",
"555 591 LINE",
"904 973 LINE",
"771 1030 LINE",
"421 633 LINE",
"311 517 LINE",
"311 1441 LINE",
"158 1441 LINE",
"158 0 LINE"
);
}
);
width = 995;
}
);
note = k;
unicode = 006B;
},
{
color = 4;
glyphname = l;
layers = (
{
layerId = "2F8B9CD4-7B7F-4ACC-ADF3-B6E0F7033A19";
paths = (
{
closed = 1;
nodes = (
"318 0 LINE",
"318 1441 LINE",
"165 1441 LINE",
"165 0 LINE"
);
}
);
width = 484;
}
);
note = l;
unicode = 006C;
},
{
color = 4;
glyphname = lslash;
layers = (
{
layerId = "2F8B9CD4-7B7F-4ACC-ADF3-B6E0F7033A19";
paths = (
{
closed = 1;
nodes = (
"347 0 LINE",
"347 673 LINE",
"624 829 LINE",
"558 936 LINE",
"347 817 LINE",
"347 1441 LINE",
"194 1441 LINE",
"194 731 LINE",
"-3 621 LINE",
"59 512 LINE",
"194 587 LINE",
"194 0 LINE"
);
}
);
width = 577;
}
);
note = lslash;
unicode = 0142;
},
{
color = 4;
glyphname = m;
layers = (
{
layerId = "2F8B9CD4-7B7F-4ACC-ADF3-B6E0F7033A19";
paths = (
{
closed = 1;
nodes = (
"1519 933 OFFCURVE",
"1501 954 OFFCURVE",
"1477 972 CURVE SMOOTH",
"1436 1003 OFFCURVE",
"1367 1034 OFFCURVE",
"1254 1034 CURVE SMOOTH",
"1146 1034 OFFCURVE",
"1075 1004 OFFCURVE",
"1024 967 CURVE SMOOTH",
"973 930 OFFCURVE",
"944 886 OFFCURVE",
"921 857 CURVE",
"908 894 OFFCURVE",
"894 917 OFFCURVE",
"883 932 CURVE SMOOTH",
"870 951 OFFCURVE",
"845 976 OFFCURVE",
"803 997 CURVE SMOOTH",
"761 1018 OFFCURVE",
"701 1034 OFFCURVE",
"618 1034 CURVE SMOOTH",
"522 1034 OFFCURVE",
"454 1006 OFFCURVE",
"403 971 CURVE SMOOTH",
"352 935 OFFCURVE",
"320 893 OFFCURVE",
"296 864 CURVE",
"285 1011 LINE",
"158 1011 LINE",
"158 0 LINE",
"311 0 LINE",
"311 540 LINE SMOOTH",
"311 597 OFFCURVE",
"313 644 OFFCURVE",
"317 681 CURVE SMOOTH",
"325 756 OFFCURVE",
"339 802 OFFCURVE",
"357 827 CURVE SMOOTH",
"375 852 OFFCURVE",
"389 861 OFFCURVE",
"405 873 CURVE SMOOTH",
"413 879 OFFCURVE",
"424 885 OFFCURVE",
"439 890 CURVE",
"467 901 OFFCURVE",
"509 910 OFFCURVE",
"574 910 CURVE SMOOTH",
"601 910 OFFCURVE",
"623 908 OFFCURVE",
"641 905 CURVE SMOOTH",
"677 898 OFFCURVE",
"700 889 OFFCURVE",
"713 879 CURVE",
"720 874 OFFCURVE",
"725 870 OFFCURVE",
"729 867 CURVE",
"742 856 OFFCURVE",
"759 838 OFFCURVE",
"771 799 CURVE SMOOTH",
"783 759 OFFCURVE",
"792 698 OFFCURVE",
"792 603 CURVE SMOOTH",
"792 0 LINE",
"946 0 LINE",
"946 585 LINE SMOOTH",
"946 673 OFFCURVE",
"954 730 OFFCURVE",
"965 770 CURVE SMOOTH",
"976 809 OFFCURVE",
"990 828 OFFCURVE",
"1001 843 CURVE",
"1012 856 OFFCURVE",
"1029 873 OFFCURVE",
"1061 886 CURVE SMOOTH",
"1093 899 OFFCURVE",
"1139 909 OFFCURVE",
"1210 909 CURVE SMOOTH",
"1263 909 OFFCURVE",
"1297 901 OFFCURVE",
"1321 893 CURVE",
"1344 884 OFFCURVE",
"1356 873 OFFCURVE",
"1364 866 CURVE SMOOTH",
"1377 855 OFFCURVE",
"1394 839 OFFCURVE",
"1407 802 CURVE SMOOTH",
"1419 765 OFFCURVE",
"1428 708 OFFCURVE",
"1428 619 CURVE SMOOTH",
"1428 0 LINE",
"1581 0 LINE",
"1581 586 LINE SMOOTH",
"1581 651 OFFCURVE",
"1578 704 OFFCURVE",
"1573 745 CURVE SMOOTH",
"1562 828 OFFCURVE",
"1549 879 OFFCURVE",
"1530 910 CURVE"
);
}
);
width = 1730;
}
);
note = m;
unicode = 006D;
},
{
color = 4;
glyphname = n;
layers = (
{
layerId = "2F8B9CD4-7B7F-4ACC-ADF3-B6E0F7033A19";
paths = (
{
closed = 1;
nodes = (
"939 931 OFFCURVE",
"919 952 OFFCURVE",
"893 971 CURVE SMOOTH",
"849 1002 OFFCURVE",
"775 1034 OFFCURVE",
"656 1034 CURVE SMOOTH",
"551 1034 OFFCURVE",
"473 1009 OFFCURVE",
"416 975 CURVE SMOOTH",
"359 941 OFFCURVE",
"321 898 OFFCURVE",
"297 863 CURVE",
"285 1011 LINE",
"158 1011 LINE",
"158 0 LINE",
"312 0 LINE",
"312 545 LINE SMOOTH",
"312 633 OFFCURVE",
"317 692 OFFCURVE",
"325 736 CURVE SMOOTH",
"333 779 OFFCURVE",
"344 804 OFFCURVE",
"356 823 CURVE SMOOTH",
"368 842 OFFCURVE",
"388 863 OFFCURVE",
"428 880 CURVE SMOOTH",
"467 896 OFFCURVE",
"523 908 OFFCURVE",
"607 908 CURVE SMOOTH",
"643 908 OFFCURVE",
"673 906 OFFCURVE",
"697 901 CURVE SMOOTH",
"745 892 OFFCURVE",
"777 878 OFFCURVE",
"794 860 CURVE SMOOTH",
"811 842 OFFCURVE",
"817 831 OFFCURVE",
"827 815 CURVE",
"832 806 OFFCURVE",
"836 794 OFFCURVE",
"841 778 CURVE",
"849 746 OFFCURVE",
"857 697 OFFCURVE",
"857 617 CURVE SMOOTH",
"857 0 LINE",
"1011 0 LINE",
"1011 587 LINE SMOOTH",
"1011 649 OFFCURVE",
"1008 701 OFFCURVE",
"1002 742 CURVE SMOOTH",
"989 824 OFFCURVE",
"973 875 OFFCURVE",
"952 908 CURVE"
);
}
);
width = 1160;
}
);
note = n;
unicode = 006E;
},
{
color = 4;
glyphname = o;
layers = (
{
layerId = "2F8B9CD4-7B7F-4ACC-ADF3-B6E0F7033A19";
paths = (
{
closed = 1;
nodes = (
"651 909 OFFCURVE",
"707 899 OFFCURVE",
"747 885 CURVE SMOOTH",
"786 871 OFFCURVE",
"808 852 OFFCURVE",
"823 836 CURVE",
"836 820 OFFCURVE",
"852 795 OFFCURVE",
"865 745 CURVE SMOOTH",
"877 695 OFFCURVE",
"886 620 OFFCURVE",
"886 504 CURVE SMOOTH",
"886 393 OFFCURVE",
"878 321 OFFCURVE",
"867 272 CURVE SMOOTH",
"855 223 OFFCURVE",
"840 197 OFFCURVE",
"827 180 CURVE SMOOTH",
"814 163 OFFCURVE",
"792 143 OFFCURVE",
"753 128 CURVE SMOOTH",
"714 113 OFFCURVE",
"659 102 OFFCURVE",
"580 102 CURVE SMOOTH",
"500 102 OFFCURVE",
"443 112 OFFCURVE",
"403 128 CURVE SMOOTH",
"363 143 OFFCURVE",
"339 162 OFFCURVE",
"326 178 CURVE SMOOTH",
"313 194 OFFCURVE",
"298 221 OFFCURVE",
"286 270 CURVE SMOOTH",
"274 319 OFFCURVE",
"266 391 OFFCURVE",
"266 502 CURVE SMOOTH",
"266 615 OFFCURVE",
"274 690 OFFCURVE",
"286 740 CURVE SMOOTH",
"297 790 OFFCURVE",
"312 815 OFFCURVE",
"325 832 CURVE SMOOTH",
"338 849 OFFCURVE",
"361 868 OFFCURVE",
"400 884 CURVE SMOOTH",
"439 899 OFFCURVE",
"494 909 OFFCURVE",
"574 909 CURVE SMOOTH"
);
},
{
closed = 1;
nodes = (
"470 1034 OFFCURVE",
"392 1015 OFFCURVE",
"333 991 CURVE SMOOTH",
"273 966 OFFCURVE",
"235 936 OFFCURVE",
"214 912 CURVE SMOOTH",
"193 888 OFFCURVE",
"166 851 OFFCURVE",
"146 787 CURVE SMOOTH",
"125 723 OFFCURVE",
"109 634 OFFCURVE",
"109 506 CURVE SMOOTH",
"109 379 OFFCURVE",
"125 289 OFFCURVE",
"146 225 CURVE SMOOTH",
"167 161 OFFCURVE",
"194 122 OFFCURVE",
"215 98 CURVE SMOOTH",
"236 74 OFFCURVE",
"273 44 OFFCURVE",
"332 20 CURVE SMOOTH",
"391 -5 OFFCURVE",
"470 -23 OFFCURVE",
"574 -23 CURVE SMOOTH",
"679 -23 OFFCURVE",
"759 -5 OFFCURVE",
"819 19 CURVE SMOOTH",
"878 43 OFFCURVE",
"916 73 OFFCURVE",
"937 97 CURVE SMOOTH",
"958 121 OFFCURVE",
"985 160 OFFCURVE",
"1006 225 CURVE SMOOTH",
"1027 289 OFFCURVE",
"1043 381 OFFCURVE",
"1043 509 CURVE SMOOTH",
"1043 637 OFFCURVE",
"1027 726 OFFCURVE",
"1006 789 CURVE SMOOTH",
"985 852 OFFCURVE",
"958 889 OFFCURVE",
"937 913 CURVE SMOOTH",
"916 936 OFFCURVE",
"877 966 OFFCURVE",
"818 991 CURVE SMOOTH",
"758 1015 OFFCURVE",
"678 1034 OFFCURVE",
"574 1034 CURVE SMOOTH"
);
}
);
width = 1153;
}
);
note = o;
unicode = 006F;
},
{
color = 4;
glyphname = oslash;
layers = (
{
layerId = "2F8B9CD4-7B7F-4ACC-ADF3-B6E0F7033A19";
paths = (
{
closed = 1;
nodes = (
"470 1034 OFFCURVE",
"392 1015 OFFCURVE",
"333 991 CURVE SMOOTH",
"273 966 OFFCURVE",
"235 936 OFFCURVE",
"214 912 CURVE SMOOTH",
"193 888 OFFCURVE",
"166 851 OFFCURVE",
"146 787 CURVE SMOOTH",
"125 723 OFFCURVE",
"109 634 OFFCURVE",
"109 506 CURVE SMOOTH",
"109 379 OFFCURVE",
"125 289 OFFCURVE",
"146 225 CURVE SMOOTH",
"167 161 OFFCURVE",
"194 122 OFFCURVE",
"215 98 CURVE SMOOTH",
"244 63 OFFCURVE",
"305 18 OFFCURVE",
"410 -7 CURVE",
"382 -132 LINE",
"495 -150 LINE",
"523 -23 LINE",
"539 -24 OFFCURVE",
"555 -25 OFFCURVE",
"574 -25 CURVE SMOOTH",
"679 -25 OFFCURVE",
"759 -6 OFFCURVE",
"819 19 CURVE SMOOTH",
"878 43 OFFCURVE",
"916 73 OFFCURVE",
"937 97 CURVE SMOOTH",
"958 121 OFFCURVE",
"985 160 OFFCURVE",
"1006 225 CURVE SMOOTH",
"1027 289 OFFCURVE",
"1043 381 OFFCURVE",
"1043 509 CURVE SMOOTH",
"1043 637 OFFCURVE",
"1027 726 OFFCURVE",
"1006 789 CURVE SMOOTH",
"985 852 OFFCURVE",
"958 889 OFFCURVE",
"937 913 CURVE SMOOTH",
"909 944 OFFCURVE",
"852 984 OFFCURVE",
"756 1011 CURVE",
"789 1155 LINE",
"674 1172 LINE",
"642 1031 LINE",
"621 1033 OFFCURVE",
"598 1034 OFFCURVE",
"574 1034 CURVE SMOOTH"
);
},
{
closed = 1;
nodes = (
"595 909 LINE",
"602 908 OFFCURVE",
"608 908 OFFCURVE",
"615 908 CURVE",
"437 117 LINE",
"374 132 OFFCURVE",
"343 157 OFFCURVE",
"326 178 CURVE SMOOTH",
"313 194 OFFCURVE",
"298 221 OFFCURVE",
"286 270 CURVE SMOOTH",
"274 319 OFFCURVE",
"266 391 OFFCURVE",
"266 502 CURVE SMOOTH",
"266 615 OFFCURVE",
"274 690 OFFCURVE",
"286 740 CURVE SMOOTH",
"297 790 OFFCURVE",
"312 815 OFFCURVE",
"325 832 CURVE SMOOTH",
"338 849 OFFCURVE",
"361 868 OFFCURVE",
"400 884 CURVE SMOOTH",
"439 899 OFFCURVE",
"494 909 OFFCURVE",
"574 909 CURVE SMOOTH"
);
},
{
closed = 1;
nodes = (
"836 820 OFFCURVE",
"852 795 OFFCURVE",
"865 745 CURVE SMOOTH",
"877 695 OFFCURVE",
"886 620 OFFCURVE",
"886 504 CURVE SMOOTH",
"886 393 OFFCURVE",
"878 321 OFFCURVE",
"867 272 CURVE SMOOTH",
"855 223 OFFCURVE",
"840 197 OFFCURVE",
"827 180 CURVE SMOOTH",
"814 163 OFFCURVE",
"792 143 OFFCURVE",
"753 128 CURVE SMOOTH",
"714 113 OFFCURVE",
"659 102 OFFCURVE",
"580 102 CURVE SMOOTH",
"552 102 LINE",
"729 890 LINE",
"780 875 OFFCURVE",
"807 855 OFFCURVE",
"823 836 CURVE SMOOTH"
);
}
);
width = 1153;
}
);
note = oslash;
unicode = 00F8;
},
{
color = 4;
glyphname = oe;
layers = (
{
layerId = "2F8B9CD4-7B7F-4ACC-ADF3-B6E0F7033A19";
paths = (
{
closed = 1;
nodes = (
"1034 684 OFFCURVE",
"1046 746 OFFCURVE",
"1061 788 CURVE SMOOTH",
"1076 830 OFFCURVE",
"1093 852 OFFCURVE",
"1106 863 CURVE SMOOTH",
"1119 874 OFFCURVE",
"1141 887 OFFCURVE",
"1174 898 CURVE SMOOTH",
"1206 909 OFFCURVE",
"1250 916 OFFCURVE",
"1307 916 CURVE SMOOTH",
"1372 916 OFFCURVE",
"1421 905 OFFCURVE",
"1455 892 CURVE SMOOTH",
"1489 879 OFFCURVE",
"1508 862 OFFCURVE",
"1520 849 CURVE",
"1531 836 OFFCURVE",
"1543 812 OFFCURVE",
"1555 771 CURVE SMOOTH",
"1566 730 OFFCURVE",
"1574 672 OFFCURVE",
"1578 589 CURVE",
"1502 595 LINE",
"1033 595 LINE"
);
},
{
closed = 1;
nodes = (
"647 910 OFFCURVE",
"701 899 OFFCURVE",
"738 884 CURVE SMOOTH",
"775 869 OFFCURVE",
"797 850 OFFCURVE",
"809 833 CURVE SMOOTH",
"821 816 OFFCURVE",
"836 790 OFFCURVE",
"848 739 CURVE SMOOTH",
"859 688 OFFCURVE",
"867 612 OFFCURVE",
"867 495 CURVE SMOOTH",
"867 387 OFFCURVE",
"859 317 OFFCURVE",
"848 269 CURVE SMOOTH",
"836 221 OFFCURVE",
"822 195 OFFCURVE",
"810 179 CURVE SMOOTH",
"798 162 OFFCURVE",
"776 142 OFFCURVE",
"739 127 CURVE SMOOTH",
"702 112 OFFCURVE",
"648 101 OFFCURVE",
"571 101 CURVE SMOOTH",
"492 101 OFFCURVE",
"439 111 OFFCURVE",
"403 127 CURVE SMOOTH",
"366 142 OFFCURVE",
"345 161 OFFCURVE",
"332 178 CURVE SMOOTH",
"319 195 OFFCURVE",
"303 222 OFFCURVE",
"291 271 CURVE SMOOTH",
"279 320 OFFCURVE",
"270 393 OFFCURVE",
"270 505 CURVE SMOOTH",
"270 617 OFFCURVE",
"279 690 OFFCURVE",
"291 739 CURVE SMOOTH",
"303 788 OFFCURVE",
"319 813 OFFCURVE",
"332 832 CURVE SMOOTH",
"344 849 OFFCURVE",
"365 869 OFFCURVE",
"402 884 CURVE SMOOTH",
"438 899 OFFCURVE",
"492 910 OFFCURVE",
"571 910 CURVE SMOOTH"
);
},
{
closed = 1;
nodes = (
"1587 260 OFFCURVE",
"1574 219 OFFCURVE",
"1561 191 CURVE SMOOTH",
"1548 162 OFFCURVE",
"1532 146 OFFCURVE",
"1516 138 CURVE",
"1505 133 OFFCURVE",
"1487 123 OFFCURVE",
"1456 115 CURVE SMOOTH",
"1425 107 OFFCURVE",
"1380 100 OFFCURVE",
"1319 100 CURVE SMOOTH",
"1203 100 OFFCURVE",
"1135 130 OFFCURVE",
"1104 157 CURVE SMOOTH",
"1089 170 OFFCURVE",
"1071 198 OFFCURVE",
"1056 250 CURVE SMOOTH",
"1041 301 OFFCURVE",
"1030 375 OFFCURVE",
"1029 480 CURVE",
"1731 480 LINE",
"1732 485 OFFCURVE",
"1732 493 OFFCURVE",
"1733 504 CURVE",
"1733 527 OFFCURVE",
"1734 552 OFFCURVE",
"1734 573 CURVE SMOOTH",
"1734 584 OFFCURVE",
"1734 591 OFFCURVE",
"1734 594 CURVE SMOOTH",
"1734 693 OFFCURVE",
"1718 769 OFFCURVE",
"1697 826 CURVE SMOOTH",
"1676 883 OFFCURVE",
"1647 922 OFFCURVE",
"1623 943 CURVE",
"1606 959 OFFCURVE",
"1578 983 OFFCURVE",
"1530 1003 CURVE SMOOTH",
"1481 1023 OFFCURVE",
"1413 1040 OFFCURVE",
"1313 1040 CURVE SMOOTH",
"1221 1040 OFFCURVE",
"1155 1026 OFFCURVE",
"1107 1007 CURVE SMOOTH",
"1058 988 OFFCURVE",
"1028 965 OFFCURVE",
"1009 949 CURVE SMOOTH",
"992 934 OFFCURVE",
"972 914 OFFCURVE",
"953 885 CURVE",
"941 903 OFFCURVE",
"928 919 OFFCURVE",
"914 933 CURVE SMOOTH",
"897 949 OFFCURVE",
"864 976 OFFCURVE",
"808 999 CURVE SMOOTH",
"752 1022 OFFCURVE",
"674 1040 OFFCURVE",
"569 1040 CURVE SMOOTH",
"466 1040 OFFCURVE",
"388 1021 OFFCURVE",
"330 996 CURVE SMOOTH",
"272 971 OFFCURVE",
"233 940 OFFCURVE",
"213 916 CURVE SMOOTH",
"192 891 OFFCURVE",
"166 852 OFFCURVE",
"146 786 CURVE SMOOTH",
"125 720 OFFCURVE",
"109 628 OFFCURVE",
"109 499 CURVE SMOOTH",
"109 371 OFFCURVE",
"125 281 OFFCURVE",
"146 217 CURVE SMOOTH",
"167 153 OFFCURVE",
"194 116 OFFCURVE",
"215 92 CURVE SMOOTH",
"236 68 OFFCURVE",
"274 38 OFFCURVE",
"334 13 CURVE SMOOTH",
"393 -12 OFFCURVE",
"471 -31 OFFCURVE",
"574 -31 CURVE SMOOTH",
"674 -31 OFFCURVE",
"749 -13 OFFCURVE",
"803 10 CURVE SMOOTH",
"857 33 OFFCURVE",
"889 60 OFFCURVE",
"908 77 CURVE",
"923 92 OFFCURVE",
"938 108 OFFCURVE",
"951 128 CURVE",
"958 118 OFFCURVE",
"965 109 OFFCURVE",
"972 100 CURVE",
"978 91 OFFCURVE",
"985 83 OFFCURVE",
"992 76 CURVE SMOOTH",
"1008 59 OFFCURVE",
"1036 32 OFFCURVE",
"1086 10 CURVE SMOOTH",
"1136 -12 OFFCURVE",
"1207 -31 OFFCURVE",
"1311 -31 CURVE SMOOTH",
"1411 -31 OFFCURVE",
"1484 -14 OFFCURVE",
"1536 6 CURVE SMOOTH",
"1588 26 OFFCURVE",
"1618 51 OFFCURVE",
"1637 67 CURVE",
"1650 79 OFFCURVE",
"1667 100 OFFCURVE",
"1683 133 CURVE SMOOTH",
"1698 165 OFFCURVE",
"1713 211 OFFCURVE",
"1722 274 CURVE",
"1598 320 LINE"
);
}
);
width = 1841;
}
);
note = oe;
unicode = 0153;
},
{
color = 4;
glyphname = p;
layers = (
{
layerId = "2F8B9CD4-7B7F-4ACC-ADF3-B6E0F7033A19";
paths = (
{
closed = 1;
nodes = (
"542 102 OFFCURVE",
"505 109 OFFCURVE",
"482 117 CURVE SMOOTH",
"458 125 OFFCURVE",
"449 134 OFFCURVE",
"442 139 CURVE SMOOTH",
"406 163 OFFCURVE",
"374 202 OFFCURVE",
"350 262 CURVE SMOOTH",
"326 321 OFFCURVE",
"311 401 OFFCURVE",
"311 510 CURVE SMOOTH",
"311 622 OFFCURVE",
"320 693 OFFCURVE",
"332 741 CURVE SMOOTH",
"344 788 OFFCURVE",
"360 813 OFFCURVE",
"373 830 CURVE",
"385 847 OFFCURVE",
"404 866 OFFCURVE",
"440 881 CURVE SMOOTH",
"476 896 OFFCURVE",
"529 907 OFFCURVE",
"609 907 CURVE SMOOTH",
"686 907 OFFCURVE",
"737 897 OFFCURVE",
"772 882 CURVE SMOOTH",
"807 867 OFFCURVE",
"824 850 OFFCURVE",
"835 834 CURVE SMOOTH",
"846 818 OFFCURVE",
"859 794 OFFCURVE",
"871 747 CURVE SMOOTH",
"882 699 OFFCURVE",
"890 628 OFFCURVE",
"890 517 CURVE SMOOTH",
"890 404 OFFCURVE",
"882 327 OFFCURVE",
"871 275 CURVE SMOOTH",
"859 223 OFFCURVE",
"845 195 OFFCURVE",
"834 178 CURVE SMOOTH",
"822 159 OFFCURVE",
"804 141 OFFCURVE",
"769 126 CURVE SMOOTH",
"733 111 OFFCURVE",
"682 102 OFFCURVE",
"605 102 CURVE SMOOTH"
);
},
{
closed = 1;
nodes = (
"158 1011 LINE",
"158 -379 LINE",
"312 -379 LINE",
"312 150 LINE",
"339 110 OFFCURVE",
"371 66 OFFCURVE",
"421 34 CURVE SMOOTH",
"471 1 OFFCURVE",
"538 -23 OFFCURVE",
"638 -23 CURVE SMOOTH",
"735 -23 OFFCURVE",
"807 -4 OFFCURVE",
"859 20 CURVE SMOOTH",
"911 44 OFFCURVE",
"942 75 OFFCURVE",
"961 99 CURVE",
"978 123 OFFCURVE",
"1001 159 OFFCURVE",
"1018 223 CURVE SMOOTH",
"1034 287 OFFCURVE",
"1047 377 OFFCURVE",
"1047 512 CURVE SMOOTH",
"1047 645 OFFCURVE",
"1035 734 OFFCURVE",
"1019 795 CURVE SMOOTH",
"1003 855 OFFCURVE",
"982 888 OFFCURVE",
"965 912 CURVE SMOOTH",
"948 936 OFFCURVE",
"917 966 OFFCURVE",
"866 991 CURVE SMOOTH",
"814 1015 OFFCURVE",
"744 1034 OFFCURVE",
"648 1034 CURVE SMOOTH",
"527 1034 OFFCURVE",
"446 1001 OFFCURVE",
"392 961 CURVE SMOOTH",
"338 921 OFFCURVE",
"311 873 OFFCURVE",
"295 841 CURVE",
"279 1011 LINE"
);
}
);
width = 1162;
}
);
note = p;
unicode = 0070;
},
{
color = 4;
glyphname = thorn;
layers = (
{
layerId = "2F8B9CD4-7B7F-4ACC-ADF3-B6E0F7033A19";
paths = (
{
closed = 1;
nodes = (
"686 908 OFFCURVE",
"737 898 OFFCURVE",
"772 884 CURVE SMOOTH",
"807 870 OFFCURVE",
"825 851 OFFCURVE",
"836 834 CURVE SMOOTH",
"847 817 OFFCURVE",
"860 791 OFFCURVE",
"872 740 CURVE SMOOTH",
"883 689 OFFCURVE",
"891 614 OFFCURVE",
"891 498 CURVE SMOOTH",
"891 386 OFFCURVE",
"883 314 OFFCURVE",
"872 266 CURVE SMOOTH",
"860 217 OFFCURVE",
"846 192 OFFCURVE",
"834 176 CURVE",
"823 160 OFFCURVE",
"805 141 OFFCURVE",
"770 126 CURVE SMOOTH",
"735 110 OFFCURVE",
"684 100 OFFCURVE",
"608 100 CURVE SMOOTH",
"568 100 OFFCURVE",
"534 102 OFFCURVE",
"507 107 CURVE SMOOTH",
"451 116 OFFCURVE",
"415 131 OFFCURVE",
"392 150 CURVE SMOOTH",
"368 169 OFFCURVE",
"358 180 OFFCURVE",
"346 212 CURVE SMOOTH",
"340 227 OFFCURVE",
"335 248 OFFCURVE",
"330 275 CURVE SMOOTH",
"320 328 OFFCURVE",
"311 405 OFFCURVE",
"311 512 CURVE SMOOTH",
"311 623 OFFCURVE",
"320 694 OFFCURVE",
"332 743 CURVE SMOOTH",
"344 791 OFFCURVE",
"360 816 OFFCURVE",
"373 833 CURVE SMOOTH",
"385 849 OFFCURVE",
"405 869 OFFCURVE",
"441 883 CURVE SMOOTH",
"477 897 OFFCURVE",
"529 908 OFFCURVE",
"609 908 CURVE SMOOTH"
);
},
{
closed = 1;
nodes = (
"312 -301 LINE",
"312 137 LINE",
"325 116 OFFCURVE",
"349 76 OFFCURVE",
"399 41 CURVE SMOOTH",
"449 6 OFFCURVE",
"525 -23 OFFCURVE",
"645 -23 CURVE SMOOTH",
"745 -23 OFFCURVE",
"820 -2 OFFCURVE",
"873 27 CURVE SMOOTH",
"926 55 OFFCURVE",
"960 92 OFFCURVE",
"977 123 CURVE SMOOTH",
"990 146 OFFCURVE",
"1008 178 OFFCURVE",
"1022 236 CURVE SMOOTH",
"1036 294 OFFCURVE",
"1047 378 OFFCURVE",
"1047 506 CURVE SMOOTH",
"1047 645 OFFCURVE",
"1034 739 OFFCURVE",
"1015 805 CURVE SMOOTH",
"996 871 OFFCURVE",
"972 907 OFFCURVE",
"949 930 CURVE SMOOTH",
"932 947 OFFCURVE",
"902 972 OFFCURVE",
"854 993 CURVE SMOOTH",
"806 1014 OFFCURVE",
"738 1031 OFFCURVE",
"646 1031 CURVE SMOOTH",
"541 1031 OFFCURVE",
"469 1009 OFFCURVE",
"418 978 CURVE SMOOTH",
"366 947 OFFCURVE",
"336 907 OFFCURVE",
"312 874 CURVE",
"312 1441 LINE",
"158 1441 LINE",
"158 -301 LINE"
);
}
);
width = 1162;
}
);
note = thorn;
unicode = 00FE;
},
{
color = 4;
glyphname = q;
layers = (
{
layerId = "2F8B9CD4-7B7F-4ACC-ADF3-B6E0F7033A19";
paths = (
{
closed = 1;
nodes = (
"1004 1011 LINE",
"885 1011 LINE",
"867 848 LINE",
"854 871 OFFCURVE",
"828 918 OFFCURVE",
"775 959 CURVE SMOOTH",
"722 999 OFFCURVE",
"642 1034 OFFCURVE",
"521 1034 CURVE SMOOTH",
"418 1034 OFFCURVE",
"344 1012 OFFCURVE",
"290 984 CURVE SMOOTH",
"236 955 OFFCURVE",
"202 918 OFFCURVE",
"185 887 CURVE SMOOTH",
"172 863 OFFCURVE",
"154 832 OFFCURVE",
"140 775 CURVE SMOOTH",
"126 718 OFFCURVE",
"115 634 OFFCURVE",
"115 506 CURVE SMOOTH",
"115 381 OFFCURVE",
"127 296 OFFCURVE",
"141 237 CURVE SMOOTH",
"155 177 OFFCURVE",
"173 145 OFFCURVE",
"186 122 CURVE SMOOTH",
"203 91 OFFCURVE",
"238 55 OFFCURVE",
"291 27 CURVE SMOOTH",
"344 -2 OFFCURVE",
"419 -23 OFFCURVE",
"519 -23 CURVE SMOOTH",
"592 -23 OFFCURVE",
"659 -13 OFFCURVE",
"715 15 CURVE SMOOTH",
"771 43 OFFCURVE",
"817 89 OFFCURVE",
"849 160 CURVE",
"849 -379 LINE",
"1004 -379 LINE"
);
},
{
closed = 1;
nodes = (
"476 102 OFFCURVE",
"425 113 OFFCURVE",
"390 128 CURVE SMOOTH",
"354 143 OFFCURVE",
"336 163 OFFCURVE",
"324 180 CURVE SMOOTH",
"312 197 OFFCURVE",
"299 224 OFFCURVE",
"288 276 CURVE SMOOTH",
"277 327 OFFCURVE",
"270 400 OFFCURVE",
"270 512 CURVE SMOOTH",
"270 624 OFFCURVE",
"278 695 OFFCURVE",
"289 743 CURVE SMOOTH",
"300 791 OFFCURVE",
"314 815 OFFCURVE",
"326 832 CURVE SMOOTH",
"338 849 OFFCURVE",
"356 868 OFFCURVE",
"392 884 CURVE SMOOTH",
"427 899 OFFCURVE",
"478 910 OFFCURVE",
"555 910 CURVE SMOOTH",
"691 910 OFFCURVE",
"776 879 OFFCURVE",
"815 802 CURVE",
"818 797 OFFCURVE",
"821 788 OFFCURVE",
"825 775 CURVE SMOOTH",
"829 762 OFFCURVE",
"833 744 OFFCURVE",
"837 721 CURVE SMOOTH",
"845 673 OFFCURVE",
"852 604 OFFCURVE",
"852 503 CURVE SMOOTH",
"852 394 OFFCURVE",
"843 322 OFFCURVE",
"831 272 CURVE SMOOTH",
"819 222 OFFCURVE",
"803 195 OFFCURVE",
"791 179 CURVE SMOOTH",
"779 163 OFFCURVE",
"759 144 OFFCURVE",
"723 129 CURVE SMOOTH",
"687 114 OFFCURVE",
"634 103 OFFCURVE",
"555 102 CURVE SMOOTH"
);
}
);
width = 1162;
}
);
note = q;
unicode = 0071;
},
{
color = 4;
glyphname = r;
layers = (
{
layerId = "2F8B9CD4-7B7F-4ACC-ADF3-B6E0F7033A19";
paths = (
{
closed = 1;
nodes = (
"158 1011 LINE",
"158 817 LINE",
"158 0 LINE",
"306 0 LINE",
"306 698 LINE",
"330 771 OFFCURVE",
"380 818 OFFCURVE",
"439 846 CURVE SMOOTH",
"498 873 OFFCURVE",
"565 882 OFFCURVE",
"621 882 CURVE SMOOTH",
"624 882 OFFCURVE",
"626 882 OFFCURVE",
"629 882 CURVE",
"632 881 OFFCURVE",
"634 881 OFFCURVE",
"636 881 CURVE SMOOTH",
"643 881 LINE",
"643 1034 LINE",
"624 1034 LINE SMOOTH",
"545 1034 OFFCURVE",
"484 1014 OFFCURVE",
"433 982 CURVE SMOOTH",
"382 950 OFFCURVE",
"340 905 OFFCURVE",
"303 854 CURVE",
"297 1011 LINE"
);
}
);
width = 698;
}
);
note = r;
unicode = 0072;
},
{
color = 4;
glyphname = s;
layers = (
{
layerId = "2F8B9CD4-7B7F-4ACC-ADF3-B6E0F7033A19";
paths = (
{
closed = 1;
nodes = (
"114 156 OFFCURVE",
"139 94 OFFCURVE",
"195 49 CURVE SMOOTH",
"250 4 OFFCURVE",
"336 -23 OFFCURVE",
"475 -23 CURVE SMOOTH",
"568 -23 OFFCURVE",
"639 -6 OFFCURVE",
"689 15 CURVE SMOOTH",
"739 36 OFFCURVE",
"770 60 OFFCURVE",
"787 75 CURVE SMOOTH",
"806 91 OFFCURVE",
"825 117 OFFCURVE",
"840 151 CURVE SMOOTH",
"855 185 OFFCURVE",
"865 228 OFFCURVE",
"865 279 CURVE SMOOTH",
"865 320 OFFCURVE",
"859 356 OFFCURVE",
"846 386 CURVE SMOOTH",
"820 446 OFFCURVE",
"776 488 OFFCURVE",
"721 517 CURVE SMOOTH",
"665 545 OFFCURVE",
"605 564 OFFCURVE",
"546 579 CURVE SMOOTH",
"517 586 OFFCURVE",
"490 594 OFFCURVE",
"465 601 CURVE",
"382 621 OFFCURVE",
"334 637 OFFCURVE",
"304 661 CURVE SMOOTH",
"274 684 OFFCURVE",
"264 715 OFFCURVE",
"261 764 CURVE",
"261 819 OFFCURVE",
"281 848 OFFCURVE",
"294 860 CURVE",
"305 869 OFFCURVE",
"324 883 OFFCURVE",
"355 893 CURVE SMOOTH",
"386 903 OFFCURVE",
"427 911 OFFCURVE",
"479 911 CURVE SMOOTH",
"536 911 OFFCURVE",
"587 909 OFFCURVE",
"628 887 CURVE SMOOTH",
"668 865 OFFCURVE",
"699 823 OFFCURVE",
"715 747 CURVE",
"832 799 LINE",
"827 843 OFFCURVE",
"812 901 OFFCURVE",
"761 949 CURVE SMOOTH",
"710 997 OFFCURVE",
"626 1034 OFFCURVE",
"483 1034 CURVE SMOOTH",
"400 1034 OFFCURVE",
"334 1017 OFFCURVE",
"285 997 CURVE SMOOTH",
"236 976 OFFCURVE",
"202 950 OFFCURVE",
"185 933 CURVE SMOOTH",
"172 920 OFFCURVE",
"154 898 OFFCURVE",
"140 867 CURVE SMOOTH",
"126 836 OFFCURVE",
"115 797 OFFCURVE",
"115 749 CURVE SMOOTH",
"115 642 OFFCURVE",
"154 579 OFFCURVE",
"225 534 CURVE SMOOTH",
"296 489 OFFCURVE",
"397 461 OFFCURVE",
"520 428 CURVE SMOOTH",
"589 411 OFFCURVE",
"638 396 OFFCURVE",
"670 372 CURVE SMOOTH",
"701 348 OFFCURVE",
"714 315 OFFCURVE",
"714 259 CURVE SMOOTH",
"714 206 OFFCURVE",
"696 167 OFFCURVE",
"681 154 CURVE",
"670 143 OFFCURVE",
"649 129 OFFCURVE",
"616 118 CURVE SMOOTH",
"583 106 OFFCURVE",
"538 97 OFFCURVE",
"483 97 CURVE SMOOTH",
"404 97 OFFCURVE",
"348 104 OFFCURVE",
"306 131 CURVE SMOOTH",
"264 158 OFFCURVE",
"238 204 OFFCURVE",
"223 280 CURVE",
"98 228 LINE"
);
}
);
width = 962;
}
);
note = s;
unicode = 0073;
},
{
color = 4;
glyphname = germandbls;
layers = (
{
background = {
paths = (
{
closed = 1;
nodes = (
"843 -23 OFFCURVE",
"956 13 OFFCURVE",
"1016 69 CURVE SMOOTH",
"1044 97 OFFCURVE",
"1070 138 OFFCURVE",
"1090 196 CURVE SMOOTH",
"1110 254 OFFCURVE",
"1122 329 OFFCURVE",
"1122 432 CURVE SMOOTH",
"1122 477 OFFCURVE",
"1119 517 OFFCURVE",
"1113 552 CURVE SMOOTH",
"1101 622 OFFCURVE",
"1081 675 OFFCURVE",
"1054 713 CURVE SMOOTH",
"1026 751 OFFCURVE",
"996 774 OFFCURVE",
"965 790 CURVE SMOOTH",
"934 805 OFFCURVE",
"904 814 OFFCURVE",
"877 820 CURVE SMOOTH",
"864 823 OFFCURVE",
"852 825 OFFCURVE",
"841 828 CURVE",
"906 837 OFFCURVE",
"954 875 OFFCURVE",
"986 928 CURVE SMOOTH",
"1017 980 OFFCURVE",
"1031 1048 OFFCURVE",
"1031 1117 CURVE SMOOTH",
"1031 1196 OFFCURVE",
"1013 1258 OFFCURVE",
"988 1307 CURVE SMOOTH",
"963 1355 OFFCURVE",
"929 1389 OFFCURVE",
"897 1412 CURVE SMOOTH",
"872 1429 OFFCURVE",
"837 1446 OFFCURVE",
"789 1456 CURVE SMOOTH",
"740 1466 OFFCURVE",
"674 1472 OFFCURVE",
"589 1472 CURVE SMOOTH",
"493 1472 OFFCURVE",
"420 1463 OFFCURVE",
"365 1448 CURVE SMOOTH",
"309 1432 OFFCURVE",
"272 1409 OFFCURVE",
"248 1381 CURVE SMOOTH",
"228 1358 OFFCURVE",
"206 1326 OFFCURVE",
"188 1281 CURVE SMOOTH",
"170 1236 OFFCURVE",
"157 1178 OFFCURVE",
"157 1105 CURVE SMOOTH",
"157 0 LINE",
"310 0 LINE",
"310 1087 LINE SMOOTH",
"310 1184 OFFCURVE",
"322 1244 OFFCURVE",
"353 1283 CURVE SMOOTH",
"394 1332 OFFCURVE",
"466 1343 OFFCURVE",
"589 1343 CURVE SMOOTH",
"706 1343 OFFCURVE",
"775 1333 OFFCURVE",
"816 1301 CURVE SMOOTH",
"860 1266 OFFCURVE",
"872 1210 OFFCURVE",
"872 1114 CURVE SMOOTH",
"872 1026 OFFCURVE",
"858 968 OFFCURVE",
"831 932 CURVE SMOOTH",
"803 895 OFFCURVE",
"763 881 OFFCURVE",
"710 881 CURVE SMOOTH",
"531 881 LINE",
"531 765 LINE",
"709 765 LINE SMOOTH",
"764 765 OFFCURVE",
"805 752 OFFCURVE",
"837 735 CURVE SMOOTH",
"869 718 OFFCURVE",
"892 695 OFFCURVE",
"908 676 CURVE SMOOTH",
"924 656 OFFCURVE",
"938 630 OFFCURVE",
"947 591 CURVE SMOOTH",
"955 551 OFFCURVE",
"961 500 OFFCURVE",
"961 429 CURVE SMOOTH",
"961 364 OFFCURVE",
"960 314 OFFCURVE",
"954 275 CURVE SMOOTH",
"948 235 OFFCURVE",
"936 207 OFFCURVE",
"919 184 CURVE SMOOTH",
"908 168 OFFCURVE",
"888 151 OFFCURVE",
"856 138 CURVE SMOOTH",
"823 125 OFFCURVE",
"775 116 OFFCURVE",
"710 116 CURVE SMOOTH",
"660 116 LINE SMOOTH",
"641 116 OFFCURVE",
"623 118 OFFCURVE",
"604 122 CURVE SMOOTH",
"566 129 OFFCURVE",
"528 145 OFFCURVE",
"501 184 CURVE",
"431 134 LINE",
"455 90 OFFCURVE",
"484 51 OFFCURVE",
"528 23 CURVE SMOOTH",
"572 -5 OFFCURVE",
"630 -23 OFFCURVE",
"710 -23 CURVE SMOOTH"
);
}
);
};
layerId = "2F8B9CD4-7B7F-4ACC-ADF3-B6E0F7033A19";
paths = (
{
closed = 1;
nodes = (
"1010 -23 OFFCURVE",
"1122 115 OFFCURVE",
"1122 432 CURVE SMOOTH",
"1122 672 OFFCURVE",
"1044 791 OFFCURVE",
"841 828 CURVE",
"967 846 OFFCURVE",
"1031 970 OFFCURVE",
"1031 1117 CURVE SMOOTH",
"1031 1389 OFFCURVE",
"873 1472 OFFCURVE",
"589 1472 CURVE SMOOTH",
"293 1472 OFFCURVE",
"157 1389 OFFCURVE",
"157 1105 CURVE SMOOTH",
"157 0 LINE",
"310 0 LINE",
"310 1087 LINE SMOOTH",
"310 1305 OFFCURVE",
"368 1343 OFFCURVE",
"589 1343 CURVE SMOOTH",
"808 1343 OFFCURVE",
"872 1315 OFFCURVE",
"872 1114 CURVE SMOOTH",
"872 970 OFFCURVE",
"837 881 OFFCURVE",
"710 881 CURVE SMOOTH",
"531 881 LINE",
"531 765 LINE",
"709 765 LINE SMOOTH",
"905 765 OFFCURVE",
"961 636 OFFCURVE",
"961 429 CURVE SMOOTH",
"961 199 OFFCURVE",
"938 116 OFFCURVE",
"710 116 CURVE SMOOTH",
"660 116 LINE SMOOTH",
"598 116 OFFCURVE",
"536 134 OFFCURVE",
"501 184 CURVE",
"431 134 LINE",
"491 25 OFFCURVE",
"574 -23 OFFCURVE",
"710 -23 CURVE SMOOTH"
);
}
);
width = 1226;
}
);
note = germandbls;
unicode = 00DF;
},
{
color = 4;
glyphname = t;
layers = (
{
layerId = "2F8B9CD4-7B7F-4ACC-ADF3-B6E0F7033A19";
paths = (
{
closed = 1;
nodes = (
"238 1011 LINE",
"60 1011 LINE",
"60 896 LINE",
"226 896 LINE",
"226 312 LINE SMOOTH",
"226 227 OFFCURVE",
"234 168 OFFCURVE",
"245 128 CURVE SMOOTH",
"256 87 OFFCURVE",
"268 64 OFFCURVE",
"276 51 CURVE",
"284 39 OFFCURVE",
"304 20 OFFCURVE",
"340 5 CURVE SMOOTH",
"375 -11 OFFCURVE",
"424 -23 OFFCURVE",
"491 -23 CURVE SMOOTH",
"558 -23 OFFCURVE",
"601 -11 OFFCURVE",
"630 2 CURVE SMOOTH",
"663 17 OFFCURVE",
"679 31 OFFCURVE",
"692 55 CURVE SMOOTH",
"703 76 OFFCURVE",
"716 110 OFFCURVE",
"723 167 CURVE",
"632 220 LINE",
"624 173 OFFCURVE",
"612 149 OFFCURVE",
"603 134 CURVE SMOOTH",
"592 117 OFFCURVE",
"584 113 OFFCURVE",
"568 109 CURVE SMOOTH",
"553 105 OFFCURVE",
"529 102 OFFCURVE",
"490 102 CURVE SMOOTH",
"453 102 OFFCURVE",
"432 108 OFFCURVE",
"419 115 CURVE SMOOTH",
"404 123 OFFCURVE",
"398 132 OFFCURVE",
"391 159 CURVE",
"384 182 OFFCURVE",
"380 222 OFFCURVE",
"380 287 CURVE SMOOTH",
"380 896 LINE",
"623 896 LINE",
"623 1011 LINE",
"380 1011 LINE",
"380 1381 LINE",
"238 1333 LINE"
);
}
);
width = 760;
}
);
note = t;
unicode = 0074;
},
{
color = 4;
glyphname = u;
layers = (
{
layerId = "2F8B9CD4-7B7F-4ACC-ADF3-B6E0F7033A19";
paths = (
{
closed = 1;
nodes = (
"149 269 OFFCURVE",
"160 199 OFFCURVE",
"174 152 CURVE SMOOTH",
"188 105 OFFCURVE",
"205 81 OFFCURVE",
"220 66 CURVE SMOOTH",
"235 51 OFFCURVE",
"262 29 OFFCURVE",
"308 10 CURVE SMOOTH",
"354 -9 OFFCURVE",
"417 -23 OFFCURVE",
"505 -23 CURVE SMOOTH",
"626 -23 OFFCURVE",
"708 9 OFFCURVE",
"763 46 CURVE SMOOTH",
"818 83 OFFCURVE",
"845 126 OFFCURVE",
"858 146 CURVE",
"871 0 LINE",
"999 0 LINE",
"999 1011 LINE",
"846 1011 LINE",
"846 422 LINE SMOOTH",
"846 335 OFFCURVE",
"837 281 OFFCURVE",
"825 243 CURVE SMOOTH",
"813 205 OFFCURVE",
"797 185 OFFCURVE",
"784 172 CURVE",
"771 157 OFFCURVE",
"751 141 OFFCURVE",
"715 127 CURVE SMOOTH",
"679 113 OFFCURVE",
"626 102 OFFCURVE",
"547 102 CURVE SMOOTH",
"475 102 OFFCURVE",
"427 113 OFFCURVE",
"396 128 CURVE SMOOTH",
"364 143 OFFCURVE",
"349 163 OFFCURVE",
"341 180 CURVE",
"338 185 OFFCURVE",
"334 191 OFFCURVE",
"330 200 CURVE",
"325 209 OFFCURVE",
"321 221 OFFCURVE",
"317 238 CURVE SMOOTH",
"309 271 OFFCURVE",
"303 322 OFFCURVE",
"303 403 CURVE SMOOTH",
"303 1011 LINE",
"149 1011 LINE",
"149 376 LINE SMOOTH"
);
}
);
width = 1157;
}
);
note = u;
unicode = 0075;
},
{
color = 4;
glyphname = v;
layers = (
{
layerId = "2F8B9CD4-7B7F-4ACC-ADF3-B6E0F7033A19";
paths = (
{
closed = 1;
nodes = (
"575 0 LINE",
"914 1011 LINE",
"756 1011 LINE",
"560 401 LINE",
"486 141 LINE",
"411 401 LINE",
"213 1011 LINE",
"53 1011 LINE",
"396 0 LINE"
);
}
);
width = 967;
}
);
note = v;
unicode = 0076;
},
{
color = 4;
glyphname = w;
layers = (
{
layerId = "2F8B9CD4-7B7F-4ACC-ADF3-B6E0F7033A19";
paths = (
{
closed = 1;
nodes = (
"525 0 LINE",
"690 645 LINE",
"741 874 LINE",
"790 651 LINE",
"960 0 LINE",
"1135 0 LINE",
"1425 1011 LINE",
"1267 1011 LINE",
"1113 383 LINE",
"1050 127 LINE",
"991 383 LINE",
"827 1011 LINE",
"657 1011 LINE",
"493 376 LINE",
"440 125 LINE",
"378 387 LINE",
"220 1011 LINE",
"59 1011 LINE",
"349 0 LINE"
);
}
);
width = 1485;
}
);
note = w;
unicode = 0077;
},
{
color = 4;
glyphname = x;
layers = (
{
layerId = "2F8B9CD4-7B7F-4ACC-ADF3-B6E0F7033A19";
paths = (
{
closed = 1;
nodes = (
"64 17 LINE",
"217 -17 LINE",
"485 400 LINE",
"756 -17 LINE",
"911 17 LINE",
"571 528 LINE",
"885 993 LINE",
"731 1027 LINE",
"484 650 LINE",
"232 1027 LINE",
"75 993 LINE",
"397 526 LINE"
);
}
);
width = 968;
}
);
note = x;
unicode = 0078;
},
{
color = 4;
glyphname = y;
layers = (
{
layerId = "2F8B9CD4-7B7F-4ACC-ADF3-B6E0F7033A19";
paths = (
{
closed = 1;
nodes = (
"845 7 OFFCURVE",
"843 -33 OFFCURVE",
"839 -64 CURVE SMOOTH",
"831 -127 OFFCURVE",
"819 -165 OFFCURVE",
"807 -184 CURVE SMOOTH",
"801 -194 OFFCURVE",
"796 -202 OFFCURVE",
"792 -207 CURVE SMOOTH",
"780 -223 OFFCURVE",
"756 -240 OFFCURVE",
"717 -254 CURVE SMOOTH",
"677 -268 OFFCURVE",
"624 -279 OFFCURVE",
"555 -279 CURVE SMOOTH",
"509 -279 OFFCURVE",
"472 -277 OFFCURVE",
"444 -272 CURVE SMOOTH",
"387 -263 OFFCURVE",
"352 -251 OFFCURVE",
"333 -235 CURVE",
"325 -231 OFFCURVE",
"316 -223 OFFCURVE",
"307 -212 CURVE SMOOTH",
"291 -193 OFFCURVE",
"270 -162 OFFCURVE",
"243 -103 CURVE",
"156 -150 LINE",
"161 -207 OFFCURVE",
"179 -249 OFFCURVE",
"197 -277 CURVE SMOOTH",
"215 -306 OFFCURVE",
"235 -324 OFFCURVE",
"248 -332 CURVE",
"261 -341 OFFCURVE",
"292 -358 OFFCURVE",
"342 -373 CURVE SMOOTH",
"392 -389 OFFCURVE",
"461 -402 OFFCURVE",
"556 -402 CURVE SMOOTH",
"656 -402 OFFCURVE",
"731 -386 OFFCURVE",
"785 -365 CURVE SMOOTH",
"839 -345 OFFCURVE",
"872 -319 OFFCURVE",
"892 -300 CURVE SMOOTH",
"911 -281 OFFCURVE",
"938 -247 OFFCURVE",
"960 -190 CURVE SMOOTH",
"982 -133 OFFCURVE",
"999 -51 OFFCURVE",
"999 62 CURVE SMOOTH",
"999 1011 LINE",
"846 1011 LINE",
"846 422 LINE SMOOTH",
"846 335 OFFCURVE",
"837 281 OFFCURVE",
"825 243 CURVE SMOOTH",
"813 205 OFFCURVE",
"797 185 OFFCURVE",
"784 172 CURVE",
"771 157 OFFCURVE",
"751 141 OFFCURVE",
"715 127 CURVE SMOOTH",
"679 113 OFFCURVE",
"626 102 OFFCURVE",
"547 102 CURVE SMOOTH",
"475 102 OFFCURVE",
"427 113 OFFCURVE",
"396 128 CURVE SMOOTH",
"364 143 OFFCURVE",
"349 163 OFFCURVE",
"341 180 CURVE",
"338 185 OFFCURVE",
"334 191 OFFCURVE",
"330 200 CURVE",
"325 209 OFFCURVE",
"321 221 OFFCURVE",
"317 238 CURVE SMOOTH",
"309 271 OFFCURVE",
"303 322 OFFCURVE",
"303 403 CURVE SMOOTH",
"303 1011 LINE",
"149 1011 LINE",
"149 376 LINE SMOOTH",
"149 269 OFFCURVE",
"160 199 OFFCURVE",
"174 152 CURVE SMOOTH",
"188 105 OFFCURVE",
"205 81 OFFCURVE",
"220 66 CURVE SMOOTH",
"235 51 OFFCURVE",
"262 29 OFFCURVE",
"308 10 CURVE SMOOTH",
"354 -9 OFFCURVE",
"417 -23 OFFCURVE",
"505 -23 CURVE SMOOTH",
"620 -23 OFFCURVE",
"697 3 OFFCURVE",
"750 35 CURVE SMOOTH",
"802 66 OFFCURVE",
"829 104 OFFCURVE",
"845 128 CURVE",
"845 56 LINE SMOOTH"
);
}
);
width = 1157;
}
);
note = y;
unicode = 0079;
},
{
color = 4;
glyphname = z;
layers = (
{
layerId = "2F8B9CD4-7B7F-4ACC-ADF3-B6E0F7033A19";
paths = (
{
closed = 1;
nodes = (
"465 887 LINE",
"627 893 LINE",
"502 731 LINE",
"82 117 LINE",
"95 0 LINE",
"804 0 LINE",
"804 125 LINE",
"374 125 LINE",
"253 120 LINE",
"388 298 LINE",
"801 904 LINE",
"787 1011 LINE",
"121 1011 LINE",
"121 887 LINE"
);
}
);
width = 900;
}
);
note = z;
unicode = 007A;
},
{
color = 4;
glyphname = fi;
layers = (
{
layerId = "2F8B9CD4-7B7F-4ACC-ADF3-B6E0F7033A19";
paths = (
{
closed = 1;
nodes = (
"955 1011 LINE",
"411 1011 LINE",
"411 1122 LINE SMOOTH",
"411 1167 OFFCURVE",
"412 1202 OFFCURVE",
"414 1226 CURVE",
"415 1250 OFFCURVE",
"417 1268 OFFCURVE",
"420 1279 CURVE",
"423 1292 OFFCURVE",
"426 1299 OFFCURVE",
"429 1301 CURVE",
"431 1306 OFFCURVE",
"436 1311 OFFCURVE",
"443 1316 CURVE SMOOTH",
"455 1324 OFFCURVE",
"478 1332 OFFCURVE",
"521 1332 CURVE SMOOTH",
"544 1332 OFFCURVE",
"561 1329 OFFCURVE",
"572 1326 CURVE SMOOTH",
"585 1322 OFFCURVE",
"593 1318 OFFCURVE",
"605 1307 CURVE",
"616 1298 OFFCURVE",
"628 1282 OFFCURVE",
"640 1261 CURVE",
"722 1331 LINE",
"711 1364 OFFCURVE",
"695 1387 OFFCURVE",
"680 1403 CURVE SMOOTH",
"663 1420 OFFCURVE",
"648 1433 OFFCURVE",
"623 1442 CURVE SMOOTH",
"600 1450 OFFCURVE",
"567 1458 OFFCURVE",
"519 1458 CURVE SMOOTH",
"484 1458 OFFCURVE",
"454 1455 OFFCURVE",
"429 1449 CURVE SMOOTH",
"379 1437 OFFCURVE",
"345 1421 OFFCURVE",
"326 1406 CURVE SMOOTH",
"317 1399 OFFCURVE",
"310 1393 OFFCURVE",
"307 1390 CURVE SMOOTH",
"298 1381 OFFCURVE",
"286 1361 OFFCURVE",
"276 1322 CURVE SMOOTH",
"266 1283 OFFCURVE",
"258 1224 OFFCURVE",
"258 1135 CURVE SMOOTH",
"258 1011 LINE",
"66 1011 LINE",
"66 899 LINE",
"258 899 LINE",
"258 0 LINE",
"411 0 LINE",
"411 899 LINE",
"801 899 LINE",
"801 0 LINE",
"955 0 LINE"
);
},
{
closed = 1;
nodes = (
"805 1370 OFFCURVE",
"785 1336 OFFCURVE",
"785 1271 CURVE SMOOTH",
"785 1207 OFFCURVE",
"809 1185 OFFCURVE",
"877 1185 CURVE SMOOTH",
"953 1185 OFFCURVE",
"971 1207 OFFCURVE",
"971 1271 CURVE SMOOTH",
"971 1303 OFFCURVE",
"967 1328 OFFCURVE",
"954 1345 CURVE SMOOTH",
"941 1361 OFFCURVE",
"917 1370 OFFCURVE",
"877 1370 CURVE SMOOTH"
);
}
);
width = 1113;
}
);
note = fi;
unicode = FB01;
},
{
color = 4;
glyphname = pi;
layers = (
{
layerId = "2F8B9CD4-7B7F-4ACC-ADF3-B6E0F7033A19";
paths = (
{
closed = 1;
nodes = (
"1384 1116 LINE",
"383 1116 LINE SMOOTH",
"288 1116 OFFCURVE",
"217 1110 OFFCURVE",
"161 1100 CURVE SMOOTH",
"105 1090 OFFCURVE",
"64 1074 OFFCURVE",
"32 1057 CURVE",
"59 956 LINE",
"87 967 OFFCURVE",
"119 975 OFFCURVE",
"164 981 CURVE SMOOTH",
"209 987 OFFCURVE",
"269 989 OFFCURVE",
"352 989 CURVE",
"347 890 OFFCURVE",
"335 772 OFFCURVE",
"319 650 CURVE SMOOTH",
"302 528 OFFCURVE",
"279 403 OFFCURVE",
"253 289 CURVE SMOOTH",
"227 175 OFFCURVE",
"197 73 OFFCURVE",
"166 0 CURVE",
"325 0 LINE",
"354 61 OFFCURVE",
"384 160 OFFCURVE",
"410 275 CURVE SMOOTH",
"436 390 OFFCURVE",
"459 520 OFFCURVE",
"476 646 CURVE SMOOTH",
"493 772 OFFCURVE",
"507 893 OFFCURVE",
"512 989 CURVE",
"995 989 LINE",
"995 315 LINE SMOOTH",
"995 218 OFFCURVE",
"999 148 OFFCURVE",
"1007 97 CURVE SMOOTH",
"1014 46 OFFCURVE",
"1024 16 OFFCURVE",
"1036 0 CURVE",
"1192 0 LINE",
"1184 29 OFFCURVE",
"1175 65 OFFCURVE",
"1168 118 CURVE SMOOTH",
"1161 170 OFFCURVE",
"1157 239 OFFCURVE",
"1157 338 CURVE SMOOTH",
"1157 989 LINE",
"1368 989 LINE"
);
}
);
width = 1425;
}
);
note = pi;
unicode = 03C0;
},
{
color = 4;
glyphname = zero;
layers = (
{
layerId = "2F8B9CD4-7B7F-4ACC-ADF3-B6E0F7033A19";
paths = (
{
closed = 1;
nodes = (
"708 1203 OFFCURVE",
"791 1170 OFFCURVE",
"835 1109 CURVE SMOOTH",
"870 1061 OFFCURVE",
"889 995 OFFCURVE",
"900 920 CURVE SMOOTH",
"911 845 OFFCURVE",
"913 759 OFFCURVE",
"913 671 CURVE SMOOTH",
"913 574 OFFCURVE",
"911 481 OFFCURVE",
"899 400 CURVE SMOOTH",
"887 319 OFFCURVE",
"865 249 OFFCURVE",
"828 200 CURVE SMOOTH",
"783 140 OFFCURVE",
"702 111 OFFCURVE",
"603 111 CURVE SMOOTH",
"506 111 OFFCURVE",
"424 140 OFFCURVE",
"380 199 CURVE SMOOTH",
"341 248 OFFCURVE",
"320 317 OFFCURVE",
"308 397 CURVE SMOOTH",
"296 477 OFFCURVE",
"294 566 OFFCURVE",
"294 661 CURVE SMOOTH",
"294 752 OFFCURVE",
"296 840 OFFCURVE",
"308 918 CURVE SMOOTH",
"320 996 OFFCURVE",
"341 1063 OFFCURVE",
"378 1112 CURVE SMOOTH",
"423 1172 OFFCURVE",
"507 1203 OFFCURVE",
"607 1203 CURVE SMOOTH"
);
},
{
closed = 1;
nodes = (
"464 1334 OFFCURVE",
"347 1292 OFFCURVE",
"275 1212 CURVE SMOOTH",
"220 1151 OFFCURVE",
"185 1071 OFFCURVE",
"163 977 CURVE SMOOTH",
"141 883 OFFCURVE",
"132 777 OFFCURVE",
"132 665 CURVE SMOOTH",
"132 393 OFFCURVE",
"182 208 OFFCURVE",
"279 100 CURVE SMOOTH",
"356 13 OFFCURVE",
"477 -21 OFFCURVE",
"605 -21 CURVE SMOOTH",
"730 -21 OFFCURVE",
"850 13 OFFCURVE",
"930 101 CURVE SMOOTH",
"1025 208 OFFCURVE",
"1075 389 OFFCURVE",
"1075 666 CURVE SMOOTH",
"1075 921 OFFCURVE",
"1030 1102 OFFCURVE",
"934 1211 CURVE SMOOTH",
"858 1296 OFFCURVE",
"740 1334 OFFCURVE",
"608 1334 CURVE SMOOTH"
);
}
);
width = 1207;
}
);
note = zero;
unicode = 0030;
},
{
color = 4;
glyphname = one;
layers = (
{
layerId = "2F8B9CD4-7B7F-4ACC-ADF3-B6E0F7033A19";
paths = (
{
closed = 1;
nodes = (
"131 1000 OFFCURVE",
"166 1021 OFFCURVE",
"202 1045 CURVE SMOOTH",
"238 1069 OFFCURVE",
"276 1096 OFFCURVE",
"328 1133 CURVE",
"328 0 LINE",
"479 0 LINE",
"479 1307 LINE",
"353 1331 LINE",
"272 1258 OFFCURVE",
"212 1209 OFFCURVE",
"164 1174 CURVE SMOOTH",
"116 1139 OFFCURVE",
"80 1117 OFFCURVE",
"48 1100 CURVE",
"87 976 LINE"
);
}
);
width = 670;
}
);
note = one;
unicode = 0031;
},
{
color = 4;
glyphname = two;
layers = (
{
layerId = "2F8B9CD4-7B7F-4ACC-ADF3-B6E0F7033A19";
paths = (
{
closed = 1;
nodes = (
"237 1030 OFFCURVE",
"264 1096 OFFCURVE",
"317 1139 CURVE SMOOTH",
"373 1182 OFFCURVE",
"455 1199 OFFCURVE",
"535 1199 CURVE SMOOTH",
"620 1199 OFFCURVE",
"689 1173 OFFCURVE",
"726 1126 CURVE SMOOTH",
"761 1083 OFFCURVE",
"770 1022 OFFCURVE",
"770 947 CURVE SMOOTH",
"770 905 OFFCURVE",
"763 869 OFFCURVE",
"748 838 CURVE SMOOTH",
"719 776 OFFCURVE",
"666 725 OFFCURVE",
"596 676 CURVE SMOOTH",
"561 651 OFFCURVE",
"523 625 OFFCURVE",
"482 596 CURVE SMOOTH",
"383 527 OFFCURVE",
"296 461 OFFCURVE",
"229 371 CURVE SMOOTH",
"162 281 OFFCURVE",
"116 167 OFFCURVE",
"100 0 CURVE",
"944 0 LINE",
"944 143 LINE",
"265 143 LINE",
"286 220 OFFCURVE",
"319 280 OFFCURVE",
"369 334 CURVE SMOOTH",
"419 388 OFFCURVE",
"486 438 OFFCURVE",
"577 498 CURVE SMOOTH",
"665 554 OFFCURVE",
"753 608 OFFCURVE",
"821 677 CURVE SMOOTH",
"888 746 OFFCURVE",
"933 832 OFFCURVE",
"933 953 CURVE SMOOTH",
"933 1053 OFFCURVE",
"910 1140 OFFCURVE",
"853 1208 CURVE SMOOTH",
"788 1285 OFFCURVE",
"676 1332 OFFCURVE",
"540 1332 CURVE SMOOTH",
"408 1332 OFFCURVE",
"298 1297 OFFCURVE",
"226 1233 CURVE SMOOTH",
"151 1168 OFFCURVE",
"120 1075 OFFCURVE",
"133 986 CURVE",
"244 949 LINE"
);
}
);
width = 1065;
}
);
note = two;
unicode = 0032;
},
{
color = 4;
glyphname = three;
layers = (
{
layerId = "2F8B9CD4-7B7F-4ACC-ADF3-B6E0F7033A19";
paths = (
{
closed = 1;
nodes = (
"262 1082 OFFCURVE",
"292 1128 OFFCURVE",
"333 1156 CURVE SMOOTH",
"388 1195 OFFCURVE",
"460 1205 OFFCURVE",
"543 1205 CURVE SMOOTH",
"606 1205 OFFCURVE",
"663 1189 OFFCURVE",
"700 1156 CURVE SMOOTH",
"743 1117 OFFCURVE",
"760 1058 OFFCURVE",
"760 975 CURVE SMOOTH",
"760 892 OFFCURVE",
"727 839 OFFCURVE",
"675 805 CURVE SMOOTH",
"623 771 OFFCURVE",
"552 757 OFFCURVE",
"476 757 CURVE SMOOTH",
"362 757 LINE",
"362 631 LINE",
"434 631 OFFCURVE",
"505 630 OFFCURVE",
"566 619 CURVE SMOOTH",
"627 608 OFFCURVE",
"682 588 OFFCURVE",
"719 551 CURVE SMOOTH",
"756 514 OFFCURVE",
"779 458 OFFCURVE",
"779 377 CURVE SMOOTH",
"779 297 OFFCURVE",
"770 229 OFFCURVE",
"731 182 CURVE SMOOTH",
"687 127 OFFCURVE",
"608 105 OFFCURVE",
"505 105 CURVE SMOOTH",
"422 105 OFFCURVE",
"346 116 OFFCURVE",
"295 163 CURVE SMOOTH",
"258 198 OFFCURVE",
"237 254 OFFCURVE",
"237 322 CURVE",
"112 275 LINE",
"108 192 OFFCURVE",
"138 122 OFFCURVE",
"191 75 CURVE SMOOTH",
"230 40 OFFCURVE",
"281 16 OFFCURVE",
"335 1 CURVE SMOOTH",
"389 -15 OFFCURVE",
"447 -22 OFFCURVE",
"503 -22 CURVE SMOOTH",
"636 -22 OFFCURVE",
"752 5 OFFCURVE",
"832 64 CURVE SMOOTH",
"928 135 OFFCURVE",
"973 247 OFFCURVE",
"973 380 CURVE SMOOTH",
"973 473 OFFCURVE",
"936 545 OFFCURVE",
"884 597 CURVE SMOOTH",
"831 649 OFFCURVE",
"761 680 OFFCURVE",
"694 692 CURVE",
"746 703 OFFCURVE",
"809 729 OFFCURVE",
"860 776 CURVE SMOOTH",
"911 823 OFFCURVE",
"948 890 OFFCURVE",
"948 982 CURVE SMOOTH",
"948 1099 OFFCURVE",
"908 1193 OFFCURVE",
"823 1254 CURVE SMOOTH",
"751 1305 OFFCURVE",
"648 1334 OFFCURVE",
"541 1334 CURVE SMOOTH",
"496 1334 OFFCURVE",
"446 1330 OFFCURVE",
"398 1319 CURVE SMOOTH",
"349 1307 OFFCURVE",
"300 1290 OFFCURVE",
"259 1263 CURVE SMOOTH",
"192 1220 OFFCURVE",
"141 1153 OFFCURVE",
"126 1070 CURVE",
"247 1031 LINE"
);
}
);
width = 1102;
}
);
note = three;
unicode = 0033;
},
{
color = 4;
glyphname = four;
layers = (
{
layerId = "2F8B9CD4-7B7F-4ACC-ADF3-B6E0F7033A19";
paths = (
{
closed = 1;
nodes = (
"188 405 LINE",
"623 1114 LINE",
"623 405 LINE"
);
},
{
closed = 1;
nodes = (
"74 279 LINE",
"623 279 LINE",
"623 -1 LINE",
"775 -1 LINE",
"775 279 LINE",
"959 279 LINE",
"959 407 LINE",
"775 407 LINE",
"775 1290 LINE",
"597 1310 LINE",
"60 446 LINE"
);
}
);
width = 1037;
}
);
note = four;
unicode = 0034;
},
{
color = 4;
glyphname = five;
layers = (
{
layerId = "2F8B9CD4-7B7F-4ACC-ADF3-B6E0F7033A19";
paths = (
{
closed = 1;
nodes = (
"295 616 OFFCURVE",
"329 647 OFFCURVE",
"376 671 CURVE SMOOTH",
"423 695 OFFCURVE",
"481 712 OFFCURVE",
"546 712 CURVE SMOOTH",
"642 712 OFFCURVE",
"717 692 OFFCURVE",
"764 645 CURVE SMOOTH",
"815 596 OFFCURVE",
"832 519 OFFCURVE",
"832 412 CURVE SMOOTH",
"832 307 OFFCURVE",
"809 229 OFFCURVE",
"757 178 CURVE SMOOTH",
"704 127 OFFCURVE",
"623 107 OFFCURVE",
"532 107 CURVE SMOOTH",
"448 107 OFFCURVE",
"378 125 OFFCURVE",
"330 154 CURVE SMOOTH",
"295 175 OFFCURVE",
"271 201 OFFCURVE",
"253 225 CURVE SMOOTH",
"235 249 OFFCURVE",
"224 272 OFFCURVE",
"217 287 CURVE",
"121 200 LINE",
"137 153 OFFCURVE",
"169 99 OFFCURVE",
"226 58 CURVE SMOOTH",
"297 7 OFFCURVE",
"401 -25 OFFCURVE",
"534 -25 CURVE SMOOTH",
"662 -25 OFFCURVE",
"780 8 OFFCURVE",
"863 81 CURVE SMOOTH",
"948 157 OFFCURVE",
"991 270 OFFCURVE",
"991 420 CURVE SMOOTH",
"991 567 OFFCURVE",
"953 675 OFFCURVE",
"877 744 CURVE SMOOTH",
"804 811 OFFCURVE",
"696 841 OFFCURVE",
"568 841 CURVE SMOOTH",
"505 841 OFFCURVE",
"445 827 OFFCURVE",
"397 809 CURVE SMOOTH",
"348 791 OFFCURVE",
"308 768 OFFCURVE",
"287 751 CURVE",
"318 1161 LINE",
"884 1161 LINE",
"884 1304 LINE",
"194 1304 LINE",
"193 1289 OFFCURVE",
"191 1266 OFFCURVE",
"189 1236 CURVE SMOOTH",
"187 1205 OFFCURVE",
"185 1170 OFFCURVE",
"182 1131 CURVE SMOOTH",
"179 1091 OFFCURVE",
"177 1048 OFFCURVE",
"174 1003 CURVE SMOOTH",
"171 958 OFFCURVE",
"167 912 OFFCURVE",
"164 867 CURVE SMOOTH",
"161 822 OFFCURVE",
"158 778 OFFCURVE",
"155 737 CURVE SMOOTH",
"152 695 OFFCURVE",
"149 658 OFFCURVE",
"146 625 CURVE",
"278 588 LINE"
);
}
);
width = 1098;
}
);
note = five;
unicode = 0035;
},
{
color = 4;
glyphname = six;
layers = (
{
layerId = "2F8B9CD4-7B7F-4ACC-ADF3-B6E0F7033A19";
paths = (
{
closed = 1;
nodes = (
"908 1267 LINE SMOOTH",
"885 1282 OFFCURVE",
"859 1296 OFFCURVE",
"831 1309 CURVE SMOOTH",
"774 1335 OFFCURVE",
"704 1354 OFFCURVE",
"619 1354 CURVE SMOOTH",
"566 1354 OFFCURVE",
"520 1347 OFFCURVE",
"479 1334 CURVE SMOOTH",
"397 1306 OFFCURVE",
"337 1272 OFFCURVE",
"288 1224 CURVE",
"258 1190 OFFCURVE",
"231 1145 OFFCURVE",
"208 1088 CURVE SMOOTH",
"188 1040 OFFCURVE",
"169 976 OFFCURVE",
"154 896 CURVE SMOOTH",
"138 815 OFFCURVE",
"129 716 OFFCURVE",
"129 599 CURVE SMOOTH",
"129 496 OFFCURVE",
"139 411 OFFCURVE",
"155 341 CURVE SMOOTH",
"170 271 OFFCURVE",
"191 216 OFFCURVE",
"212 175 CURVE SMOOTH",
"261 78 OFFCURVE",
"312 41 OFFCURVE",
"369 14 CURVE SMOOTH",
"418 -9 OFFCURVE",
"491 -32 OFFCURVE",
"590 -32 CURVE SMOOTH",
"709 -32 OFFCURVE",
"792 -1 OFFCURVE",
"847 31 CURVE SMOOTH",
"911 68 OFFCURVE",
"949 117 OFFCURVE",
"982 184 CURVE SMOOTH",
"1010 241 OFFCURVE",
"1039 324 OFFCURVE",
"1039 428 CURVE SMOOTH",
"1039 561 OFFCURVE",
"1001 653 OFFCURVE",
"964 713 CURVE SMOOTH",
"920 782 OFFCURVE",
"877 813 OFFCURVE",
"829 834 CURVE SMOOTH",
"788 851 OFFCURVE",
"724 869 OFFCURVE",
"633 869 CURVE SMOOTH",
"512 869 OFFCURVE",
"389 822 OFFCURVE",
"300 721 CURVE",
"300 792 OFFCURVE",
"305 853 OFFCURVE",
"315 903 CURVE SMOOTH",
"335 1002 OFFCURVE",
"360 1068 OFFCURVE",
"395 1116 CURVE",
"410 1134 OFFCURVE",
"429 1150 OFFCURVE",
"451 1165 CURVE",
"490 1189 OFFCURVE",
"545 1214 OFFCURVE",
"625 1214 CURVE SMOOTH",
"669 1214 OFFCURVE",
"708 1209 OFFCURVE",
"743 1199 CURVE SMOOTH",
"811 1178 OFFCURVE",
"859 1151 OFFCURVE",
"902 1114 CURVE",
"972 1226 LINE"
);
},
{
closed = 1;
nodes = (
"556 99 OFFCURVE",
"526 102 OFFCURVE",
"501 109 CURVE SMOOTH",
"452 121 OFFCURVE",
"418 137 OFFCURVE",
"394 161 CURVE",
"376 176 OFFCURVE",
"360 200 OFFCURVE",
"347 231 CURVE SMOOTH",
"324 284 OFFCURVE",
"301 371 OFFCURVE",
"301 511 CURVE",
"325 580 OFFCURVE",
"369 637 OFFCURVE",
"424 677 CURVE SMOOTH",
"479 716 OFFCURVE",
"544 738 OFFCURVE",
"612 738 CURVE SMOOTH",
"676 738 OFFCURVE",
"722 722 OFFCURVE",
"753 707 CURVE",
"789 688 OFFCURVE",
"814 668 OFFCURVE",
"837 624 CURVE SMOOTH",
"856 585 OFFCURVE",
"875 523 OFFCURVE",
"875 427 CURVE SMOOTH",
"875 379 OFFCURVE",
"872 340 OFFCURVE",
"867 310 CURVE SMOOTH",
"856 250 OFFCURVE",
"844 213 OFFCURVE",
"825 193 CURVE",
"812 175 OFFCURVE",
"795 159 OFFCURVE",
"774 146 CURVE SMOOTH",
"738 122 OFFCURVE",
"680 99 OFFCURVE",
"592 99 CURVE SMOOTH"
);
}
);
width = 1144;
}
);
note = six;
unicode = 0036;
},
{
color = 4;
glyphname = seven;
layers = (
{
layerId = "2F8B9CD4-7B7F-4ACC-ADF3-B6E0F7033A19";
paths = (
{
closed = 1;
nodes = (
"685 1170 LINE",
"626 1065 OFFCURVE",
"563 943 OFFCURVE",
"504 812 CURVE SMOOTH",
"444 681 OFFCURVE",
"388 543 OFFCURVE",
"345 406 CURVE SMOOTH",
"301 269 OFFCURVE",
"270 132 OFFCURVE",
"261 7 CURVE",
"427 7 LINE",
"434 140 OFFCURVE",
"471 319 OFFCURVE",
"540 521 CURVE SMOOTH",
"608 723 OFFCURVE",
"707 948 OFFCURVE",
"838 1173 CURVE",
"833 1307 LINE",
"73 1307 LINE",
"73 1170 LINE"
);
}
);
width = 894;
}
);
note = seven;
unicode = 0037;
},
{
color = 4;
glyphname = eight;
layers = (
{
layerId = "2F8B9CD4-7B7F-4ACC-ADF3-B6E0F7033A19";
paths = (
{
closed = 1;
nodes = (
"763 745 OFFCURVE",
"830 788 OFFCURVE",
"882 841 CURVE SMOOTH",
"933 894 OFFCURVE",
"966 958 OFFCURVE",
"966 1041 CURVE SMOOTH",
"966 1145 OFFCURVE",
"935 1228 OFFCURVE",
"856 1283 CURVE SMOOTH",
"789 1330 OFFCURVE",
"688 1350 OFFCURVE",
"575 1350 CURVE SMOOTH",
"456 1350 OFFCURVE",
"355 1331 OFFCURVE",
"287 1284 CURVE SMOOTH",
"207 1229 OFFCURVE",
"173 1143 OFFCURVE",
"173 1035 CURVE SMOOTH",
"173 952 OFFCURVE",
"206 888 OFFCURVE",
"255 835 CURVE SMOOTH",
"304 782 OFFCURVE",
"371 739 OFFCURVE",
"442 703 CURVE",
"231 627 OFFCURVE",
"120 502 OFFCURVE",
"120 335 CURVE SMOOTH",
"120 206 OFFCURVE",
"158 113 OFFCURVE",
"243 50 CURVE SMOOTH",
"319 -6 OFFCURVE",
"433 -33 OFFCURVE",
"557 -33 CURVE SMOOTH",
"688 -33 OFFCURVE",
"804 -6 OFFCURVE",
"884 50 CURVE SMOOTH",
"972 111 OFFCURVE",
"1016 207 OFFCURVE",
"1016 336 CURVE SMOOTH",
"1016 509 OFFCURVE",
"909 634 OFFCURVE",
"695 709 CURVE"
);
},
{
closed = 1;
nodes = (
"646 608 OFFCURVE",
"718 575 OFFCURVE",
"770 529 CURVE SMOOTH",
"822 483 OFFCURVE",
"854 424 OFFCURVE",
"854 345 CURVE SMOOTH",
"854 256 OFFCURVE",
"833 194 OFFCURVE",
"782 154 CURVE SMOOTH",
"731 113 OFFCURVE",
"651 96 OFFCURVE",
"567 96 CURVE SMOOTH",
"483 96 OFFCURVE",
"401 112 OFFCURVE",
"350 152 CURVE SMOOTH",
"299 191 OFFCURVE",
"282 251 OFFCURVE",
"282 343 CURVE SMOOTH",
"282 419 OFFCURVE",
"315 478 OFFCURVE",
"368 526 CURVE SMOOTH",
"420 573 OFFCURVE",
"491 607 OFFCURVE",
"567 635 CURVE"
);
},
{
closed = 1;
nodes = (
"642 1229 OFFCURVE",
"713 1218 OFFCURVE",
"756 1185 CURVE SMOOTH",
"799 1152 OFFCURVE",
"814 1100 OFFCURVE",
"814 1032 CURVE SMOOTH",
"814 968 OFFCURVE",
"790 919 OFFCURVE",
"747 879 CURVE SMOOTH",
"704 838 OFFCURVE",
"644 805 OFFCURVE",
"569 777 CURVE",
"494 805 OFFCURVE",
"434 836 OFFCURVE",
"391 877 CURVE SMOOTH",
"348 917 OFFCURVE",
"324 967 OFFCURVE",
"324 1030 CURVE SMOOTH",
"324 1098 OFFCURVE",
"339 1150 OFFCURVE",
"382 1183 CURVE SMOOTH",
"425 1218 OFFCURVE",
"495 1229 OFFCURVE",
"570 1229 CURVE SMOOTH"
);
}
);
width = 1137;
}
);
note = eight;
unicode = 0038;
},
{
color = 4;
glyphname = nine;
layers = (
{
layerId = "2F8B9CD4-7B7F-4ACC-ADF3-B6E0F7033A19";
paths = (
{
closed = 1;
nodes = (
"191 84 OFFCURVE",
"213 71 OFFCURVE",
"236 56 CURVE SMOOTH",
"259 41 OFFCURVE",
"285 27 OFFCURVE",
"314 14 CURVE SMOOTH",
"370 -12 OFFCURVE",
"440 -32 OFFCURVE",
"525 -32 CURVE SMOOTH",
"578 -32 OFFCURVE",
"625 -25 OFFCURVE",
"666 -12 CURVE SMOOTH",
"748 14 OFFCURVE",
"808 45 OFFCURVE",
"860 92 CURVE SMOOTH",
"889 120 OFFCURVE",
"914 162 OFFCURVE",
"937 218 CURVE SMOOTH",
"957 266 OFFCURVE",
"976 328 OFFCURVE",
"991 411 CURVE SMOOTH",
"1006 494 OFFCURVE",
"1015 596 OFFCURVE",
"1015 723 CURVE SMOOTH",
"1015 778 OFFCURVE",
"1013 827 OFFCURVE",
"1008 872 CURVE SMOOTH",
"999 960 OFFCURVE",
"983 1032 OFFCURVE",
"964 1086 CURVE SMOOTH",
"944 1140 OFFCURVE",
"914 1214 OFFCURVE",
"854 1261 CURVE",
"834 1278 OFFCURVE",
"809 1294 OFFCURVE",
"780 1307 CURVE SMOOTH",
"729 1330 OFFCURVE",
"655 1354 OFFCURVE",
"554 1354 CURVE SMOOTH",
"437 1354 OFFCURVE",
"352 1321 OFFCURVE",
"296 1289 CURVE SMOOTH",
"231 1252 OFFCURVE",
"191 1207 OFFCURVE",
"159 1143 CURVE SMOOTH",
"132 1087 OFFCURVE",
"105 1007 OFFCURVE",
"105 894 CURVE SMOOTH",
"105 827 OFFCURVE",
"114 771 OFFCURVE",
"129 724 CURVE SMOOTH",
"144 676 OFFCURVE",
"163 637 OFFCURVE",
"183 608 CURVE",
"228 537 OFFCURVE",
"276 507 OFFCURVE",
"324 487 CURVE SMOOTH",
"365 470 OFFCURVE",
"427 453 OFFCURVE",
"511 453 CURVE SMOOTH",
"632 453 OFFCURVE",
"755 500 OFFCURVE",
"844 601 CURVE",
"844 445 OFFCURVE",
"821 348 OFFCURVE",
"798 285 CURVE SMOOTH",
"771 212 OFFCURVE",
"740 181 OFFCURVE",
"695 154 CURVE SMOOTH",
"656 131 OFFCURVE",
"599 108 OFFCURVE",
"519 108 CURVE SMOOTH",
"475 108 OFFCURVE",
"436 113 OFFCURVE",
"402 124 CURVE SMOOTH",
"333 144 OFFCURVE",
"285 171 OFFCURVE",
"242 208 CURVE",
"172 96 LINE"
);
},
{
closed = 1;
nodes = (
"624 1223 OFFCURVE",
"675 1207 OFFCURVE",
"708 1192 CURVE SMOOTH",
"747 1173 OFFCURVE",
"774 1156 OFFCURVE",
"799 1096 CURVE SMOOTH",
"822 1045 OFFCURVE",
"843 958 OFFCURVE",
"843 811 CURVE",
"819 742 OFFCURVE",
"775 685 OFFCURVE",
"720 646 CURVE SMOOTH",
"665 606 OFFCURVE",
"600 584 OFFCURVE",
"532 584 CURVE SMOOTH",
"468 584 OFFCURVE",
"422 600 OFFCURVE",
"391 616 CURVE SMOOTH",
"355 635 OFFCURVE",
"329 657 OFFCURVE",
"306 702 CURVE SMOOTH",
"287 741 OFFCURVE",
"269 802 OFFCURVE",
"269 895 CURVE SMOOTH",
"269 939 OFFCURVE",
"272 975 OFFCURVE",
"277 1004 CURVE SMOOTH",
"287 1060 OFFCURVE",
"300 1097 OFFCURVE",
"320 1118 CURVE",
"332 1137 OFFCURVE",
"349 1155 OFFCURVE",
"370 1170 CURVE SMOOTH",
"406 1197 OFFCURVE",
"464 1223 OFFCURVE",
"552 1223 CURVE SMOOTH"
);
}
);
width = 1146;
}
);
note = nine;
unicode = 0039;
},
{
color = 4;
glyphname = onesuperior;
layers = (
{
layerId = "2F8B9CD4-7B7F-4ACC-ADF3-B6E0F7033A19";
paths = (
{
closed = 1;
nodes = (
"120 1075 OFFCURVE",
"148 1092 OFFCURVE",
"176 1110 CURVE SMOOTH",
"204 1128 OFFCURVE",
"233 1149 OFFCURVE",
"273 1178 CURVE",
"273 300 LINE",
"390 300 LINE",
"390 1312 LINE",
"293 1331 LINE",
"230 1274 OFFCURVE",
"183 1236 OFFCURVE",
"147 1209 CURVE SMOOTH",
"110 1182 OFFCURVE",
"81 1165 OFFCURVE",
"56 1152 CURVE",
"87 1056 LINE"
);
}
);
width = 561;
}
);
note = onesuperior;
unicode = 00B9;
},
{
color = 4;
glyphname = twosuperior;
layers = (
{
layerId = "2F8B9CD4-7B7F-4ACC-ADF3-B6E0F7033A19";
paths = (
{
closed = 1;
nodes = (
"219 1099 OFFCURVE",
"241 1150 OFFCURVE",
"282 1182 CURVE SMOOTH",
"325 1217 OFFCURVE",
"388 1229 OFFCURVE",
"451 1229 CURVE SMOOTH",
"518 1229 OFFCURVE",
"571 1209 OFFCURVE",
"599 1172 CURVE",
"626 1139 OFFCURVE",
"633 1091 OFFCURVE",
"633 1034 CURVE SMOOTH",
"633 969 OFFCURVE",
"609 923 OFFCURVE",
"569 883 CURVE SMOOTH",
"529 842 OFFCURVE",
"474 806 OFFCURVE",
"410 762 CURVE SMOOTH",
"334 707 OFFCURVE",
"266 658 OFFCURVE",
"215 588 CURVE SMOOTH",
"163 518 OFFCURVE",
"127 429 OFFCURVE",
"114 300 CURVE",
"768 300 LINE",
"768 411 LINE",
"242 411 LINE",
"258 471 OFFCURVE",
"284 517 OFFCURVE",
"323 559 CURVE SMOOTH",
"362 601 OFFCURVE",
"413 639 OFFCURVE",
"484 686 CURVE SMOOTH",
"552 730 OFFCURVE",
"621 771 OFFCURVE",
"673 824 CURVE SMOOTH",
"725 877 OFFCURVE",
"760 943 OFFCURVE",
"760 1038 CURVE SMOOTH",
"760 1115 OFFCURVE",
"742 1184 OFFCURVE",
"698 1236 CURVE SMOOTH",
"647 1296 OFFCURVE",
"560 1332 OFFCURVE",
"455 1332 CURVE SMOOTH",
"354 1332 OFFCURVE",
"268 1304 OFFCURVE",
"212 1255 CURVE SMOOTH",
"155 1204 OFFCURVE",
"129 1133 OFFCURVE",
"140 1064 CURVE",
"226 1035 LINE"
);
}
);
width = 901;
}
);
note = twosuperior;
unicode = 00B2;
},
{
color = 4;
glyphname = threesuperior;
layers = (
{
layerId = "2F8B9CD4-7B7F-4ACC-ADF3-B6E0F7033A19";
paths = (
{
closed = 1;
nodes = (
"226 1137 OFFCURVE",
"249 1174 OFFCURVE",
"281 1195 CURVE",
"324 1226 OFFCURVE",
"381 1234 OFFCURVE",
"445 1234 CURVE SMOOTH",
"493 1234 OFFCURVE",
"538 1222 OFFCURVE",
"567 1195 CURVE SMOOTH",
"600 1166 OFFCURVE",
"614 1119 OFFCURVE",
"614 1055 CURVE SMOOTH",
"614 991 OFFCURVE",
"588 949 OFFCURVE",
"548 922 CURVE SMOOTH",
"508 895 OFFCURVE",
"453 885 OFFCURVE",
"393 885 CURVE SMOOTH",
"304 885 LINE",
"304 787 LINE",
"388 787 OFFCURVE",
"469 785 OFFCURVE",
"529 759 CURVE SMOOTH",
"589 733 OFFCURVE",
"628 684 OFFCURVE",
"628 589 CURVE SMOOTH",
"628 526 OFFCURVE",
"622 473 OFFCURVE",
"591 438 CURVE",
"556 395 OFFCURVE",
"495 378 OFFCURVE",
"415 378 CURVE SMOOTH",
"351 378 OFFCURVE",
"291 387 OFFCURVE",
"252 423 CURVE SMOOTH",
"223 450 OFFCURVE",
"207 494 OFFCURVE",
"207 547 CURVE",
"109 510 LINE",
"106 446 OFFCURVE",
"130 391 OFFCURVE",
"171 354 CURVE SMOOTH",
"202 327 OFFCURVE",
"241 308 OFFCURVE",
"283 296 CURVE SMOOTH",
"325 284 OFFCURVE",
"370 279 OFFCURVE",
"414 279 CURVE SMOOTH",
"517 279 OFFCURVE",
"606 301 OFFCURVE",
"670 346 CURVE SMOOTH",
"745 401 OFFCURVE",
"779 488 OFFCURVE",
"779 592 CURVE SMOOTH",
"779 664 OFFCURVE",
"750 720 OFFCURVE",
"710 760 CURVE SMOOTH",
"669 800 OFFCURVE",
"614 825 OFFCURVE",
"562 834 CURVE",
"602 843 OFFCURVE",
"652 864 OFFCURVE",
"692 900 CURVE SMOOTH",
"731 936 OFFCURVE",
"760 988 OFFCURVE",
"760 1060 CURVE SMOOTH",
"760 1152 OFFCURVE",
"730 1224 OFFCURVE",
"663 1272 CURVE SMOOTH",
"607 1311 OFFCURVE",
"527 1334 OFFCURVE",
"443 1334 CURVE SMOOTH",
"372 1334 OFFCURVE",
"289 1322 OFFCURVE",
"224 1279 CURVE SMOOTH",
"172 1244 OFFCURVE",
"132 1192 OFFCURVE",
"120 1128 CURVE",
"214 1098 LINE"
);
}
);
width = 910;
}
);
note = threesuperior;
unicode = 00B3;
},
{
glyphname = foursuperior;
layers = (
{
layerId = "2F8B9CD4-7B7F-4ACC-ADF3-B6E0F7033A19";
paths = (
{
closed = 1;
nodes = (
"163 613 LINE",
"498 1159 LINE",
"498 613 LINE"
);
},
{
closed = 1;
nodes = (
"75 516 LINE",
"498 516 LINE",
"498 300 LINE",
"615 300 LINE",
"615 516 LINE",
"757 516 LINE",
"757 615 LINE",
"615 615 LINE",
"615 1295 LINE",
"478 1310 LINE",
"64 645 LINE"
);
}
);
width = 837;
}
);
note = foursuperior;
unicode = 2074;
},
{
color = 4;
glyphname = fraction;
layers = (
{
layerId = "2F8B9CD4-7B7F-4ACC-ADF3-B6E0F7033A19";
paths = (
{
closed = 1;
nodes = (
"107 -17 LINE",
"719 1627 LINE",
"615 1644 LINE",
"4 1 LINE"
);
}
);
width = 724;
}
);
note = fraction;
unicode = 2044;
},
{
color = 4;
glyphname = asterisk;
layers = (
{
layerId = "2F8B9CD4-7B7F-4ACC-ADF3-B6E0F7033A19";
paths = (
{
closed = 1;
nodes = (
"575 1076 LINE",
"862 1203 LINE",
"797 1323 LINE",
"539 1151 LINE",
"561 1447 LINE",
"428 1447 LINE",
"449 1151 LINE",
"186 1323 LINE",
"121 1204 LINE",
"418 1076 LINE",
"122 937 LINE",
"186 825 LINE",
"449 997 LINE",
"428 701 LINE",
"561 701 LINE",
"539 997 LINE",
"797 825 LINE",
"862 945 LINE"
);
}
);
width = 982;
}
);
note = asterisk;
unicode = 002A;
},
{
color = 4;
glyphname = backslash;
layers = (
{
layerId = "2F8B9CD4-7B7F-4ACC-ADF3-B6E0F7033A19";
paths = (
{
closed = 1;
nodes = (
"577 -92 LINE",
"206 1509 LINE",
"100 1479 LINE",
"468 -121 LINE"
);
}
);
width = 676;
}
);
note = backslash;
unicode = 005C;
},
{
color = 4;
glyphname = periodcentered;
layers = (
{
layerId = "2F8B9CD4-7B7F-4ACC-ADF3-B6E0F7033A19";
paths = (
{
closed = 1;
nodes = (
"352 697 LINE",
"352 918 LINE",
"141 918 LINE",
"141 697 LINE"
);
}
);
width = 494;
}
);
note = periodcentered;
unicode = 00B7;
},
{
color = 4;
glyphname = bullet;
layers = (
{
layerId = "2F8B9CD4-7B7F-4ACC-ADF3-B6E0F7033A19";
paths = (
{
closed = 1;
nodes = (
"103 532 OFFCURVE",
"139 453 OFFCURVE",
"198 396 CURVE SMOOTH",
"257 339 OFFCURVE",
"340 302 OFFCURVE",
"432 302 CURVE SMOOTH",
"519 302 OFFCURVE",
"598 335 OFFCURVE",
"657 390 CURVE SMOOTH",
"716 445 OFFCURVE",
"752 521 OFFCURVE",
"752 608 CURVE SMOOTH",
"752 692 OFFCURVE",
"715 771 OFFCURVE",
"656 828 CURVE SMOOTH",
"596 885 OFFCURVE",
"514 922 OFFCURVE",
"423 922 CURVE SMOOTH",
"335 922 OFFCURVE",
"256 886 OFFCURVE",
"198 830 CURVE SMOOTH",
"140 774 OFFCURVE",
"103 697 OFFCURVE",
"103 616 CURVE SMOOTH"
);
}
);
width = 855;
}
);
note = bullet;
unicode = 2022;
},
{
color = 4;
glyphname = colon;
layers = (
{
layerId = "2F8B9CD4-7B7F-4ACC-ADF3-B6E0F7033A19";
paths = (
{
closed = 1;
nodes = (
"353 242 LINE",
"353 463 LINE",
"142 463 LINE",
"142 242 LINE"
);
},
{
closed = 1;
nodes = (
"353 711 LINE",
"353 932 LINE",
"142 932 LINE",
"142 711 LINE"
);
}
);
width = 494;
}
);
note = colon;
unicode = 003A;
},
{
color = 4;
glyphname = comma;
layers = (
{
layerId = "2F8B9CD4-7B7F-4ACC-ADF3-B6E0F7033A19";
paths = (
{
closed = 1;
nodes = (
"227 -11 LINE",
"227 -29 OFFCURVE",
"224 -46 OFFCURVE",
"218 -62 CURVE SMOOTH",
"205 -94 OFFCURVE",
"186 -122 OFFCURVE",
"167 -145 CURVE",
"157 -156 OFFCURVE",
"149 -166 OFFCURVE",
"142 -174 CURVE",
"185 -235 LINE",
"205 -222 OFFCURVE",
"241 -196 OFFCURVE",
"272 -157 CURVE SMOOTH",
"303 -118 OFFCURVE",
"328 -67 OFFCURVE",
"328 -6 CURVE SMOOTH",
"328 185 LINE",
"148 185 LINE",
"148 -11 LINE"
);
}
);
width = 474;
}
);
note = comma;
unicode = 002C;
},
{
color = 4;
glyphname = ellipsis;
layers = (
{
layerId = "2F8B9CD4-7B7F-4ACC-ADF3-B6E0F7033A19";
paths = (
{
closed = 1;
nodes = (
"352 0 LINE",
"352 221 LINE",
"141 221 LINE",
"141 0 LINE"
);
},
{
closed = 1;
nodes = (
"1000 0 LINE",
"1000 221 LINE",
"789 221 LINE",
"789 0 LINE"
);
},
{
closed = 1;
nodes = (
"1648 0 LINE",
"1648 221 LINE",
"1437 221 LINE",
"1437 0 LINE"
);
}
);
width = 1790;
}
);
note = ellipsis;
unicode = 2026;
},
{
color = 4;
glyphname = exclam;
layers = (
{
layerId = "2F8B9CD4-7B7F-4ACC-ADF3-B6E0F7033A19";
paths = (
{
closed = 1;
nodes = (
"295 468 OFFCURVE",
"302 611 OFFCURVE",
"310 753 CURVE SMOOTH",
"317 895 OFFCURVE",
"324 1036 OFFCURVE",
"329 1171 CURVE",
"329 1366 LINE",
"167 1366 LINE",
"167 1171 LINE",
"174 1036 OFFCURVE",
"180 895 OFFCURVE",
"187 753 CURVE SMOOTH",
"194 611 OFFCURVE",
"200 468 OFFCURVE",
"207 335 CURVE",
"290 335 LINE"
);
},
{
closed = 1;
nodes = (
"354 0 LINE",
"354 221 LINE",
"143 221 LINE",
"143 0 LINE"
);
}
);
width = 496;
}
);
note = exclam;
unicode = 0021;
},
{
color = 4;
glyphname = numbersign;
layers = (
{
layerId = "2F8B9CD4-7B7F-4ACC-ADF3-B6E0F7033A19";
paths = (
{
closed = 1;
nodes = (
"307 996 LINE",
"258 698 LINE",
"137 698 LINE",
"130 566 LINE",
"236 566 LINE",
"185 287 LINE",
"325 287 LINE",
"375 566 LINE",
"495 566 LINE",
"443 287 LINE",
"582 287 LINE",
"632 566 LINE",
"807 566 LINE",
"807 698 LINE",
"653 698 LINE",
"703 996 LINE",
"824 996 LINE",
"824 1127 LINE",
"725 1127 LINE",
"777 1411 LINE",
"638 1411 LINE",
"586 1127 LINE",
"468 1127 LINE",
"520 1411 LINE",
"382 1411 LINE",
"330 1127 LINE",
"154 1127 LINE",
"148 996 LINE"
);
},
{
closed = 1;
nodes = (
"526 698 LINE",
"381 698 LINE",
"436 996 LINE",
"581 996 LINE"
);
}
);
width = 949;
}
);
note = numbersign;
unicode = 0023;
},
{
color = 4;
glyphname = period;
layers = (
{
layerId = "2F8B9CD4-7B7F-4ACC-ADF3-B6E0F7033A19";
paths = (
{
closed = 1;
nodes = (
"352 0 LINE",
"352 221 LINE",
"141 221 LINE",
"141 0 LINE"
);
}
);
width = 494;
}
);
note = period;
unicode = 002E;
},
{
color = 4;
glyphname = question;
layers = (
{
layerId = "2F8B9CD4-7B7F-4ACC-ADF3-B6E0F7033A19";
paths = (
{
closed = 1;
nodes = (
"179 1113 OFFCURVE",
"211 1139 OFFCURVE",
"236 1158 CURVE SMOOTH",
"265 1179 OFFCURVE",
"286 1191 OFFCURVE",
"315 1199 CURVE SMOOTH",
"340 1206 OFFCURVE",
"380 1213 OFFCURVE",
"443 1213 CURVE SMOOTH",
"506 1213 OFFCURVE",
"545 1201 OFFCURVE",
"572 1190 CURVE SMOOTH",
"603 1177 OFFCURVE",
"617 1162 OFFCURVE",
"630 1138 CURVE SMOOTH",
"641 1117 OFFCURVE",
"653 1086 OFFCURVE",
"653 1039 CURVE SMOOTH",
"653 1000 OFFCURVE",
"645 966 OFFCURVE",
"628 939 CURVE SMOOTH",
"595 883 OFFCURVE",
"543 840 OFFCURVE",
"485 800 CURVE SMOOTH",
"456 779 OFFCURVE",
"429 757 OFFCURVE",
"404 733 CURVE SMOOTH",
"354 684 OFFCURVE",
"316 623 OFFCURVE",
"316 534 CURVE SMOOTH",
"316 519 OFFCURVE",
"316 502 OFFCURVE",
"317 481 CURVE SMOOTH",
"318 439 OFFCURVE",
"321 398 OFFCURVE",
"325 350 CURVE",
"458 349 LINE",
"458 371 LINE SMOOTH",
"458 378 OFFCURVE",
"458 385 OFFCURVE",
"459 392 CURVE",
"459 414 LINE SMOOTH",
"459 447 OFFCURVE",
"460 476 OFFCURVE",
"461 499 CURVE SMOOTH",
"463 546 OFFCURVE",
"471 581 OFFCURVE",
"491 610 CURVE SMOOTH",
"510 638 OFFCURVE",
"546 666 OFFCURVE",
"587 698 CURVE SMOOTH",
"607 714 OFFCURVE",
"628 731 OFFCURVE",
"649 749 CURVE SMOOTH",
"691 784 OFFCURVE",
"732 824 OFFCURVE",
"763 871 CURVE SMOOTH",
"794 918 OFFCURVE",
"814 971 OFFCURVE",
"814 1032 CURVE SMOOTH",
"814 1069 OFFCURVE",
"810 1102 OFFCURVE",
"802 1131 CURVE SMOOTH",
"786 1188 OFFCURVE",
"766 1228 OFFCURVE",
"738 1263 CURVE",
"719 1282 OFFCURVE",
"696 1299 OFFCURVE",
"669 1314 CURVE SMOOTH",
"622 1341 OFFCURVE",
"552 1366 OFFCURVE",
"452 1366 CURVE SMOOTH",
"368 1366 OFFCURVE",
"307 1353 OFFCURVE",
"267 1340 CURVE SMOOTH",
"219 1325 OFFCURVE",
"190 1305 OFFCURVE",
"155 1278 CURVE SMOOTH",
"126 1254 OFFCURVE",
"91 1222 OFFCURVE",
"68 1179 CURVE",
"152 1077 LINE"
);
},
{
closed = 1;
nodes = (
"490 0 LINE",
"490 221 LINE",
"279 221 LINE",
"279 0 LINE"
);
}
);
width = 892;
}
);
note = question;
unicode = 003F;
},
{
color = 4;
glyphname = quotedbl;
layers = (
{
layerId = "2F8B9CD4-7B7F-4ACC-ADF3-B6E0F7033A19";
paths = (
{
closed = 1;
nodes = (
"468 1452 LINE",
"470 1260 LINE",
"501 952 LINE",
"630 952 LINE",
"661 1260 LINE",
"663 1452 LINE"
);
},
{
closed = 1;
nodes = (
"128 1452 LINE",
"132 1260 LINE",
"163 952 LINE",
"292 952 LINE",
"321 1260 LINE",
"325 1452 LINE"
);
}
);
width = 793;
}
);
note = quotedbl;
unicode = 0022;
},
{
color = 4;
glyphname = quotesingle;
layers = (
{
layerId = "2F8B9CD4-7B7F-4ACC-ADF3-B6E0F7033A19";
paths = (
{
closed = 1;
nodes = (
"130 1452 LINE",
"132 1260 LINE",
"163 952 LINE",
"292 952 LINE",
"323 1260 LINE",
"325 1452 LINE"
);
}
);
width = 455;
}
);
note = quotesingle;
unicode = 0027;
},
{
color = 4;
glyphname = semicolon;
layers = (
{
layerId = "2F8B9CD4-7B7F-4ACC-ADF3-B6E0F7033A19";
paths = (
{
closed = 1;
nodes = (
"352 711 LINE",
"352 932 LINE",
"141 932 LINE",
"141 711 LINE"
);
},
{
closed = 1;
nodes = (
"241 268 LINE",
"241 250 OFFCURVE",
"238 233 OFFCURVE",
"232 217 CURVE SMOOTH",
"219 185 OFFCURVE",
"200 157 OFFCURVE",
"181 134 CURVE",
"171 123 OFFCURVE",
"163 113 OFFCURVE",
"156 105 CURVE",
"199 44 LINE",
"219 57 OFFCURVE",
"255 83 OFFCURVE",
"286 122 CURVE SMOOTH",
"317 161 OFFCURVE",
"342 212 OFFCURVE",
"342 273 CURVE SMOOTH",
"342 464 LINE",
"162 464 LINE",
"162 268 LINE"
);
}
);
width = 494;
}
);
note = semicolon;
unicode = 003B;
},
{
color = 4;
glyphname = slash;
layers = (
{
layerId = "2F8B9CD4-7B7F-4ACC-ADF3-B6E0F7033A19";
paths = (
{
closed = 1;
nodes = (
"218 -177 LINE",
"616 1591 LINE",
"491 1614 LINE",
"95 -153 LINE"
);
}
);
width = 711;
}
);
note = slash;
unicode = 002F;
},
{
color = 4;
glyphname = underscore;
layers = (
{
layerId = "2F8B9CD4-7B7F-4ACC-ADF3-B6E0F7033A19";
paths = (
{
closed = 1;
nodes = (
"962 -22 LINE",
"123 -22 LINE",
"124 -126 LINE",
"961 -126 LINE"
);
}
);
width = 1085;
}
);
note = underscore;
unicode = 005F;
},
{
color = 4;
glyphname = braceleft;
layers = (
{
layerId = "2F8B9CD4-7B7F-4ACC-ADF3-B6E0F7033A19";
paths = (
{
closed = 1;
nodes = (
"258 670 OFFCURVE",
"295 702 OFFCURVE",
"326 746 CURVE",
"331 759 OFFCURVE",
"337 792 OFFCURVE",
"341 840 CURVE SMOOTH",
"344 887 OFFCURVE",
"346 946 OFFCURVE",
"349 1014 CURVE SMOOTH",
"353 1138 OFFCURVE",
"359 1241 OFFCURVE",
"380 1314 CURVE SMOOTH",
"401 1386 OFFCURVE",
"438 1428 OFFCURVE",
"503 1428 CURVE",
"478 1528 LINE",
"371 1528 OFFCURVE",
"309 1497 OFFCURVE",
"270 1430 CURVE SMOOTH",
"231 1363 OFFCURVE",
"217 1261 OFFCURVE",
"208 1121 CURVE SMOOTH",
"201 1008 OFFCURVE",
"196 887 OFFCURVE",
"173 770 CURVE",
"142 739 OFFCURVE",
"105 714 OFFCURVE",
"60 697 CURVE",
"60 581 LINE",
"105 564 OFFCURVE",
"142 539 OFFCURVE",
"173 508 CURVE",
"196 391 OFFCURVE",
"201 270 OFFCURVE",
"208 157 CURVE SMOOTH",
"217 17 OFFCURVE",
"231 -85 OFFCURVE",
"270 -152 CURVE SMOOTH",
"309 -219 OFFCURVE",
"371 -250 OFFCURVE",
"478 -250 CURVE",
"503 -150 LINE",
"438 -150 OFFCURVE",
"401 -108 OFFCURVE",
"380 -35 CURVE SMOOTH",
"359 37 OFFCURVE",
"353 140 OFFCURVE",
"349 264 CURVE SMOOTH",
"346 332 OFFCURVE",
"344 391 OFFCURVE",
"341 439 CURVE SMOOTH",
"337 486 OFFCURVE",
"331 519 OFFCURVE",
"326 532 CURVE",
"295 576 OFFCURVE",
"258 608 OFFCURVE",
"210 639 CURVE"
);
}
);
width = 573;
}
);
note = braceleft;
unicode = 007B;
},
{
color = 4;
glyphname = braceright;
layers = (
{
layerId = "2F8B9CD4-7B7F-4ACC-ADF3-B6E0F7033A19";
paths = (
{
closed = 1;
nodes = (
"316 608 OFFCURVE",
"279 576 OFFCURVE",
"248 532 CURVE",
"241 519 OFFCURVE",
"237 486 OFFCURVE",
"234 439 CURVE SMOOTH",
"230 391 OFFCURVE",
"226 332 OFFCURVE",
"225 264 CURVE SMOOTH",
"221 140 OFFCURVE",
"215 37 OFFCURVE",
"194 -35 CURVE SMOOTH",
"173 -108 OFFCURVE",
"136 -150 OFFCURVE",
"71 -150 CURVE",
"96 -250 LINE",
"201 -250 OFFCURVE",
"265 -219 OFFCURVE",
"304 -152 CURVE SMOOTH",
"343 -85 OFFCURVE",
"357 17 OFFCURVE",
"366 157 CURVE SMOOTH",
"373 270 OFFCURVE",
"378 391 OFFCURVE",
"401 508 CURVE",
"432 539 OFFCURVE",
"469 564 OFFCURVE",
"514 581 CURVE",
"514 697 LINE",
"469 714 OFFCURVE",
"432 739 OFFCURVE",
"401 770 CURVE",
"378 887 OFFCURVE",
"373 1008 OFFCURVE",
"366 1121 CURVE SMOOTH",
"357 1261 OFFCURVE",
"343 1363 OFFCURVE",
"304 1430 CURVE SMOOTH",
"265 1497 OFFCURVE",
"201 1528 OFFCURVE",
"96 1528 CURVE",
"71 1428 LINE",
"136 1428 OFFCURVE",
"173 1386 OFFCURVE",
"194 1314 CURVE SMOOTH",
"215 1241 OFFCURVE",
"221 1138 OFFCURVE",
"225 1014 CURVE SMOOTH",
"226 946 OFFCURVE",
"230 887 OFFCURVE",
"234 840 CURVE SMOOTH",
"237 792 OFFCURVE",
"241 759 OFFCURVE",
"248 746 CURVE",
"279 702 OFFCURVE",
"316 670 OFFCURVE",
"364 639 CURVE"
);
}
);
width = 574;
}
);
note = braceright;
unicode = 007D;
},
{
color = 4;
glyphname = bracketleft;
layers = (
{
layerId = "2F8B9CD4-7B7F-4ACC-ADF3-B6E0F7033A19";
paths = (
{
closed = 1;
nodes = (
"552 -218 LINE",
"552 -113 LINE",
"307 -113 LINE",
"325 138 LINE",
"325 1195 LINE",
"307 1412 LINE",
"552 1412 LINE",
"552 1519 LINE",
"164 1519 LINE",
"164 -218 LINE"
);
}
);
width = 621;
}
);
note = bracketleft;
unicode = 005B;
},
{
color = 4;
glyphname = bracketright;
layers = (
{
layerId = "2F8B9CD4-7B7F-4ACC-ADF3-B6E0F7033A19";
paths = (
{
closed = 1;
nodes = (
"312 1413 LINE",
"295 1185 LINE",
"295 149 LINE",
"312 -113 LINE",
"68 -113 LINE",
"68 -218 LINE",
"455 -218 LINE",
"455 1520 LINE",
"68 1520 LINE",
"68 1413 LINE"
);
}
);
width = 619;
}
);
note = bracketright;
unicode = 005D;
},
{
color = 4;
glyphname = parenleft;
layers = (
{
layerId = "2F8B9CD4-7B7F-4ACC-ADF3-B6E0F7033A19";
paths = (
{
closed = 1;
nodes = (
"91 562 OFFCURVE",
"98 475 OFFCURVE",
"114 387 CURVE SMOOTH",
"129 299 OFFCURVE",
"153 208 OFFCURVE",
"188 123 CURVE SMOOTH",
"249 -26 OFFCURVE",
"348 -151 OFFCURVE",
"484 -264 CURVE",
"523 -148 LINE",
"404 -11 OFFCURVE",
"337 135 OFFCURVE",
"300 272 CURVE SMOOTH",
"263 408 OFFCURVE",
"255 535 OFFCURVE",
"255 638 CURVE SMOOTH",
"255 741 OFFCURVE",
"263 868 OFFCURVE",
"300 1005 CURVE SMOOTH",
"337 1141 OFFCURVE",
"404 1287 OFFCURVE",
"523 1424 CURVE",
"484 1540 LINE",
"348 1427 OFFCURVE",
"249 1302 OFFCURVE",
"188 1153 CURVE SMOOTH",
"153 1068 OFFCURVE",
"129 977 OFFCURVE",
"114 889 CURVE SMOOTH",
"98 801 OFFCURVE",
"91 714 OFFCURVE",
"91 638 CURVE SMOOTH"
);
}
);
width = 586;
}
);
note = parenleft;
unicode = 0028;
},
{
color = 4;
glyphname = parenright;
layers = (
{
layerId = "2F8B9CD4-7B7F-4ACC-ADF3-B6E0F7033A19";
paths = (
{
closed = 1;
nodes = (
"330 532 OFFCURVE",
"322 407 OFFCURVE",
"285 272 CURVE SMOOTH",
"248 137 OFFCURVE",
"181 -6 OFFCURVE",
"62 -143 CURVE",
"100 -260 LINE",
"236 -147 OFFCURVE",
"335 -21 OFFCURVE",
"396 128 CURVE SMOOTH",
"467 299 OFFCURVE",
"493 480 OFFCURVE",
"493 635 CURVE SMOOTH",
"493 790 OFFCURVE",
"467 971 OFFCURVE",
"396 1142 CURVE SMOOTH",
"335 1291 OFFCURVE",
"236 1417 OFFCURVE",
"100 1530 CURVE",
"62 1413 LINE",
"181 1276 OFFCURVE",
"248 1133 OFFCURVE",
"285 998 CURVE SMOOTH",
"322 863 OFFCURVE",
"330 736 OFFCURVE",
"330 635 CURVE SMOOTH"
);
}
);
width = 584;
}
);
note = parenright;
unicode = 0029;
},
{
color = 4;
glyphname = emdash;
layers = (
{
layerId = "2F8B9CD4-7B7F-4ACC-ADF3-B6E0F7033A19";
paths = (
{
closed = 1;
nodes = (
"1037 684 LINE",
"123 684 LINE",
"123 575 LINE",
"1037 575 LINE"
);
}
);
width = 1160;
}
);
note = emdash;
unicode = 2014;
},
{
color = 4;
glyphname = endash;
layers = (
{
layerId = "2F8B9CD4-7B7F-4ACC-ADF3-B6E0F7033A19";
paths = (
{
closed = 1;
nodes = (
"852 684 LINE",
"123 684 LINE",
"123 575 LINE",
"852 575 LINE"
);
}
);
width = 974;
}
);
note = endash;
unicode = 2013;
},
{
color = 4;
glyphname = hyphen;
layers = (
{
layerId = "2F8B9CD4-7B7F-4ACC-ADF3-B6E0F7033A19";
paths = (
{
closed = 1;
nodes = (
"700 474 LINE",
"700 605 LINE",
"141 605 LINE",
"141 474 LINE"
);
}
);
width = 841;
}
);
note = hyphen;
unicode = 002D;
},
{
glyphname = guillemetleft;
layers = (
{
layerId = "2F8B9CD4-7B7F-4ACC-ADF3-B6E0F7033A19";
paths = (
{
closed = 1;
nodes = (
"549 1020 LINE",
"445 1112 LINE",
"58 721 LINE",
"445 330 LINE",
"549 420 LINE",
"226 721 LINE"
);
},
{
closed = 1;
nodes = (
"986 1020 LINE",
"885 1112 LINE",
"496 721 LINE",
"885 330 LINE",
"986 420 LINE",
"664 721 LINE"
);
}
);
width = 1100;
}
);
note = guillemotleft;
unicode = 00AB;
},
{
glyphname = guillemetright;
layers = (
{
layerId = "2F8B9CD4-7B7F-4ACC-ADF3-B6E0F7033A19";
paths = (
{
closed = 1;
nodes = (
"1042 721 LINE",
"655 1112 LINE",
"551 1020 LINE",
"874 721 LINE",
"551 420 LINE",
"655 330 LINE"
);
},
{
closed = 1;
nodes = (
"604 721 LINE",
"215 1112 LINE",
"114 1020 LINE",
"436 721 LINE",
"114 420 LINE",
"215 330 LINE"
);
}
);
width = 1100;
}
);
note = guillemotright;
unicode = 00BB;
},
{
color = 4;
glyphname = guilsinglleft;
layers = (
{
layerId = "2F8B9CD4-7B7F-4ACC-ADF3-B6E0F7033A19";
paths = (
{
closed = 1;
nodes = (
"80 609 LINE",
"398 218 LINE",
"539 286 LINE",
"241 662 LINE",
"539 1038 LINE",
"398 1106 LINE",
"80 715 LINE"
);
}
);
width = 642;
}
);
note = guilsinglleft;
unicode = 2039;
},
{
color = 4;
glyphname = guilsinglright;
layers = (
{
layerId = "2F8B9CD4-7B7F-4ACC-ADF3-B6E0F7033A19";
paths = (
{
closed = 1;
nodes = (
"102 1038 LINE",
"400 662 LINE",
"102 286 LINE",
"243 218 LINE",
"561 609 LINE",
"561 715 LINE",
"243 1106 LINE"
);
}
);
width = 642;
}
);
note = guilsinglright;
unicode = 203A;
},
{
color = 4;
glyphname = quotedblbase;
layers = (
{
layerId = "2F8B9CD4-7B7F-4ACC-ADF3-B6E0F7033A19";
paths = (
{
closed = 1;
nodes = (
"501 -1 LINE",
"501 -19 OFFCURVE",
"498 -36 OFFCURVE",
"492 -52 CURVE SMOOTH",
"479 -84 OFFCURVE",
"460 -112 OFFCURVE",
"441 -135 CURVE",
"431 -146 OFFCURVE",
"423 -156 OFFCURVE",
"416 -164 CURVE",
"459 -225 LINE",
"479 -212 OFFCURVE",
"515 -186 OFFCURVE",
"546 -147 CURVE SMOOTH",
"577 -108 OFFCURVE",
"602 -57 OFFCURVE",
"602 4 CURVE SMOOTH",
"602 195 LINE",
"422 195 LINE",
"422 -1 LINE"
);
},
{
closed = 1;
nodes = (
"223 -1 LINE",
"223 -19 OFFCURVE",
"220 -36 OFFCURVE",
"214 -52 CURVE SMOOTH",
"201 -84 OFFCURVE",
"182 -112 OFFCURVE",
"163 -135 CURVE",
"153 -146 OFFCURVE",
"145 -156 OFFCURVE",
"138 -164 CURVE",
"181 -225 LINE",
"201 -212 OFFCURVE",
"237 -186 OFFCURVE",
"268 -147 CURVE SMOOTH",
"299 -108 OFFCURVE",
"324 -57 OFFCURVE",
"324 4 CURVE SMOOTH",
"324 195 LINE",
"144 195 LINE",
"144 -1 LINE"
);
}
);
width = 745;
}
);
note = quotedblbase;
unicode = 201E;
},
{
color = 4;
glyphname = quotedblleft;
layers = (
{
layerId = "2F8B9CD4-7B7F-4ACC-ADF3-B6E0F7033A19";
paths = (
{
closed = 1;
nodes = (
"311 1036 LINE",
"311 1231 LINE",
"229 1231 LINE",
"229 1254 OFFCURVE",
"232 1274 OFFCURVE",
"237 1290 CURVE SMOOTH",
"247 1322 OFFCURVE",
"260 1344 OFFCURVE",
"275 1361 CURVE",
"282 1370 OFFCURVE",
"289 1378 OFFCURVE",
"295 1387 CURVE",
"243 1439 LINE",
"220 1423 OFFCURVE",
"191 1393 OFFCURVE",
"168 1350 CURVE SMOOTH",
"144 1307 OFFCURVE",
"126 1250 OFFCURVE",
"126 1181 CURVE",
"134 1036 LINE"
);
},
{
closed = 1;
nodes = (
"616 1036 LINE",
"616 1230 LINE",
"538 1230 LINE",
"539 1253 OFFCURVE",
"542 1273 OFFCURVE",
"547 1290 CURVE SMOOTH",
"557 1323 OFFCURVE",
"571 1347 OFFCURVE",
"585 1364 CURVE SMOOTH",
"592 1373 OFFCURVE",
"597 1381 OFFCURVE",
"602 1388 CURVE",
"552 1439 LINE",
"529 1420 OFFCURVE",
"499 1390 OFFCURVE",
"475 1348 CURVE SMOOTH",
"451 1306 OFFCURVE",
"432 1251 OFFCURVE",
"432 1184 CURVE",
"440 1036 LINE"
);
}
);
width = 746;
}
);
note = quotedblleft;
unicode = 201C;
},
{
color = 4;
glyphname = quotedblright;
layers = (
{
layerId = "2F8B9CD4-7B7F-4ACC-ADF3-B6E0F7033A19";
paths = (
{
closed = 1;
nodes = (
"427 1440 LINE",
"427 1245 LINE",
"509 1245 LINE",
"509 1222 OFFCURVE",
"507 1202 OFFCURVE",
"502 1186 CURVE SMOOTH",
"492 1154 OFFCURVE",
"478 1132 OFFCURVE",
"463 1115 CURVE",
"456 1106 OFFCURVE",
"449 1098 OFFCURVE",
"443 1089 CURVE",
"495 1037 LINE",
"518 1053 OFFCURVE",
"547 1083 OFFCURVE",
"571 1126 CURVE SMOOTH",
"594 1169 OFFCURVE",
"612 1224 OFFCURVE",
"612 1295 CURVE",
"604 1440 LINE"
);
},
{
closed = 1;
nodes = (
"122 1440 LINE",
"122 1246 LINE",
"200 1246 LINE",
"199 1223 OFFCURVE",
"197 1203 OFFCURVE",
"192 1186 CURVE SMOOTH",
"182 1153 OFFCURVE",
"168 1129 OFFCURVE",
"154 1112 CURVE SMOOTH",
"147 1103 OFFCURVE",
"141 1095 OFFCURVE",
"136 1088 CURVE",
"186 1037 LINE",
"209 1056 OFFCURVE",
"239 1087 OFFCURVE",
"263 1129 CURVE SMOOTH",
"287 1171 OFFCURVE",
"306 1225 OFFCURVE",
"306 1292 CURVE",
"298 1440 LINE"
);
}
);
width = 723;
}
);
note = quotedblright;
unicode = 201D;
},
{
color = 4;
glyphname = quoteleft;
layers = (
{
layerId = "2F8B9CD4-7B7F-4ACC-ADF3-B6E0F7033A19";
paths = (
{
closed = 1;
nodes = (
"310 1033 LINE",
"310 1230 LINE",
"228 1230 LINE",
"229 1254 OFFCURVE",
"231 1274 OFFCURVE",
"236 1290 CURVE SMOOTH",
"245 1322 OFFCURVE",
"260 1344 OFFCURVE",
"275 1361 CURVE SMOOTH",
"282 1369 OFFCURVE",
"289 1377 OFFCURVE",
"294 1386 CURVE",
"244 1439 LINE",
"221 1422 OFFCURVE",
"192 1393 OFFCURVE",
"169 1351 CURVE SMOOTH",
"145 1309 OFFCURVE",
"127 1252 OFFCURVE",
"127 1183 CURVE",
"135 1033 LINE"
);
}
);
width = 440;
}
);
note = quoteleft;
unicode = 2018;
},
{
color = 4;
glyphname = quoteright;
layers = (
{
layerId = "2F8B9CD4-7B7F-4ACC-ADF3-B6E0F7033A19";
paths = (
{
closed = 1;
nodes = (
"121 1440 LINE",
"121 1243 LINE",
"203 1243 LINE",
"202 1219 OFFCURVE",
"200 1199 OFFCURVE",
"195 1183 CURVE SMOOTH",
"186 1151 OFFCURVE",
"171 1129 OFFCURVE",
"156 1113 CURVE",
"149 1104 OFFCURVE",
"142 1096 OFFCURVE",
"137 1087 CURVE",
"187 1034 LINE",
"210 1051 OFFCURVE",
"239 1081 OFFCURVE",
"263 1123 CURVE SMOOTH",
"286 1165 OFFCURVE",
"304 1221 OFFCURVE",
"304 1290 CURVE",
"296 1440 LINE"
);
}
);
width = 414;
}
);
note = quoteright;
unicode = 2019;
},
{
color = 4;
glyphname = quotesinglbase;
layers = (
{
layerId = "2F8B9CD4-7B7F-4ACC-ADF3-B6E0F7033A19";
paths = (
{
closed = 1;
nodes = (
"223 -1 LINE",
"223 -19 OFFCURVE",
"220 -36 OFFCURVE",
"214 -52 CURVE SMOOTH",
"201 -84 OFFCURVE",
"182 -112 OFFCURVE",
"163 -135 CURVE",
"153 -146 OFFCURVE",
"145 -156 OFFCURVE",
"138 -164 CURVE",
"181 -225 LINE",
"201 -212 OFFCURVE",
"237 -186 OFFCURVE",
"268 -147 CURVE SMOOTH",
"299 -108 OFFCURVE",
"324 -57 OFFCURVE",
"324 4 CURVE SMOOTH",
"324 195 LINE",
"144 195 LINE",
"144 -1 LINE"
);
}
);
width = 467;
}
);
note = quotesinglbase;
unicode = 201A;
},
{
color = 4;
glyphname = cent;
layers = (
{
layerId = "2F8B9CD4-7B7F-4ACC-ADF3-B6E0F7033A19";
paths = (
{
closed = 1;
nodes = (
"600 -21 LINE",
"680 -16 OFFCURVE",
"739 1 OFFCURVE",
"783 20 CURVE SMOOTH",
"826 39 OFFCURVE",
"851 58 OFFCURVE",
"866 73 CURVE SMOOTH",
"879 86 OFFCURVE",
"896 104 OFFCURVE",
"912 135 CURVE SMOOTH",
"927 166 OFFCURVE",
"938 208 OFFCURVE",
"945 269 CURVE",
"824 304 LINE",
"816 256 OFFCURVE",
"807 224 OFFCURVE",
"799 203 CURVE SMOOTH",
"791 182 OFFCURVE",
"783 170 OFFCURVE",
"775 162 CURVE",
"751 135 OFFCURVE",
"701 106 OFFCURVE",
"600 98 CURVE",
"600 908 LINE",
"697 900 OFFCURVE",
"743 870 OFFCURVE",
"766 846 CURVE",
"773 838 OFFCURVE",
"781 826 OFFCURVE",
"789 805 CURVE SMOOTH",
"797 784 OFFCURVE",
"805 752 OFFCURVE",
"813 704 CURVE",
"939 739 LINE",
"932 802 OFFCURVE",
"919 844 OFFCURVE",
"904 875 CURVE SMOOTH",
"889 906 OFFCURVE",
"873 925 OFFCURVE",
"860 938 CURVE",
"845 951 OFFCURVE",
"821 973 OFFCURVE",
"779 992 CURVE SMOOTH",
"737 1011 OFFCURVE",
"679 1028 OFFCURVE",
"600 1033 CURVE",
"600 1328 LINE",
"511 1316 LINE",
"511 1034 LINE",
"419 1030 OFFCURVE",
"347 1010 OFFCURVE",
"294 986 CURVE SMOOTH",
"241 962 OFFCURVE",
"206 934 OFFCURVE",
"186 911 CURVE SMOOTH",
"165 887 OFFCURVE",
"138 850 OFFCURVE",
"117 787 CURVE SMOOTH",
"96 724 OFFCURVE",
"80 636 OFFCURVE",
"80 509 CURVE SMOOTH",
"80 380 OFFCURVE",
"96 290 OFFCURVE",
"117 226 CURVE SMOOTH",
"137 162 OFFCURVE",
"164 124 OFFCURVE",
"185 100 CURVE SMOOTH",
"205 77 OFFCURVE",
"240 48 OFFCURVE",
"293 24 CURVE SMOOTH",
"346 0 OFFCURVE",
"418 -18 OFFCURVE",
"511 -22 CURVE",
"511 -376 LINE",
"600 -364 LINE"
);
},
{
closed = 1;
nodes = (
"284 192 OFFCURVE",
"269 217 OFFCURVE",
"257 266 CURVE SMOOTH",
"245 315 OFFCURVE",
"236 390 OFFCURVE",
"236 507 CURVE SMOOTH",
"236 620 OFFCURVE",
"244 693 OFFCURVE",
"256 741 CURVE SMOOTH",
"267 789 OFFCURVE",
"282 814 OFFCURVE",
"295 831 CURVE SMOOTH",
"307 847 OFFCURVE",
"326 865 OFFCURVE",
"360 880 CURVE SMOOTH",
"394 895 OFFCURVE",
"440 906 OFFCURVE",
"511 909 CURVE",
"511 97 LINE",
"443 100 OFFCURVE",
"397 111 OFFCURVE",
"364 126 CURVE SMOOTH",
"331 141 OFFCURVE",
"312 159 OFFCURVE",
"299 175 CURVE"
);
}
);
width = 1028;
}
);
note = cent;
unicode = 00A2;
},
{
glyphname = currency;
layers = (
{
layerId = "2F8B9CD4-7B7F-4ACC-ADF3-B6E0F7033A19";
paths = (
{
closed = 1;
nodes = (
"520 1217 OFFCURVE",
"441 1194 OFFCURVE",
"385 1157 CURVE",
"374 1168 OFFCURVE",
"362 1180 OFFCURVE",
"348 1195 CURVE SMOOTH",
"334 1210 OFFCURVE",
"320 1224 OFFCURVE",
"307 1237 CURVE SMOOTH",
"260 1284 LINE",
"150 1176 LINE",
"276 1047 LINE",
"237 971 OFFCURVE",
"219 881 OFFCURVE",
"219 793 CURVE SMOOTH",
"219 714 OFFCURVE",
"233 638 OFFCURVE",
"264 567 CURVE",
"150 451 LINE",
"260 344 LINE",
"360 444 LINE",
"420 399 OFFCURVE",
"505 375 OFFCURVE",
"621 375 CURVE SMOOTH",
"737 375 OFFCURVE",
"822 399 OFFCURVE",
"882 444 CURVE",
"982 344 LINE",
"1092 451 LINE",
"978 567 LINE",
"1009 638 OFFCURVE",
"1023 714 OFFCURVE",
"1023 793 CURVE SMOOTH",
"1023 881 OFFCURVE",
"1005 971 OFFCURVE",
"966 1047 CURVE",
"1092 1176 LINE",
"982 1284 LINE",
"935 1237 LINE SMOOTH",
"908 1210 OFFCURVE",
"877 1178 OFFCURVE",
"857 1157 CURVE",
"801 1194 OFFCURVE",
"722 1217 OFFCURVE",
"621 1217 CURVE SMOOTH"
);
},
{
closed = 1;
nodes = (
"501 500 OFFCURVE",
"442 533 OFFCURVE",
"406 596 CURVE SMOOTH",
"387 628 OFFCURVE",
"377 663 OFFCURVE",
"372 698 CURVE SMOOTH",
"367 733 OFFCURVE",
"366 766 OFFCURVE",
"366 793 CURVE SMOOTH",
"366 825 OFFCURVE",
"365 864 OFFCURVE",
"373 905 CURVE SMOOTH",
"380 945 OFFCURVE",
"394 985 OFFCURVE",
"422 1020 CURVE SMOOTH",
"461 1067 OFFCURVE",
"521 1092 OFFCURVE",
"621 1092 CURVE SMOOTH",
"721 1092 OFFCURVE",
"781 1067 OFFCURVE",
"820 1020 CURVE SMOOTH",
"848 985 OFFCURVE",
"862 945 OFFCURVE",
"870 905 CURVE SMOOTH",
"877 864 OFFCURVE",
"876 825 OFFCURVE",
"876 793 CURVE SMOOTH",
"876 766 OFFCURVE",
"875 733 OFFCURVE",
"870 698 CURVE SMOOTH",
"865 663 OFFCURVE",
"855 628 OFFCURVE",
"836 596 CURVE SMOOTH",
"800 533 OFFCURVE",
"741 500 OFFCURVE",
"621 500 CURVE SMOOTH"
);
}
);
width = 1242;
}
);
note = currency;
unicode = 00A4;
},
{
color = 4;
glyphname = dollar;
layers = (
{
layerId = "2F8B9CD4-7B7F-4ACC-ADF3-B6E0F7033A19";
paths = (
{
closed = 1;
nodes = (
"550 -1 LINE",
"711 -1 OFFCURVE",
"825 34 OFFCURVE",
"898 97 CURVE SMOOTH",
"970 160 OFFCURVE",
"1002 251 OFFCURVE",
"1002 363 CURVE SMOOTH",
"1002 468 OFFCURVE",
"982 538 OFFCURVE",
"939 590 CURVE SMOOTH",
"895 642 OFFCURVE",
"829 674 OFFCURVE",
"738 705 CURVE SMOOTH",
"620 745 LINE",
"666 1220 LINE",
"731 1207 OFFCURVE",
"789 1187 OFFCURVE",
"833 1169 CURVE SMOOTH",
"877 1151 OFFCURVE",
"908 1134 OFFCURVE",
"919 1126 CURVE",
"919 1268 LINE",
"913 1271 OFFCURVE",
"903 1275 OFFCURVE",
"889 1282 CURVE SMOOTH",
"875 1289 OFFCURVE",
"858 1296 OFFCURVE",
"838 1305 CURVE",
"797 1321 OFFCURVE",
"742 1340 OFFCURVE",
"678 1352 CURVE",
"696 1537 LINE",
"590 1537 LINE",
"573 1366 LINE",
"556 1367 OFFCURVE",
"540 1368 OFFCURVE",
"521 1368 CURVE SMOOTH",
"392 1368 OFFCURVE",
"288 1346 OFFCURVE",
"216 1292 CURVE SMOOTH",
"144 1238 OFFCURVE",
"104 1152 OFFCURVE",
"104 1024 CURVE SMOOTH",
"104 936 OFFCURVE",
"123 873 OFFCURVE",
"163 823 CURVE SMOOTH",
"203 773 OFFCURVE",
"263 735 OFFCURVE",
"346 702 CURVE",
"505 647 LINE",
"457 141 LINE",
"421 148 OFFCURVE",
"386 157 OFFCURVE",
"353 169 CURVE SMOOTH",
"285 193 OFFCURVE",
"230 220 OFFCURVE",
"194 243 CURVE",
"175 254 OFFCURVE",
"163 263 OFFCURVE",
"157 268 CURVE",
"157 123 LINE",
"172 114 OFFCURVE",
"207 91 OFFCURVE",
"256 67 CURVE SMOOTH",
"305 43 OFFCURVE",
"369 19 OFFCURVE",
"444 7 CURVE",
"429 -156 LINE",
"535 -156 LINE"
);
},
{
closed = 1;
nodes = (
"530 1236 OFFCURVE",
"545 1235 OFFCURVE",
"561 1234 CURVE",
"518 780 LINE",
"444 806 LINE",
"372 835 OFFCURVE",
"324 858 OFFCURVE",
"293 890 CURVE SMOOTH",
"262 922 OFFCURVE",
"250 964 OFFCURVE",
"250 1031 CURVE SMOOTH",
"250 1112 OFFCURVE",
"273 1163 OFFCURVE",
"317 1194 CURVE SMOOTH",
"361 1225 OFFCURVE",
"427 1236 OFFCURVE",
"514 1236 CURVE SMOOTH"
);
},
{
closed = 1;
nodes = (
"854 293 OFFCURVE",
"837 237 OFFCURVE",
"791 197 CURVE SMOOTH",
"745 157 OFFCURVE",
"671 133 OFFCURVE",
"562 132 CURVE",
"608 612 LINE",
"639 602 LINE SMOOTH",
"715 578 OFFCURVE",
"769 556 OFFCURVE",
"804 521 CURVE SMOOTH",
"839 486 OFFCURVE",
"854 438 OFFCURVE",
"854 361 CURVE SMOOTH"
);
}
);
width = 1088;
}
);
note = dollar;
unicode = 0024;
},
{
glyphname = euro;
layers = (
{
layerId = "2F8B9CD4-7B7F-4ACC-ADF3-B6E0F7033A19";
paths = (
{
closed = 1;
nodes = (
"818 876 LINE",
"360 876 LINE",
"369 972 OFFCURVE",
"390 1044 OFFCURVE",
"412 1099 CURVE SMOOTH",
"434 1154 OFFCURVE",
"459 1190 OFFCURVE",
"482 1211 CURVE",
"502 1231 OFFCURVE",
"537 1259 OFFCURVE",
"589 1282 CURVE SMOOTH",
"641 1305 OFFCURVE",
"710 1322 OFFCURVE",
"801 1322 CURVE SMOOTH",
"841 1322 OFFCURVE",
"876 1320 OFFCURVE",
"907 1315 CURVE SMOOTH",
"967 1306 OFFCURVE",
"1011 1293 OFFCURVE",
"1037 1281 CURVE SMOOTH",
"1050 1275 OFFCURVE",
"1058 1271 OFFCURVE",
"1063 1269 CURVE",
"1106 1248 OFFCURVE",
"1151 1192 OFFCURVE",
"1178 1100 CURVE",
"1314 1155 LINE",
"1307 1183 OFFCURVE",
"1299 1208 OFFCURVE",
"1289 1231 CURVE SMOOTH",
"1269 1275 OFFCURVE",
"1247 1308 OFFCURVE",
"1225 1332 CURVE SMOOTH",
"1203 1355 OFFCURVE",
"1195 1364 OFFCURVE",
"1155 1389 CURVE SMOOTH",
"1135 1402 OFFCURVE",
"1109 1414 OFFCURVE",
"1076 1427 CURVE SMOOTH",
"1010 1451 OFFCURVE",
"918 1472 OFFCURVE",
"798 1472 CURVE SMOOTH",
"671 1472 OFFCURVE",
"570 1444 OFFCURVE",
"494 1408 CURVE SMOOTH",
"417 1371 OFFCURVE",
"363 1325 OFFCURVE",
"334 1289 CURVE SMOOTH",
"309 1260 OFFCURVE",
"277 1214 OFFCURVE",
"249 1147 CURVE SMOOTH",
"220 1079 OFFCURVE",
"194 991 OFFCURVE",
"181 876 CURVE",
"85 876 LINE",
"85 767 LINE",
"173 767 LINE",
"172 756 OFFCURVE",
"172 744 OFFCURVE",
"172 733 CURVE SMOOTH",
"172 722 OFFCURVE",
"172 710 OFFCURVE",
"172 699 CURVE SMOOTH",
"172 686 OFFCURVE",
"172 674 OFFCURVE",
"172 662 CURVE SMOOTH",
"172 650 OFFCURVE",
"173 638 OFFCURVE",
"174 626 CURVE",
"85 626 LINE",
"85 515 LINE",
"185 515 LINE",
"212 326 OFFCURVE",
"277 189 OFFCURVE",
"350 118 CURVE SMOOTH",
"377 91 OFFCURVE",
"425 52 OFFCURVE",
"499 20 CURVE SMOOTH",
"573 -13 OFFCURVE",
"670 -39 OFFCURVE",
"797 -39 CURVE SMOOTH",
"854 -39 OFFCURVE",
"905 -35 OFFCURVE",
"950 -27 CURVE SMOOTH",
"1038 -11 OFFCURVE",
"1101 11 OFFCURVE",
"1140 32 CURVE SMOOTH",
"1159 42 OFFCURVE",
"1173 50 OFFCURVE",
"1180 55 CURVE SMOOTH",
"1197 67 OFFCURVE",
"1224 88 OFFCURVE",
"1250 124 CURVE SMOOTH",
"1276 159 OFFCURVE",
"1302 209 OFFCURVE",
"1319 277 CURVE",
"1189 336 LINE",
"1174 285 OFFCURVE",
"1154 249 OFFCURVE",
"1135 225 CURVE SMOOTH",
"1116 200 OFFCURVE",
"1099 185 OFFCURVE",
"1091 180 CURVE",
"1075 168 OFFCURVE",
"1044 151 OFFCURVE",
"996 136 CURVE SMOOTH",
"947 121 OFFCURVE",
"881 110 OFFCURVE",
"797 110 CURVE SMOOTH",
"714 110 OFFCURVE",
"644 125 OFFCURVE",
"588 148 CURVE SMOOTH",
"531 171 OFFCURVE",
"487 202 OFFCURVE",
"462 234 CURVE",
"446 251 OFFCURVE",
"428 282 OFFCURVE",
"410 327 CURVE SMOOTH",
"392 372 OFFCURVE",
"375 434 OFFCURVE",
"364 515 CURVE",
"818 515 LINE",
"818 626 LINE",
"354 626 LINE",
"353 639 OFFCURVE",
"352 654 OFFCURVE",
"352 669 CURVE SMOOTH",
"352 684 OFFCURVE",
"352 699 OFFCURVE",
"352 714 CURVE SMOOTH",
"352 767 LINE",
"818 767 LINE"
);
}
);
width = 1425;
}
);
note = Euro;
unicode = 20AC;
},
{
color = 4;
glyphname = florin;
layers = (
{
layerId = "2F8B9CD4-7B7F-4ACC-ADF3-B6E0F7033A19";
paths = (
{
closed = 1;
nodes = (
"738 860 LINE",
"763 993 LINE",
"478 993 LINE",
"517 1219 LINE SMOOTH",
"529 1288 OFFCURVE",
"538 1337 OFFCURVE",
"565 1369 CURVE SMOOTH",
"592 1401 OFFCURVE",
"635 1415 OFFCURVE",
"718 1415 CURVE SMOOTH",
"757 1415 OFFCURVE",
"798 1412 OFFCURVE",
"837 1409 CURVE",
"859 1544 LINE",
"818 1547 OFFCURVE",
"775 1548 OFFCURVE",
"734 1548 CURVE SMOOTH",
"598 1548 OFFCURVE",
"514 1527 OFFCURVE",
"459 1473 CURVE SMOOTH",
"403 1419 OFFCURVE",
"376 1332 OFFCURVE",
"353 1204 CURVE SMOOTH",
"315 993 LINE",
"104 993 LINE",
"81 860 LINE",
"292 860 LINE",
"116 -139 LINE SMOOTH",
"104 -207 OFFCURVE",
"93 -258 OFFCURVE",
"66 -292 CURVE SMOOTH",
"39 -326 OFFCURVE",
"-5 -344 OFFCURVE",
"-85 -344 CURVE SMOOTH",
"-124 -344 OFFCURVE",
"-165 -338 OFFCURVE",
"-204 -330 CURVE",
"-226 -461 LINE",
"-185 -472 OFFCURVE",
"-146 -477 OFFCURVE",
"-105 -477 CURVE SMOOTH",
"36 -477 OFFCURVE",
"121 -455 OFFCURVE",
"177 -399 CURVE SMOOTH",
"232 -344 OFFCURVE",
"256 -257 OFFCURVE",
"280 -125 CURVE SMOOTH",
"456 860 LINE"
);
}
);
width = 807;
}
);
note = florin;
unicode = 0192;
},
{
color = 4;
glyphname = sterling;
layers = (
{
layerId = "2F8B9CD4-7B7F-4ACC-ADF3-B6E0F7033A19";
paths = (
{
closed = 1;
nodes = (
"107 591 LINE",
"261 591 LINE",
"257 401 LINE SMOOTH",
"256 330 OFFCURVE",
"250 266 OFFCURVE",
"227 212 CURVE SMOOTH",
"203 158 OFFCURVE",
"162 116 OFFCURVE",
"93 96 CURVE",
"124 -9 LINE",
"209 6 OFFCURVE",
"266 16 OFFCURVE",
"307 22 CURVE SMOOTH",
"348 28 OFFCURVE",
"375 30 OFFCURVE",
"402 30 CURVE SMOOTH",
"461 30 OFFCURVE",
"522 16 OFFCURVE",
"582 4 CURVE SMOOTH",
"642 -9 OFFCURVE",
"702 -23 OFFCURVE",
"759 -23 CURVE SMOOTH",
"862 -23 OFFCURVE",
"955 20 OFFCURVE",
"1036 64 CURVE",
"995 198 LINE",
"906 135 OFFCURVE",
"815 108 OFFCURVE",
"723 108 CURVE SMOOTH",
"679 108 OFFCURVE",
"633 118 OFFCURVE",
"589 127 CURVE SMOOTH",
"544 136 OFFCURVE",
"498 146 OFFCURVE",
"453 146 CURVE SMOOTH",
"412 146 OFFCURVE",
"370 140 OFFCURVE",
"329 123 CURVE",
"327 125 LINE",
"355 158 OFFCURVE",
"371 197 OFFCURVE",
"382 245 CURVE SMOOTH",
"393 292 OFFCURVE",
"396 347 OFFCURVE",
"399 414 CURVE SMOOTH",
"405 591 LINE",
"721 591 LINE",
"737 709 LINE",
"416 709 LINE",
"428 939 LINE SMOOTH",
"435 1063 OFFCURVE",
"449 1134 OFFCURVE",
"490 1174 CURVE SMOOTH",
"530 1214 OFFCURVE",
"598 1223 OFFCURVE",
"711 1223 CURVE SMOOTH",
"772 1223 OFFCURVE",
"812 1206 OFFCURVE",
"841 1172 CURVE SMOOTH",
"869 1138 OFFCURVE",
"885 1088 OFFCURVE",
"898 1021 CURVE",
"1005 1093 LINE",
"985 1186 OFFCURVE",
"954 1250 OFFCURVE",
"901 1291 CURVE SMOOTH",
"848 1332 OFFCURVE",
"772 1350 OFFCURVE",
"661 1350 CURVE SMOOTH",
"538 1350 OFFCURVE",
"446 1324 OFFCURVE",
"383 1259 CURVE SMOOTH",
"319 1194 OFFCURVE",
"286 1088 OFFCURVE",
"279 931 CURVE SMOOTH",
"270 709 LINE",
"107 709 LINE"
);
}
);
width = 1130;
}
);
note = sterling;
unicode = 00A3;
},
{
color = 4;
glyphname = yen;
layers = (
{
layerId = "2F8B9CD4-7B7F-4ACC-ADF3-B6E0F7033A19";
paths = (
{
closed = 1;
nodes = (
"970 557 LINE",
"675 557 LINE",
"675 600 LINE",
"715 666 LINE",
"970 666 LINE",
"970 775 LINE",
"782 775 LINE",
"1149 1418 LINE",
"986 1418 LINE",
"671 844 LINE",
"611 726 LINE",
"601 726 LINE",
"538 844 LINE",
"220 1418 LINE",
"60 1418 LINE",
"425 775 LINE",
"237 775 LINE",
"237 666 LINE",
"491 666 LINE",
"532 600 LINE",
"532 557 LINE",
"237 557 LINE",
"237 446 LINE",
"532 446 LINE",
"532 0 LINE",
"675 0 LINE",
"675 446 LINE",
"970 446 LINE"
);
}
);
width = 1209;
}
);
note = yen;
unicode = 00A5;
},
{
color = 4;
glyphname = plus;
layers = (
{
layerId = "2F8B9CD4-7B7F-4ACC-ADF3-B6E0F7033A19";
paths = (
{
closed = 1;
nodes = (
"834 684 LINE",
"548 684 LINE",
"548 961 LINE",
"401 961 LINE",
"401 684 LINE",
"109 684 LINE",
"109 562 LINE",
"401 562 LINE",
"401 283 LINE",
"548 283 LINE",
"548 562 LINE",
"834 562 LINE"
);
}
);
width = 942;
}
);
note = plus;
unicode = 002B;
},
{
color = 4;
glyphname = minus;
layers = (
{
layerId = "2F8B9CD4-7B7F-4ACC-ADF3-B6E0F7033A19";
paths = (
{
closed = 1;
nodes = (
"906 682 LINE",
"153 682 LINE",
"153 573 LINE",
"906 573 LINE"
);
}
);
width = 1060;
}
);
note = minus;
unicode = 2212;
},
{
color = 4;
glyphname = multiply;
layers = (
{
layerId = "2F8B9CD4-7B7F-4ACC-ADF3-B6E0F7033A19";
paths = (
{
closed = 1;
nodes = (
"646 930 LINE",
"446 729 LINE",
"245 930 LINE",
"143 829 LINE",
"343 629 LINE",
"143 428 LINE",
"245 328 LINE",
"446 528 LINE",
"646 328 LINE",
"749 428 LINE",
"548 629 LINE",
"749 829 LINE"
);
}
);
width = 892;
}
);
note = multiply;
unicode = 00D7;
},
{
color = 4;
glyphname = equal;
layers = (
{
layerId = "2F8B9CD4-7B7F-4ACC-ADF3-B6E0F7033A19";
paths = (
{
closed = 1;
nodes = (
"886 557 LINE",
"153 557 LINE",
"153 446 LINE",
"886 446 LINE"
);
},
{
closed = 1;
nodes = (
"886 807 LINE",
"153 807 LINE",
"153 698 LINE",
"886 698 LINE"
);
}
);
width = 1039;
}
);
note = equal;
unicode = 003D;
},
{
color = 4;
glyphname = notequal;
layers = (
{
layerId = "2F8B9CD4-7B7F-4ACC-ADF3-B6E0F7033A19";
paths = (
{
closed = 1;
nodes = (
"919 1176 LINE",
"784 891 LINE",
"141 891 LINE",
"141 791 LINE",
"739 791 LINE",
"571 434 LINE",
"141 434 LINE",
"141 332 LINE",
"524 332 LINE",
"405 82 LINE",
"487 41 LINE",
"626 332 LINE",
"1292 332 LINE",
"1292 434 LINE",
"671 434 LINE",
"843 791 LINE",
"1292 791 LINE",
"1292 891 LINE",
"886 891 LINE",
"1003 1135 LINE"
);
}
);
width = 1433;
}
);
note = notequal;
unicode = 2260;
},
{
color = 4;
glyphname = greater;
layers = (
{
layerId = "2F8B9CD4-7B7F-4ACC-ADF3-B6E0F7033A19";
paths = (
{
closed = 1;
nodes = (
"186 1126 LINE",
"106 1032 LINE",
"835 592 LINE",
"106 154 LINE",
"186 59 LINE",
"1009 561 LINE",
"1009 627 LINE"
);
}
);
width = 1073;
}
);
note = greater;
unicode = 003E;
},
{
color = 4;
glyphname = less;
layers = (
{
layerId = "2F8B9CD4-7B7F-4ACC-ADF3-B6E0F7033A19";
paths = (
{
closed = 1;
nodes = (
"965 1032 LINE",
"887 1126 LINE",
"64 627 LINE",
"64 561 LINE",
"887 59 LINE",
"967 154 LINE",
"238 592 LINE"
);
}
);
width = 1072;
}
);
note = less;
unicode = 003C;
},
{
color = 4;
glyphname = greaterequal;
layers = (
{
layerId = "2F8B9CD4-7B7F-4ACC-ADF3-B6E0F7033A19";
paths = (
{
closed = 1;
nodes = (
"139 1221 LINE",
"1149 764 LINE",
"1149 760 LINE",
"139 301 LINE",
"139 182 LINE",
"1268 707 LINE",
"1268 815 LINE",
"139 1341 LINE"
);
},
{
closed = 1;
nodes = (
"1270 86 LINE",
"125 86 LINE",
"125 -14 LINE",
"1270 -14 LINE"
);
}
);
width = 1385;
}
);
note = greaterequal;
unicode = 2265;
},
{
color = 4;
glyphname = lessequal;
layers = (
{
layerId = "2F8B9CD4-7B7F-4ACC-ADF3-B6E0F7033A19";
paths = (
{
closed = 1;
nodes = (
"1252 301 LINE",
"240 762 LINE",
"240 766 LINE",
"1252 1221 LINE",
"1252 1341 LINE",
"125 815 LINE",
"125 709 LINE",
"1252 182 LINE"
);
},
{
closed = 1;
nodes = (
"1258 86 LINE",
"109 86 LINE",
"109 -14 LINE",
"1258 -14 LINE"
);
}
);
width = 1389;
}
);
note = lessequal;
unicode = 2264;
},
{
color = 4;
glyphname = plusminus;
layers = (
{
layerId = "2F8B9CD4-7B7F-4ACC-ADF3-B6E0F7033A19";
paths = (
{
closed = 1;
nodes = (
"564 764 LINE",
"144 764 LINE",
"144 610 LINE",
"564 610 LINE",
"564 299 LINE",
"718 299 LINE",
"718 610 LINE",
"1136 610 LINE",
"1136 764 LINE",
"718 764 LINE",
"718 1075 LINE",
"564 1075 LINE"
);
},
{
closed = 1;
nodes = (
"1136 20 LINE",
"1136 174 LINE",
"144 174 LINE",
"144 20 LINE"
);
}
);
width = 1280;
}
);
note = plusminus;
unicode = 00B1;
},
{
color = 4;
glyphname = approxequal;
layers = (
{
layerId = "2F8B9CD4-7B7F-4ACC-ADF3-B6E0F7033A19";
paths = (
{
closed = 1;
nodes = (
"1200 793 OFFCURVE",
"1165 749 OFFCURVE",
"1126 721 CURVE SMOOTH",
"1087 692 OFFCURVE",
"1044 679 OFFCURVE",
"995 679 CURVE SMOOTH",
"974 679 OFFCURVE",
"954 681 OFFCURVE",
"936 685 CURVE SMOOTH",
"900 693 OFFCURVE",
"867 706 OFFCURVE",
"835 723 CURVE",
"818 731 OFFCURVE",
"801 739 OFFCURVE",
"784 748 CURVE SMOOTH",
"758 761 OFFCURVE",
"733 774 OFFCURVE",
"710 787 CURVE SMOOTH",
"686 800 OFFCURVE",
"662 811 OFFCURVE",
"638 822 CURVE SMOOTH",
"590 843 OFFCURVE",
"541 858 OFFCURVE",
"486 858 CURVE SMOOTH",
"345 858 OFFCURVE",
"226 774 OFFCURVE",
"147 637 CURVE",
"221 572 LINE",
"253 617 OFFCURVE",
"287 662 OFFCURVE",
"327 695 CURVE SMOOTH",
"367 728 OFFCURVE",
"413 749 OFFCURVE",
"469 749 CURVE SMOOTH",
"494 749 OFFCURVE",
"517 746 OFFCURVE",
"539 740 CURVE SMOOTH",
"582 728 OFFCURVE",
"622 710 OFFCURVE",
"663 688 CURVE SMOOTH",
"683 677 OFFCURVE",
"704 666 OFFCURVE",
"726 657 CURVE",
"726 658 LINE",
"779 630 OFFCURVE",
"822 609 OFFCURVE",
"863 594 CURVE SMOOTH",
"904 578 OFFCURVE",
"945 570 OFFCURVE",
"993 570 CURVE SMOOTH",
"1068 570 OFFCURVE",
"1129 594 OFFCURVE",
"1181 633 CURVE SMOOTH",
"1232 672 OFFCURVE",
"1273 727 OFFCURVE",
"1309 787 CURVE",
"1237 853 LINE"
);
},
{
closed = 1;
nodes = (
"1200 461 OFFCURVE",
"1166 417 OFFCURVE",
"1128 389 CURVE SMOOTH",
"1090 360 OFFCURVE",
"1048 346 OFFCURVE",
"999 346 CURVE SMOOTH",
"956 346 OFFCURVE",
"921 353 OFFCURVE",
"889 365 CURVE",
"856 376 OFFCURVE",
"826 392 OFFCURVE",
"793 409 CURVE SMOOTH",
"729 444 OFFCURVE",
"674 472 OFFCURVE",
"624 492 CURVE SMOOTH",
"574 512 OFFCURVE",
"529 524 OFFCURVE",
"484 524 CURVE SMOOTH",
"345 524 OFFCURVE",
"226 442 OFFCURVE",
"147 303 CURVE",
"221 241 LINE",
"253 286 OFFCURVE",
"286 330 OFFCURVE",
"326 362 CURVE SMOOTH",
"365 394 OFFCURVE",
"410 415 OFFCURVE",
"469 415 CURVE SMOOTH",
"550 415 OFFCURVE",
"628 376 OFFCURVE",
"699 339 CURVE SMOOTH",
"756 308 OFFCURVE",
"805 283 OFFCURVE",
"851 265 CURVE SMOOTH",
"897 247 OFFCURVE",
"941 237 OFFCURVE",
"993 237 CURVE SMOOTH",
"1069 237 OFFCURVE",
"1130 261 OFFCURVE",
"1181 300 CURVE SMOOTH",
"1232 339 OFFCURVE",
"1273 394 OFFCURVE",
"1309 454 CURVE",
"1237 521 LINE"
);
}
);
width = 1453;
}
);
note = approxequal;
unicode = 2248;
},
{
color = 4;
glyphname = asciitilde;
layers = (
{
layerId = "2F8B9CD4-7B7F-4ACC-ADF3-B6E0F7033A19";
paths = (
{
closed = 1;
nodes = (
"243 534 OFFCURVE",
"260 567 OFFCURVE",
"282 591 CURVE SMOOTH",
"304 615 OFFCURVE",
"329 629 OFFCURVE",
"364 629 CURVE SMOOTH",
"378 629 OFFCURVE",
"395 625 OFFCURVE",
"415 617 CURVE SMOOTH",
"454 601 OFFCURVE",
"501 576 OFFCURVE",
"552 548 CURVE",
"577 533 OFFCURVE",
"603 520 OFFCURVE",
"630 508 CURVE SMOOTH",
"682 484 OFFCURVE",
"734 466 OFFCURVE",
"782 466 CURVE SMOOTH",
"861 466 OFFCURVE",
"918 497 OFFCURVE",
"958 541 CURVE SMOOTH",
"998 585 OFFCURVE",
"1021 641 OFFCURVE",
"1030 692 CURVE",
"919 748 LINE",
"904 712 OFFCURVE",
"892 679 OFFCURVE",
"873 656 CURVE SMOOTH",
"853 632 OFFCURVE",
"827 618 OFFCURVE",
"787 618 CURVE SMOOTH",
"770 618 OFFCURVE",
"752 622 OFFCURVE",
"732 631 CURVE SMOOTH",
"691 648 OFFCURVE",
"644 675 OFFCURVE",
"594 705 CURVE SMOOTH",
"569 720 OFFCURVE",
"543 733 OFFCURVE",
"517 746 CURVE SMOOTH",
"464 771 OFFCURVE",
"410 791 OFFCURVE",
"358 791 CURVE SMOOTH",
"281 791 OFFCURVE",
"227 755 OFFCURVE",
"188 707 CURVE SMOOTH",
"149 659 OFFCURVE",
"128 598 OFFCURVE",
"116 547 CURVE",
"227 494 LINE"
);
}
);
width = 1142;
}
);
note = asciitilde;
unicode = 007E;
},
{
color = 4;
glyphname = logicalnot;
layers = (
{
layerId = "2F8B9CD4-7B7F-4ACC-ADF3-B6E0F7033A19";
paths = (
{
closed = 1;
nodes = (
"1229 633 LINE",
"153 633 LINE",
"153 532 LINE",
"1050 532 LINE",
"1050 0 LINE",
"1229 0 LINE"
);
}
);
width = 1388;
}
);
note = logicalnot;
unicode = 00AC;
},
{
color = 4;
glyphname = infinity;
layers = (
{
layerId = "2F8B9CD4-7B7F-4ACC-ADF3-B6E0F7033A19";
paths = (
{
closed = 1;
nodes = (
"1740 728 OFFCURVE",
"1707 818 OFFCURVE",
"1647 882 CURVE SMOOTH",
"1587 945 OFFCURVE",
"1501 982 OFFCURVE",
"1397 983 CURVE SMOOTH",
"1298 983 OFFCURVE",
"1219 947 OFFCURVE",
"1148 892 CURVE SMOOTH",
"1076 837 OFFCURVE",
"1013 765 OFFCURVE",
"949 694 CURVE",
"885 767 OFFCURVE",
"819 840 OFFCURVE",
"747 894 CURVE SMOOTH",
"674 948 OFFCURVE",
"594 983 OFFCURVE",
"505 983 CURVE SMOOTH",
"400 983 OFFCURVE",
"308 944 OFFCURVE",
"242 878 CURVE SMOOTH",
"176 812 OFFCURVE",
"136 719 OFFCURVE",
"136 614 CURVE SMOOTH",
"136 513 OFFCURVE",
"176 422 OFFCURVE",
"240 357 CURVE SMOOTH",
"304 292 OFFCURVE",
"391 252 OFFCURVE",
"486 252 CURVE SMOOTH",
"585 252 OFFCURVE",
"667 289 OFFCURVE",
"740 343 CURVE SMOOTH",
"813 397 OFFCURVE",
"877 468 OFFCURVE",
"941 539 CURVE",
"1025 447 OFFCURVE",
"1097 375 OFFCURVE",
"1167 327 CURVE SMOOTH",
"1237 278 OFFCURVE",
"1305 252 OFFCURVE",
"1381 252 CURVE SMOOTH",
"1473 252 OFFCURVE",
"1562 288 OFFCURVE",
"1630 352 CURVE SMOOTH",
"1697 416 OFFCURVE",
"1740 508 OFFCURVE",
"1740 621 CURVE SMOOTH",
"1740 623 LINE SMOOTH"
);
},
{
closed = 1;
nodes = (
"424 352 OFFCURVE",
"359 381 OFFCURVE",
"314 428 CURVE SMOOTH",
"269 475 OFFCURVE",
"244 539 OFFCURVE",
"244 610 CURVE",
"243 683 OFFCURVE",
"266 752 OFFCURVE",
"308 803 CURVE SMOOTH",
"350 854 OFFCURVE",
"410 887 OFFCURVE",
"486 887 CURVE SMOOTH",
"574 887 OFFCURVE",
"647 850 OFFCURVE",
"711 797 CURVE SMOOTH",
"775 744 OFFCURVE",
"830 674 OFFCURVE",
"883 610 CURVE",
"858 585 OFFCURVE",
"832 557 OFFCURVE",
"805 527 CURVE SMOOTH",
"777 497 OFFCURVE",
"747 469 OFFCURVE",
"716 443 CURVE SMOOTH",
"652 391 OFFCURVE",
"582 352 OFFCURVE",
"505 352 CURVE SMOOTH",
"503 352 LINE SMOOTH"
);
},
{
closed = 1;
nodes = (
"1456 887 OFFCURVE",
"1518 862 OFFCURVE",
"1562 815 CURVE SMOOTH",
"1606 768 OFFCURVE",
"1633 699 OFFCURVE",
"1633 614 CURVE SMOOTH",
"1633 550 OFFCURVE",
"1612 486 OFFCURVE",
"1570 436 CURVE SMOOTH",
"1528 386 OFFCURVE",
"1466 352 OFFCURVE",
"1389 352 CURVE SMOOTH",
"1325 352 OFFCURVE",
"1270 376 OFFCURVE",
"1210 421 CURVE SMOOTH",
"1149 466 OFFCURVE",
"1083 533 OFFCURVE",
"1002 621 CURVE",
"1016 635 OFFCURVE",
"1032 651 OFFCURVE",
"1049 670 CURVE SMOOTH",
"1066 689 OFFCURVE",
"1084 708 OFFCURVE",
"1103 728 CURVE SMOOTH",
"1141 767 OFFCURVE",
"1184 807 OFFCURVE",
"1231 837 CURVE SMOOTH",
"1278 867 OFFCURVE",
"1329 887 OFFCURVE",
"1385 887 CURVE SMOOTH",
"1387 887 LINE SMOOTH"
);
}
);
width = 1877;
}
);
note = infinity;
unicode = 221E;
},
{
color = 4;
glyphname = integral;
layers = (
{
layerId = "2F8B9CD4-7B7F-4ACC-ADF3-B6E0F7033A19";
paths = (
{
closed = 1;
nodes = (
"771 1804 OFFCURVE",
"750 1812 OFFCURVE",
"726 1820 CURVE",
"702 1827 OFFCURVE",
"675 1831 OFFCURVE",
"650 1831 CURVE SMOOTH",
"575 1831 OFFCURVE",
"499 1811 OFFCURVE",
"439 1751 CURVE",
"392 1708 OFFCURVE",
"360 1652 OFFCURVE",
"340 1579 CURVE SMOOTH",
"319 1506 OFFCURVE",
"310 1414 OFFCURVE",
"310 1298 CURVE SMOOTH",
"310 1130 OFFCURVE",
"319 942 OFFCURVE",
"328 754 CURVE SMOOTH",
"336 565 OFFCURVE",
"345 374 OFFCURVE",
"345 201 CURVE SMOOTH",
"345 20 OFFCURVE",
"319 -88 OFFCURVE",
"280 -149 CURVE SMOOTH",
"240 -210 OFFCURVE",
"189 -227 OFFCURVE",
"140 -227 CURVE SMOOTH",
"89 -227 OFFCURVE",
"44 -208 OFFCURVE",
"23 -197 CURVE",
"-6 -303 LINE",
"9 -312 OFFCURVE",
"33 -322 OFFCURVE",
"62 -329 CURVE SMOOTH",
"91 -337 OFFCURVE",
"123 -342 OFFCURVE",
"154 -342 CURVE SMOOTH",
"241 -342 OFFCURVE",
"325 -308 OFFCURVE",
"377 -236 CURVE SMOOTH",
"402 -200 OFFCURVE",
"429 -151 OFFCURVE",
"449 -81 CURVE SMOOTH",
"469 -11 OFFCURVE",
"482 78 OFFCURVE",
"482 197 CURVE SMOOTH",
"482 369 OFFCURVE",
"474 556 OFFCURVE",
"466 743 CURVE SMOOTH",
"457 930 OFFCURVE",
"449 1115 OFFCURVE",
"449 1282 CURVE SMOOTH",
"449 1381 OFFCURVE",
"456 1462 OFFCURVE",
"469 1526 CURVE SMOOTH",
"496 1653 OFFCURVE",
"555 1720 OFFCURVE",
"660 1720 CURVE SMOOTH",
"693 1720 OFFCURVE",
"734 1709 OFFCURVE",
"754 1694 CURVE",
"783 1796 LINE"
);
}
);
width = 778;
}
);
note = integral;
unicode = 222B;
},
{
color = 4;
glyphname = increment;
layers = (
{
layerId = "2F8B9CD4-7B7F-4ACC-ADF3-B6E0F7033A19";
paths = (
{
closed = 1;
nodes = (
"1540 0 LINE",
"1540 111 LINE",
"897 1438 LINE",
"711 1438 LINE",
"62 111 LINE",
"62 0 LINE"
);
},
{
closed = 1;
nodes = (
"635 968 LINE",
"791 1289 LINE",
"801 1289 LINE",
"977 925 LINE",
"1348 123 LINE",
"242 123 LINE"
);
}
);
width = 1602;
}
);
note = Delta;
unicode = 2206;
},
{
color = 4;
glyphname = product;
layers = (
{
layerId = "2F8B9CD4-7B7F-4ACC-ADF3-B6E0F7033A19";
paths = (
{
closed = 1;
nodes = (
"1473 1440 LINE",
"64 1440 LINE",
"64 1305 LINE",
"351 1305 LINE",
"351 1 LINE",
"507 1 LINE",
"507 1305 LINE",
"1033 1305 LINE",
"1033 1 LINE",
"1187 1 LINE",
"1187 1305 LINE",
"1473 1305 LINE"
);
}
);
width = 1537;
}
);
note = product;
unicode = 220F;
},
{
color = 4;
glyphname = summation;
layers = (
{
layerId = "2F8B9CD4-7B7F-4ACC-ADF3-B6E0F7033A19";
paths = (
{
closed = 1;
nodes = (
"1047 139 LINE",
"292 139 LINE",
"292 148 LINE",
"824 796 LINE",
"335 1300 LINE",
"335 1308 LINE",
"1012 1308 LINE",
"1012 1441 LINE",
"106 1441 LINE",
"106 1337 LINE",
"637 790 LINE",
"73 96 LINE",
"73 0 LINE",
"1047 0 LINE"
);
}
);
width = 1134;
}
);
note = summation;
unicode = 2211;
},
{
color = 4;
glyphname = radical;
layers = (
{
layerId = "2F8B9CD4-7B7F-4ACC-ADF3-B6E0F7033A19";
paths = (
{
closed = 1;
nodes = (
"1019 1439 LINE",
"735 338 LINE",
"684 115 LINE",
"613 338 LINE",
"343 1034 LINE",
"28 909 LINE",
"63 819 LINE",
"249 889 LINE",
"613 -23 LINE",
"758 -23 LINE",
"1142 1439 LINE"
);
}
);
width = 1181;
}
);
note = radical;
unicode = 221A;
},
{
glyphname = micro;
layers = (
{
layerId = "2F8B9CD4-7B7F-4ACC-ADF3-B6E0F7033A19";
paths = (
{
closed = 1;
nodes = (
"324 -186 LINE",
"324 30 LINE",
"371 1 OFFCURVE",
"434 -26 OFFCURVE",
"526 -26 CURVE SMOOTH",
"647 -26 OFFCURVE",
"729 7 OFFCURVE",
"784 45 CURVE SMOOTH",
"839 83 OFFCURVE",
"866 126 OFFCURVE",
"879 146 CURVE",
"892 0 LINE",
"1020 0 LINE",
"1020 1011 LINE",
"867 1011 LINE",
"867 422 LINE SMOOTH",
"867 335 OFFCURVE",
"858 281 OFFCURVE",
"846 243 CURVE SMOOTH",
"834 205 OFFCURVE",
"818 185 OFFCURVE",
"805 172 CURVE",
"792 157 OFFCURVE",
"772 141 OFFCURVE",
"736 127 CURVE SMOOTH",
"700 113 OFFCURVE",
"647 102 OFFCURVE",
"568 102 CURVE SMOOTH",
"496 102 OFFCURVE",
"448 113 OFFCURVE",
"417 128 CURVE SMOOTH",
"385 143 OFFCURVE",
"370 163 OFFCURVE",
"362 180 CURVE",
"359 185 OFFCURVE",
"355 191 OFFCURVE",
"351 200 CURVE",
"346 209 OFFCURVE",
"342 221 OFFCURVE",
"338 238 CURVE SMOOTH",
"330 271 OFFCURVE",
"324 322 OFFCURVE",
"324 403 CURVE SMOOTH",
"324 1011 LINE",
"170 1011 LINE",
"170 -213 LINE"
);
}
);
width = 1164;
}
);
note = mu;
unicode = 00B5;
},
{
color = 4;
glyphname = percent;
layers = (
{
layerId = "2F8B9CD4-7B7F-4ACC-ADF3-B6E0F7033A19";
paths = (
{
closed = 1;
nodes = (
"1078 698 OFFCURVE",
"1007 664 OFFCURVE",
"960 606 CURVE SMOOTH",
"912 548 OFFCURVE",
"888 466 OFFCURVE",
"888 370 CURVE SMOOTH",
"888 271 OFFCURVE",
"912 190 OFFCURVE",
"959 131 CURVE SMOOTH",
"1006 72 OFFCURVE",
"1076 39 OFFCURVE",
"1171 39 CURVE SMOOTH",
"1262 39 OFFCURVE",
"1331 75 OFFCURVE",
"1379 133 CURVE SMOOTH",
"1426 191 OFFCURVE",
"1450 273 OFFCURVE",
"1450 366 CURVE SMOOTH",
"1450 462 OFFCURVE",
"1426 544 OFFCURVE",
"1379 604 CURVE SMOOTH",
"1331 663 OFFCURVE",
"1262 698 OFFCURVE",
"1171 698 CURVE SMOOTH"
);
},
{
closed = 1;
nodes = (
"1229 595 OFFCURVE",
"1265 565 OFFCURVE",
"1288 522 CURVE SMOOTH",
"1311 478 OFFCURVE",
"1318 420 OFFCURVE",
"1318 367 CURVE SMOOTH",
"1318 314 OFFCURVE",
"1311 258 OFFCURVE",
"1288 215 CURVE SMOOTH",
"1265 171 OFFCURVE",
"1228 141 OFFCURVE",
"1169 141 CURVE SMOOTH",
"1109 141 OFFCURVE",
"1072 171 OFFCURVE",
"1049 216 CURVE SMOOTH",
"1026 260 OFFCURVE",
"1019 319 OFFCURVE",
"1019 378 CURVE SMOOTH",
"1019 429 OFFCURVE",
"1027 484 OFFCURVE",
"1050 525 CURVE SMOOTH",
"1073 566 OFFCURVE",
"1110 595 OFFCURVE",
"1170 595 CURVE SMOOTH"
);
},
{
closed = 1;
nodes = (
"261 1392 OFFCURVE",
"190 1358 OFFCURVE",
"143 1299 CURVE SMOOTH",
"95 1240 OFFCURVE",
"71 1157 OFFCURVE",
"71 1061 CURVE SMOOTH",
"71 965 OFFCURVE",
"95 883 OFFCURVE",
"143 825 CURVE SMOOTH",
"191 767 OFFCURVE",
"262 733 OFFCURVE",
"355 733 CURVE SMOOTH",
"447 733 OFFCURVE",
"516 767 OFFCURVE",
"564 826 CURVE SMOOTH",
"611 885 OFFCURVE",
"634 967 OFFCURVE",
"634 1063 CURVE SMOOTH",
"634 1159 OFFCURVE",
"611 1242 OFFCURVE",
"564 1300 CURVE SMOOTH",
"516 1358 OFFCURVE",
"446 1392 OFFCURVE",
"354 1392 CURVE SMOOTH"
);
},
{
closed = 1;
nodes = (
"413 1290 OFFCURVE",
"450 1261 OFFCURVE",
"472 1218 CURVE SMOOTH",
"494 1174 OFFCURVE",
"501 1117 OFFCURVE",
"501 1061 CURVE SMOOTH",
"501 1006 OFFCURVE",
"494 951 OFFCURVE",
"471 908 CURVE SMOOTH",
"448 864 OFFCURVE",
"411 835 OFFCURVE",
"354 835 CURVE SMOOTH",
"294 835 OFFCURVE",
"256 864 OFFCURVE",
"234 908 CURVE SMOOTH",
"212 952 OFFCURVE",
"204 1010 OFFCURVE",
"204 1069 CURVE SMOOTH",
"204 1120 OFFCURVE",
"212 1175 OFFCURVE",
"235 1218 CURVE SMOOTH",
"258 1261 OFFCURVE",
"295 1290 OFFCURVE",
"354 1290 CURVE SMOOTH"
);
},
{
closed = 1;
nodes = (
"517 -70 LINE",
"1092 1349 LINE",
"986 1390 LINE",
"410 -28 LINE"
);
}
);
width = 1524;
}
);
note = percent;
unicode = 0025;
},
{
color = 4;
glyphname = perthousand;
layers = (
{
layerId = "2F8B9CD4-7B7F-4ACC-ADF3-B6E0F7033A19";
paths = (
{
closed = 1;
nodes = (
"1761 698 OFFCURVE",
"1690 664 OFFCURVE",
"1643 606 CURVE SMOOTH",
"1595 548 OFFCURVE",
"1571 466 OFFCURVE",
"1571 370 CURVE SMOOTH",
"1571 271 OFFCURVE",
"1595 190 OFFCURVE",
"1642 131 CURVE SMOOTH",
"1689 72 OFFCURVE",
"1759 39 OFFCURVE",
"1854 39 CURVE SMOOTH",
"1945 39 OFFCURVE",
"2014 75 OFFCURVE",
"2062 133 CURVE SMOOTH",
"2109 191 OFFCURVE",
"2133 273 OFFCURVE",
"2133 366 CURVE SMOOTH",
"2133 462 OFFCURVE",
"2109 544 OFFCURVE",
"2062 604 CURVE SMOOTH",
"2014 663 OFFCURVE",
"1945 698 OFFCURVE",
"1854 698 CURVE SMOOTH"
);
},
{
closed = 1;
nodes = (
"1912 595 OFFCURVE",
"1948 565 OFFCURVE",
"1971 522 CURVE SMOOTH",
"1994 478 OFFCURVE",
"2001 420 OFFCURVE",
"2001 367 CURVE SMOOTH",
"2001 314 OFFCURVE",
"1994 258 OFFCURVE",
"1971 215 CURVE SMOOTH",
"1948 171 OFFCURVE",
"1911 141 OFFCURVE",
"1852 141 CURVE SMOOTH",
"1792 141 OFFCURVE",
"1755 171 OFFCURVE",
"1732 216 CURVE SMOOTH",
"1709 260 OFFCURVE",
"1702 319 OFFCURVE",
"1702 378 CURVE SMOOTH",
"1702 429 OFFCURVE",
"1710 484 OFFCURVE",
"1733 525 CURVE SMOOTH",
"1756 566 OFFCURVE",
"1793 595 OFFCURVE",
"1853 595 CURVE SMOOTH"
);
},
{
closed = 1;
nodes = (
"261 1392 OFFCURVE",
"190 1358 OFFCURVE",
"143 1299 CURVE SMOOTH",
"95 1240 OFFCURVE",
"71 1157 OFFCURVE",
"71 1061 CURVE SMOOTH",
"71 965 OFFCURVE",
"95 883 OFFCURVE",
"143 825 CURVE SMOOTH",
"191 767 OFFCURVE",
"262 733 OFFCURVE",
"355 733 CURVE SMOOTH",
"447 733 OFFCURVE",
"516 767 OFFCURVE",
"564 826 CURVE SMOOTH",
"611 885 OFFCURVE",
"634 967 OFFCURVE",
"634 1063 CURVE SMOOTH",
"634 1159 OFFCURVE",
"611 1242 OFFCURVE",
"564 1300 CURVE SMOOTH",
"516 1358 OFFCURVE",
"446 1392 OFFCURVE",
"354 1392 CURVE SMOOTH"
);
},
{
closed = 1;
nodes = (
"413 1290 OFFCURVE",
"450 1261 OFFCURVE",
"472 1218 CURVE SMOOTH",
"494 1174 OFFCURVE",
"501 1117 OFFCURVE",
"501 1061 CURVE SMOOTH",
"501 1006 OFFCURVE",
"494 951 OFFCURVE",
"471 908 CURVE SMOOTH",
"448 864 OFFCURVE",
"411 835 OFFCURVE",
"354 835 CURVE SMOOTH",
"294 835 OFFCURVE",
"256 864 OFFCURVE",
"234 908 CURVE SMOOTH",
"212 952 OFFCURVE",
"204 1010 OFFCURVE",
"204 1069 CURVE SMOOTH",
"204 1120 OFFCURVE",
"212 1175 OFFCURVE",
"235 1218 CURVE SMOOTH",
"258 1261 OFFCURVE",
"295 1290 OFFCURVE",
"354 1290 CURVE SMOOTH"
);
},
{
closed = 1;
nodes = (
"517 -70 LINE",
"1092 1349 LINE",
"986 1390 LINE",
"410 -28 LINE"
);
},
{
closed = 1;
nodes = (
"1078 698 OFFCURVE",
"1007 664 OFFCURVE",
"960 606 CURVE SMOOTH",
"912 548 OFFCURVE",
"888 466 OFFCURVE",
"888 370 CURVE SMOOTH",
"888 271 OFFCURVE",
"912 190 OFFCURVE",
"959 131 CURVE SMOOTH",
"1006 72 OFFCURVE",
"1076 39 OFFCURVE",
"1171 39 CURVE SMOOTH",
"1262 39 OFFCURVE",
"1331 75 OFFCURVE",
"1379 133 CURVE SMOOTH",
"1426 191 OFFCURVE",
"1450 273 OFFCURVE",
"1450 366 CURVE SMOOTH",
"1450 462 OFFCURVE",
"1426 544 OFFCURVE",
"1379 604 CURVE SMOOTH",
"1331 663 OFFCURVE",
"1262 698 OFFCURVE",
"1171 698 CURVE SMOOTH"
);
},
{
closed = 1;
nodes = (
"1229 595 OFFCURVE",
"1265 565 OFFCURVE",
"1288 522 CURVE SMOOTH",
"1311 478 OFFCURVE",
"1318 420 OFFCURVE",
"1318 367 CURVE SMOOTH",
"1318 314 OFFCURVE",
"1311 258 OFFCURVE",
"1288 215 CURVE SMOOTH",
"1265 171 OFFCURVE",
"1228 141 OFFCURVE",
"1169 141 CURVE SMOOTH",
"1109 141 OFFCURVE",
"1072 171 OFFCURVE",
"1049 216 CURVE SMOOTH",
"1026 260 OFFCURVE",
"1019 319 OFFCURVE",
"1019 378 CURVE SMOOTH",
"1019 429 OFFCURVE",
"1027 484 OFFCURVE",
"1050 525 CURVE SMOOTH",
"1073 566 OFFCURVE",
"1110 595 OFFCURVE",
"1170 595 CURVE SMOOTH"
);
}
);
width = 2205;
}
);
note = perthousand;
unicode = 2030;
},
{
color = 4;
glyphname = lozenge;
layers = (
{
layerId = "2F8B9CD4-7B7F-4ACC-ADF3-B6E0F7033A19";
paths = (
{
closed = 1;
nodes = (
"689 -113 LINE",
"1189 750 LINE",
"687 1614 LINE",
"562 1614 LINE",
"60 750 LINE",
"560 -113 LINE",
"564 -113 LINE"
);
},
{
closed = 1;
nodes = (
"679 1391 LINE",
"1046 754 LINE",
"671 104 LINE",
"625 13 LINE",
"578 104 LINE",
"203 754 LINE",
"570 1391 LINE",
"626 1491 LINE"
);
}
);
width = 1249;
}
);
note = lozenge;
unicode = 25CA;
},
{
color = 4;
glyphname = at;
layers = (
{
layerId = "2F8B9CD4-7B7F-4ACC-ADF3-B6E0F7033A19";
paths = (
{
closed = 1;
nodes = (
"758 281 OFFCURVE",
"714 308 OFFCURVE",
"684 349 CURVE SMOOTH",
"654 390 OFFCURVE",
"637 447 OFFCURVE",
"637 504 CURVE SMOOTH",
"637 605 OFFCURVE",
"656 704 OFFCURVE",
"700 777 CURVE SMOOTH",
"744 849 OFFCURVE",
"814 897 OFFCURVE",
"917 897 CURVE SMOOTH",
"935 897 OFFCURVE",
"956 895 OFFCURVE",
"979 891 CURVE SMOOTH",
"1025 883 OFFCURVE",
"1066 872 OFFCURVE",
"1093 864 CURVE SMOOTH",
"1106 860 OFFCURVE",
"1113 858 OFFCURVE",
"1112 858 CURVE",
"1105 823 OFFCURVE",
"1098 790 OFFCURVE",
"1091 757 CURVE SMOOTH",
"1085 729 OFFCURVE",
"1079 700 OFFCURVE",
"1073 669 CURVE SMOOTH",
"1066 638 OFFCURVE",
"1061 612 OFFCURVE",
"1056 591 CURVE SMOOTH",
"1037 511 OFFCURVE",
"1009 433 OFFCURVE",
"970 376 CURVE SMOOTH",
"930 319 OFFCURVE",
"879 281 OFFCURVE",
"815 281 CURVE SMOOTH"
);
},
{
closed = 1;
nodes = (
"1277 990 OFFCURVE",
"1268 991 OFFCURVE",
"1259 992 CURVE",
"1244 995 OFFCURVE",
"1225 996 OFFCURVE",
"1209 996 CURVE SMOOTH",
"1186 996 OFFCURVE",
"1167 983 OFFCURVE",
"1144 932 CURVE",
"1080 992 OFFCURVE",
"997 1028 OFFCURVE",
"901 1028 CURVE SMOOTH",
"776 1028 OFFCURVE",
"667 973 OFFCURVE",
"590 885 CURVE SMOOTH",
"513 796 OFFCURVE",
"467 674 OFFCURVE",
"467 542 CURVE SMOOTH",
"467 429 OFFCURVE",
"494 331 OFFCURVE",
"547 263 CURVE SMOOTH",
"599 194 OFFCURVE",
"677 153 OFFCURVE",
"778 153 CURVE SMOOTH",
"855 153 OFFCURVE",
"915 179 OFFCURVE",
"963 226 CURVE SMOOTH",
"1011 273 OFFCURVE",
"1048 339 OFFCURVE",
"1076 422 CURVE",
"1076 331 OFFCURVE",
"1102 267 OFFCURVE",
"1142 224 CURVE SMOOTH",
"1182 181 OFFCURVE",
"1236 161 OFFCURVE",
"1292 161 CURVE SMOOTH",
"1400 161 OFFCURVE",
"1496 227 OFFCURVE",
"1564 329 CURVE SMOOTH",
"1632 431 OFFCURVE",
"1674 571 OFFCURVE",
"1674 720 CURVE SMOOTH",
"1674 865 OFFCURVE",
"1633 988 OFFCURVE",
"1565 1086 CURVE SMOOTH",
"1497 1184 OFFCURVE",
"1402 1257 OFFCURVE",
"1294 1306 CURVE SMOOTH",
"1186 1354 OFFCURVE",
"1064 1379 OFFCURVE",
"944 1379 CURVE SMOOTH",
"799 1379 OFFCURVE",
"656 1342 OFFCURVE",
"529 1274 CURVE SMOOTH",
"401 1205 OFFCURVE",
"291 1105 OFFCURVE",
"212 980 CURVE SMOOTH",
"133 855 OFFCURVE",
"86 705 OFFCURVE",
"86 536 CURVE SMOOTH",
"86 367 OFFCURVE",
"131 232 OFFCURVE",
"203 126 CURVE SMOOTH",
"275 20 OFFCURVE",
"375 -57 OFFCURVE",
"486 -106 CURVE SMOOTH",
"597 -155 OFFCURVE",
"718 -179 OFFCURVE",
"834 -179 CURVE SMOOTH",
"983 -179 OFFCURVE",
"1120 -145 OFFCURVE",
"1241 -96 CURVE",
"1186 27 LINE",
"1090 -8 OFFCURVE",
"978 -40 OFFCURVE",
"855 -40 CURVE SMOOTH",
"636 -40 OFFCURVE",
"482 26 OFFCURVE",
"380 134 CURVE SMOOTH",
"278 241 OFFCURVE",
"231 387 OFFCURVE",
"231 550 CURVE SMOOTH",
"231 686 OFFCURVE",
"269 809 OFFCURVE",
"334 911 CURVE SMOOTH",
"398 1013 OFFCURVE",
"489 1095 OFFCURVE",
"593 1152 CURVE SMOOTH",
"697 1208 OFFCURVE",
"815 1239 OFFCURVE",
"934 1239 CURVE SMOOTH",
"1086 1239 OFFCURVE",
"1235 1194 OFFCURVE",
"1347 1104 CURVE SMOOTH",
"1458 1014 OFFCURVE",
"1532 881 OFFCURVE",
"1532 705 CURVE SMOOTH",
"1532 613 OFFCURVE",
"1512 509 OFFCURVE",
"1475 428 CURVE SMOOTH",
"1438 347 OFFCURVE",
"1382 289 OFFCURVE",
"1313 289 CURVE SMOOTH",
"1260 289 OFFCURVE",
"1230 322 OFFCURVE",
"1215 363 CURVE SMOOTH",
"1200 404 OFFCURVE",
"1199 456 OFFCURVE",
"1206 492 CURVE SMOOTH",
"1286 989 LINE"
);
}
);
width = 1753;
}
);
note = at;
unicode = 0040;
},
{
color = 4;
glyphname = ampersand;
layers = (
{
layerId = "2F8B9CD4-7B7F-4ACC-ADF3-B6E0F7033A19";
paths = (
{
closed = 1;
nodes = (
"1002 260 OFFCURVE",
"995 240 OFFCURVE",
"986 223 CURVE",
"966 189 OFFCURVE",
"945 167 OFFCURVE",
"920 151 CURVE",
"906 146 OFFCURVE",
"886 141 OFFCURVE",
"860 137 CURVE SMOOTH",
"816 130 OFFCURVE",
"745 124 OFFCURVE",
"630 124 CURVE SMOOTH",
"554 124 OFFCURVE",
"492 127 OFFCURVE",
"441 136 CURVE SMOOTH",
"389 145 OFFCURVE",
"351 161 OFFCURVE",
"324 188 CURVE SMOOTH",
"277 236 OFFCURVE",
"270 319 OFFCURVE",
"270 438 CURVE SMOOTH",
"270 538 OFFCURVE",
"282 605 OFFCURVE",
"315 654 CURVE SMOOTH",
"348 703 OFFCURVE",
"403 734 OFFCURVE",
"487 765 CURVE",
"1006 285 LINE"
);
},
{
closed = 1;
nodes = (
"1055 1217 OFFCURVE",
"1044 1248 OFFCURVE",
"1032 1277 CURVE SMOOTH",
"1011 1326 OFFCURVE",
"983 1381 OFFCURVE",
"954 1404 CURVE",
"893 1460 OFFCURVE",
"796 1472 OFFCURVE",
"667 1472 CURVE SMOOTH",
"411 1472 OFFCURVE",
"288 1355 OFFCURVE",
"288 1131 CURVE SMOOTH",
"288 1076 OFFCURVE",
"297 1034 OFFCURVE",
"317 994 CURVE SMOOTH",
"337 953 OFFCURVE",
"367 913 OFFCURVE",
"410 865 CURVE",
"325 828 OFFCURVE",
"244 789 OFFCURVE",
"185 723 CURVE SMOOTH",
"126 657 OFFCURVE",
"88 564 OFFCURVE",
"88 416 CURVE SMOOTH",
"88 267 OFFCURVE",
"113 160 OFFCURVE",
"177 92 CURVE SMOOTH",
"222 44 OFFCURVE",
"285 16 OFFCURVE",
"361 0 CURVE SMOOTH",
"436 -16 OFFCURVE",
"524 -21 OFFCURVE",
"620 -21 CURVE SMOOTH",
"761 -21 OFFCURVE",
"854 -9 OFFCURVE",
"913 4 CURVE SMOOTH",
"981 19 OFFCURVE",
"1013 35 OFFCURVE",
"1046 66 CURVE SMOOTH",
"1074 93 OFFCURVE",
"1106 132 OFFCURVE",
"1121 188 CURVE",
"1172 147 OFFCURVE",
"1211 114 OFFCURVE",
"1240 90 CURVE SMOOTH",
"1305 34 LINE SMOOTH",
"1322 19 OFFCURVE",
"1332 8 OFFCURVE",
"1337 3 CURVE",
"1422 113 LINE",
"1170 330 LINE",
"1181 367 OFFCURVE",
"1189 416 OFFCURVE",
"1196 467 CURVE SMOOTH",
"1203 518 OFFCURVE",
"1208 571 OFFCURVE",
"1212 622 CURVE",
"1079 653 LINE",
"1076 624 OFFCURVE",
"1073 591 OFFCURVE",
"1070 553 CURVE SMOOTH",
"1067 515 OFFCURVE",
"1061 474 OFFCURVE",
"1052 429 CURVE",
"554 911 LINE SMOOTH",
"482 982 OFFCURVE",
"460 1060 OFFCURVE",
"460 1125 CURVE SMOOTH",
"460 1158 OFFCURVE",
"463 1187 OFFCURVE",
"469 1210 CURVE SMOOTH",
"481 1256 OFFCURVE",
"508 1302 OFFCURVE",
"568 1319 CURVE SMOOTH",
"627 1336 OFFCURVE",
"719 1334 OFFCURVE",
"778 1323 CURVE SMOOTH",
"837 1311 OFFCURVE",
"855 1291 OFFCURVE",
"875 1255 CURVE SMOOTH",
"894 1218 OFFCURVE",
"912 1177 OFFCURVE",
"933 1124 CURVE",
"1066 1184 LINE"
);
}
);
width = 1449;
}
);
note = ampersand;
unicode = 0026;
},
{
color = 4;
glyphname = paragraph;
layers = (
{
layerId = "2F8B9CD4-7B7F-4ACC-ADF3-B6E0F7033A19";
paths = (
{
closed = 1;
nodes = (
"584 1310 LINE",
"768 1310 LINE",
"768 -235 LINE",
"938 -235 LINE",
"938 1310 LINE",
"1070 1310 LINE",
"1070 1440 LINE",
"454 1440 LINE SMOOTH",
"339 1440 OFFCURVE",
"243 1406 OFFCURVE",
"175 1347 CURVE SMOOTH",
"107 1288 OFFCURVE",
"67 1204 OFFCURVE",
"67 1103 CURVE SMOOTH",
"67 1008 OFFCURVE",
"102 930 OFFCURVE",
"163 872 CURVE SMOOTH",
"224 814 OFFCURVE",
"311 777 OFFCURVE",
"415 769 CURVE",
"415 -235 LINE",
"584 -235 LINE"
);
}
);
width = 1166;
}
);
note = paragraph;
unicode = 00B6;
},
{
color = 4;
glyphname = section;
layers = (
{
layerId = "2F8B9CD4-7B7F-4ACC-ADF3-B6E0F7033A19";
paths = (
{
closed = 1;
nodes = (
"773 521 OFFCURVE",
"766 496 OFFCURVE",
"753 475 CURVE",
"725 434 OFFCURVE",
"690 406 OFFCURVE",
"641 389 CURVE",
"395 510 LINE SMOOTH",
"364 526 OFFCURVE",
"331 542 OFFCURVE",
"305 566 CURVE SMOOTH",
"279 590 OFFCURVE",
"261 623 OFFCURVE",
"261 678 CURVE SMOOTH",
"261 735 OFFCURVE",
"276 780 OFFCURVE",
"300 813 CURVE SMOOTH",
"324 845 OFFCURVE",
"358 865 OFFCURVE",
"395 876 CURVE",
"615 752 LINE",
"632 741 OFFCURVE",
"650 731 OFFCURVE",
"669 720 CURVE SMOOTH",
"688 709 OFFCURVE",
"705 696 OFFCURVE",
"720 681 CURVE SMOOTH",
"751 651 OFFCURVE",
"773 612 OFFCURVE",
"773 552 CURVE SMOOTH"
);
},
{
closed = 1;
nodes = (
"616 -204 OFFCURVE",
"706 -187 OFFCURVE",
"766 -141 CURVE SMOOTH",
"825 -95 OFFCURVE",
"853 -19 OFFCURVE",
"853 98 CURVE SMOOTH",
"853 143 OFFCURVE",
"849 188 OFFCURVE",
"831 229 CURVE SMOOTH",
"813 269 OFFCURVE",
"782 306 OFFCURVE",
"730 338 CURVE",
"849 389 OFFCURVE",
"915 466 OFFCURVE",
"915 570 CURVE SMOOTH",
"915 630 OFFCURVE",
"904 679 OFFCURVE",
"880 719 CURVE SMOOTH",
"856 759 OFFCURVE",
"819 792 OFFCURVE",
"767 823 CURVE SMOOTH",
"461 997 LINE SMOOTH",
"369 1049 OFFCURVE",
"303 1109 OFFCURVE",
"303 1197 CURVE SMOOTH",
"303 1256 OFFCURVE",
"315 1300 OFFCURVE",
"349 1329 CURVE SMOOTH",
"383 1358 OFFCURVE",
"439 1373 OFFCURVE",
"531 1373 CURVE SMOOTH",
"606 1373 OFFCURVE",
"658 1367 OFFCURVE",
"695 1350 CURVE SMOOTH",
"731 1333 OFFCURVE",
"752 1303 OFFCURVE",
"767 1256 CURVE",
"866 1316 LINE",
"846 1383 OFFCURVE",
"815 1425 OFFCURVE",
"763 1450 CURVE SMOOTH",
"711 1474 OFFCURVE",
"636 1482 OFFCURVE",
"527 1482 CURVE SMOOTH",
"422 1482 OFFCURVE",
"331 1464 OFFCURVE",
"267 1419 CURVE SMOOTH",
"202 1374 OFFCURVE",
"164 1301 OFFCURVE",
"164 1190 CURVE SMOOTH",
"164 1143 OFFCURVE",
"172 1096 OFFCURVE",
"197 1051 CURVE SMOOTH",
"221 1006 OFFCURVE",
"262 963 OFFCURVE",
"329 926 CURVE",
"200 890 OFFCURVE",
"119 802 OFFCURVE",
"119 663 CURVE SMOOTH",
"119 607 OFFCURVE",
"122 566 OFFCURVE",
"147 526 CURVE SMOOTH",
"171 486 OFFCURVE",
"218 448 OFFCURVE",
"303 400 CURVE",
"574 260 LINE SMOOTH",
"618 236 OFFCURVE",
"652 216 OFFCURVE",
"676 191 CURVE SMOOTH",
"699 166 OFFCURVE",
"710 133 OFFCURVE",
"710 82 CURVE SMOOTH",
"710 -1 OFFCURVE",
"690 -44 OFFCURVE",
"654 -67 CURVE SMOOTH",
"617 -91 OFFCURVE",
"563 -94 OFFCURVE",
"496 -94 CURVE SMOOTH",
"395 -94 OFFCURVE",
"331 -86 OFFCURVE",
"290 -65 CURVE SMOOTH",
"249 -45 OFFCURVE",
"228 -11 OFFCURVE",
"213 41 CURVE",
"122 -19 LINE",
"139 -103 OFFCURVE",
"176 -149 OFFCURVE",
"236 -174 CURVE SMOOTH",
"296 -199 OFFCURVE",
"380 -204 OFFCURVE",
"492 -204 CURVE SMOOTH"
);
}
);
width = 1016;
}
);
note = section;
unicode = 00A7;
},
{
color = 4;
glyphname = copyright;
layers = (
{
layerId = "2F8B9CD4-7B7F-4ACC-ADF3-B6E0F7033A19";
paths = (
{
closed = 1;
nodes = (
"943 1001 OFFCURVE",
"840 1039 OFFCURVE",
"736 1039 CURVE SMOOTH",
"635 1039 OFFCURVE",
"535 1001 OFFCURVE",
"460 932 CURVE SMOOTH",
"384 863 OFFCURVE",
"335 761 OFFCURVE",
"335 633 CURVE SMOOTH",
"335 504 OFFCURVE",
"384 399 OFFCURVE",
"460 325 CURVE SMOOTH",
"536 251 OFFCURVE",
"637 209 OFFCURVE",
"741 209 CURVE SMOOTH",
"850 209 OFFCURVE",
"961 254 OFFCURVE",
"1049 354 CURVE",
"998 412 LINE",
"915 336 OFFCURVE",
"827 303 OFFCURVE",
"746 303 CURVE SMOOTH",
"667 303 OFFCURVE",
"596 334 OFFCURVE",
"544 390 CURVE SMOOTH",
"492 446 OFFCURVE",
"460 526 OFFCURVE",
"460 625 CURVE SMOOTH",
"460 728 OFFCURVE",
"492 808 OFFCURVE",
"544 863 CURVE SMOOTH",
"595 918 OFFCURVE",
"665 947 OFFCURVE",
"740 947 CURVE SMOOTH",
"813 947 OFFCURVE",
"891 919 OFFCURVE",
"962 859 CURVE",
"1024 921 LINE"
);
},
{
closed = 1;
nodes = (
"1364 754 OFFCURVE",
"1332 864 OFFCURVE",
"1277 957 CURVE SMOOTH",
"1221 1050 OFFCURVE",
"1143 1128 OFFCURVE",
"1048 1183 CURVE SMOOTH",
"953 1238 OFFCURVE",
"844 1269 OFFCURVE",
"727 1269 CURVE SMOOTH",
"552 1269 OFFCURVE",
"395 1199 OFFCURVE",
"280 1084 CURVE SMOOTH",
"165 969 OFFCURVE",
"95 810 OFFCURVE",
"95 633 CURVE SMOOTH",
"95 458 OFFCURVE",
"165 301 OFFCURVE",
"280 186 CURVE SMOOTH",
"395 71 OFFCURVE",
"552 0 OFFCURVE",
"727 0 CURVE SMOOTH",
"844 0 OFFCURVE",
"953 31 OFFCURVE",
"1048 87 CURVE SMOOTH",
"1143 142 OFFCURVE",
"1221 220 OFFCURVE",
"1277 315 CURVE SMOOTH",
"1332 410 OFFCURVE",
"1364 521 OFFCURVE",
"1364 638 CURVE SMOOTH"
);
},
{
closed = 1;
nodes = (
"1247 485 OFFCURVE",
"1190 352 OFFCURVE",
"1096 254 CURVE SMOOTH",
"1002 156 OFFCURVE",
"871 95 OFFCURVE",
"727 95 CURVE SMOOTH",
"584 95 OFFCURVE",
"454 156 OFFCURVE",
"360 254 CURVE SMOOTH",
"266 352 OFFCURVE",
"207 485 OFFCURVE",
"207 633 CURVE SMOOTH",
"207 782 OFFCURVE",
"266 918 OFFCURVE",
"360 1016 CURVE SMOOTH",
"454 1114 OFFCURVE",
"584 1173 OFFCURVE",
"727 1173 CURVE SMOOTH",
"871 1173 OFFCURVE",
"1002 1114 OFFCURVE",
"1096 1016 CURVE SMOOTH",
"1190 918 OFFCURVE",
"1247 782 OFFCURVE",
"1247 633 CURVE SMOOTH"
);
}
);
width = 1458;
}
);
note = copyright;
unicode = 00A9;
},
{
color = 4;
glyphname = registered;
layers = (
{
layerId = "2F8B9CD4-7B7F-4ACC-ADF3-B6E0F7033A19";
paths = (
{
closed = 1;
nodes = (
"1289 975 OFFCURVE",
"1222 1121 OFFCURVE",
"1115 1226 CURVE SMOOTH",
"1007 1330 OFFCURVE",
"858 1395 OFFCURVE",
"694 1395 CURVE SMOOTH",
"530 1395 OFFCURVE",
"383 1330 OFFCURVE",
"276 1225 CURVE SMOOTH",
"169 1120 OFFCURVE",
"104 974 OFFCURVE",
"104 811 CURVE SMOOTH",
"104 651 OFFCURVE",
"169 505 OFFCURVE",
"276 400 CURVE SMOOTH",
"383 295 OFFCURVE",
"530 230 OFFCURVE",
"694 230 CURVE SMOOTH",
"858 230 OFFCURVE",
"1007 295 OFFCURVE",
"1115 401 CURVE SMOOTH",
"1222 507 OFFCURVE",
"1289 652 OFFCURVE",
"1289 815 CURVE SMOOTH"
);
},
{
closed = 1;
nodes = (
"1153 680 OFFCURVE",
"1102 561 OFFCURVE",
"1019 474 CURVE SMOOTH",
"935 387 OFFCURVE",
"821 334 OFFCURVE",
"694 334 CURVE SMOOTH",
"567 334 OFFCURVE",
"453 387 OFFCURVE",
"370 474 CURVE SMOOTH",
"287 561 OFFCURVE",
"235 680 OFFCURVE",
"235 811 CURVE SMOOTH",
"235 944 OFFCURVE",
"287 1063 OFFCURVE",
"370 1150 CURVE SMOOTH",
"453 1237 OFFCURVE",
"567 1290 OFFCURVE",
"694 1290 CURVE SMOOTH",
"821 1290 OFFCURVE",
"935 1237 OFFCURVE",
"1019 1150 CURVE SMOOTH",
"1102 1063 OFFCURVE",
"1153 944 OFFCURVE",
"1153 811 CURVE SMOOTH"
);
},
{
closed = 1;
nodes = (
"944 1025 OFFCURVE",
"920 1071 OFFCURVE",
"876 1099 CURVE SMOOTH",
"832 1127 OFFCURVE",
"767 1136 OFFCURVE",
"684 1136 CURVE SMOOTH",
"487 1136 LINE",
"487 462 LINE",
"577 462 LINE",
"577 767 LINE",
"674 767 LINE",
"860 440 LINE",
"938 487 LINE",
"764 775 LINE",
"812 779 OFFCURVE",
"858 797 OFFCURVE",
"891 827 CURVE SMOOTH",
"923 857 OFFCURVE",
"944 897 OFFCURVE",
"944 949 CURVE SMOOTH"
);
},
{
closed = 1;
nodes = (
"855 908 OFFCURVE",
"843 881 OFFCURVE",
"816 865 CURVE SMOOTH",
"789 849 OFFCURVE",
"745 844 OFFCURVE",
"684 844 CURVE SMOOTH",
"577 844 LINE",
"577 1068 LINE",
"684 1068 LINE SMOOTH",
"745 1068 OFFCURVE",
"789 1064 OFFCURVE",
"816 1047 CURVE SMOOTH",
"843 1030 OFFCURVE",
"855 1001 OFFCURVE",
"855 949 CURVE SMOOTH"
);
}
);
width = 1392;
}
);
note = registered;
unicode = 00AE;
},
{
color = 4;
glyphname = trademark;
layers = (
{
layerId = "2F8B9CD4-7B7F-4ACC-ADF3-B6E0F7033A19";
paths = (
{
closed = 1;
nodes = (
"1102 1395 LINE",
"1030 1395 LINE",
"850 891 LINE",
"666 1395 LINE",
"596 1395 LINE",
"596 774 LINE",
"672 774 LINE",
"672 1171 LINE",
"809 784 LINE",
"889 784 LINE",
"1026 1171 LINE",
"1026 774 LINE",
"1102 774 LINE"
);
},
{
closed = 1;
nodes = (
"533 1395 LINE",
"131 1395 LINE",
"131 1327 LINE",
"295 1327 LINE",
"295 774 LINE",
"369 774 LINE",
"369 1327 LINE",
"533 1327 LINE"
);
}
);
width = 1271;
}
);
note = trademark;
unicode = 2122;
},
{
color = 4;
glyphname = degree;
layers = (
{
layerId = "2F8B9CD4-7B7F-4ACC-ADF3-B6E0F7033A19";
paths = (
{
closed = 1;
nodes = (
"390 1011 OFFCURVE",
"443 1037 OFFCURVE",
"479 1076 CURVE SMOOTH",
"514 1115 OFFCURVE",
"532 1167 OFFCURVE",
"532 1219 CURVE SMOOTH",
"532 1271 OFFCURVE",
"514 1323 OFFCURVE",
"479 1362 CURVE SMOOTH",
"443 1401 OFFCURVE",
"390 1427 OFFCURVE",
"318 1427 CURVE SMOOTH",
"246 1427 OFFCURVE",
"192 1401 OFFCURVE",
"156 1362 CURVE SMOOTH",
"120 1323 OFFCURVE",
"102 1271 OFFCURVE",
"102 1219 CURVE SMOOTH",
"102 1167 OFFCURVE",
"120 1115 OFFCURVE",
"156 1076 CURVE SMOOTH",
"192 1037 OFFCURVE",
"246 1011 OFFCURVE",
"318 1011 CURVE SMOOTH"
);
},
{
closed = 1;
nodes = (
"351 1329 OFFCURVE",
"377 1315 OFFCURVE",
"394 1295 CURVE",
"410 1274 OFFCURVE",
"419 1247 OFFCURVE",
"419 1219 CURVE SMOOTH",
"419 1191 OFFCURVE",
"410 1164 OFFCURVE",
"394 1144 CURVE SMOOTH",
"377 1123 OFFCURVE",
"351 1109 OFFCURVE",
"318 1109 CURVE SMOOTH",
"283 1109 OFFCURVE",
"257 1123 OFFCURVE",
"241 1144 CURVE",
"224 1164 OFFCURVE",
"215 1191 OFFCURVE",
"215 1219 CURVE SMOOTH",
"215 1247 OFFCURVE",
"224 1274 OFFCURVE",
"241 1295 CURVE SMOOTH",
"257 1315 OFFCURVE",
"283 1329 OFFCURVE",
"318 1329 CURVE SMOOTH"
);
}
);
width = 634;
}
);
note = degree;
unicode = 00B0;
},
{
color = 4;
glyphname = bar;
layers = (
{
layerId = "2F8B9CD4-7B7F-4ACC-ADF3-B6E0F7033A19";
paths = (
{
closed = 1;
nodes = (
"338 -301 LINE",
"338 1536 LINE",
"162 1536 LINE",
"162 -301 LINE"
);
}
);
width = 500;
}
);
note = bar;
unicode = 007C;
},
{
color = 4;
glyphname = brokenbar;
layers = (
{
layerId = "2F8B9CD4-7B7F-4ACC-ADF3-B6E0F7033A19";
paths = (
{
closed = 1;
nodes = (
"377 1530 LINE",
"168 1530 LINE",
"168 766 LINE",
"377 766 LINE"
);
},
{
closed = 1;
nodes = (
"377 600 LINE",
"168 600 LINE",
"168 -162 LINE",
"377 -162 LINE"
);
}
);
width = 546;
}
);
note = brokenbar;
unicode = 00A6;
},
{
color = 4;
glyphname = dagger;
layers = (
{
layerId = "2F8B9CD4-7B7F-4ACC-ADF3-B6E0F7033A19";
paths = (
{
closed = 1;
nodes = (
"71 997 LINE",
"71 873 LINE",
"364 873 LINE",
"364 -232 LINE",
"531 -232 LINE",
"531 873 LINE",
"818 873 LINE",
"818 997 LINE",
"531 997 LINE",
"531 1428 LINE",
"364 1428 LINE",
"364 997 LINE"
);
}
);
width = 889;
}
);
note = dagger;
unicode = 2020;
},
{
color = 4;
glyphname = daggerdbl;
layers = (
{
layerId = "2F8B9CD4-7B7F-4ACC-ADF3-B6E0F7033A19";
paths = (
{
closed = 1;
nodes = (
"108 1014 LINE",
"108 889 LINE",
"400 889 LINE",
"400 307 LINE",
"108 307 LINE",
"108 184 LINE",
"400 184 LINE",
"400 -236 LINE",
"556 -236 LINE",
"556 184 LINE",
"851 184 LINE",
"851 307 LINE",
"556 307 LINE",
"556 889 LINE",
"851 889 LINE",
"851 1014 LINE",
"556 1014 LINE",
"556 1429 LINE",
"400 1429 LINE",
"400 1014 LINE"
);
}
);
width = 959;
}
);
note = daggerdbl;
unicode = 2021;
},
{
color = 4;
glyphname = asciicircum;
layers = (
{
layerId = "2F8B9CD4-7B7F-4ACC-ADF3-B6E0F7033A19";
paths = (
{
closed = 1;
nodes = (
"293 575 LINE",
"489 1020 LINE",
"573 1225 LINE",
"659 1022 LINE",
"850 582 LINE",
"1044 596 LINE",
"653 1452 LINE",
"494 1452 LINE",
"102 596 LINE"
);
}
);
width = 1147;
}
);
note = asciicircum;
unicode = 005E;
},
{
glyphname = dblgravecomb;
layers = (
{
layerId = "2F8B9CD4-7B7F-4ACC-ADF3-B6E0F7033A19";
paths = (
{
closed = 1;
nodes = (
"785 1194 LINE",
"848 1272 LINE",
"570 1534 LINE",
"478 1432 LINE"
);
},
{
closed = 1;
nodes = (
"461 1194 LINE",
"525 1272 LINE",
"246 1534 LINE",
"154 1432 LINE"
);
}
);
width = 1001;
}
);
note = uni030F;
unicode = 030F;
},
{
glyphname = breveinvertedcomb;
layers = (
{
layerId = "2F8B9CD4-7B7F-4ACC-ADF3-B6E0F7033A19";
paths = (
{
closed = 1;
nodes = (
"273 1254 OFFCURVE",
"304 1302 OFFCURVE",
"346 1337 CURVE SMOOTH",
"388 1372 OFFCURVE",
"442 1392 OFFCURVE",
"498 1392 CURVE SMOOTH",
"555 1392 OFFCURVE",
"609 1372 OFFCURVE",
"651 1337 CURVE SMOOTH",
"693 1302 OFFCURVE",
"722 1254 OFFCURVE",
"733 1198 CURVE",
"844 1198 LINE",
"835 1285 OFFCURVE",
"792 1363 OFFCURVE",
"730 1419 CURVE SMOOTH",
"668 1475 OFFCURVE",
"586 1509 OFFCURVE",
"498 1509 CURVE SMOOTH",
"411 1509 OFFCURVE",
"330 1475 OFFCURVE",
"268 1419 CURVE SMOOTH",
"206 1363 OFFCURVE",
"163 1285 OFFCURVE",
"154 1198 CURVE",
"262 1198 LINE"
);
}
);
width = 997;
}
);
note = uni0311;
unicode = 0311;
},
{
glyphname = commaaccentcomb;
layers = (
{
layerId = "2F8B9CD4-7B7F-4ACC-ADF3-B6E0F7033A19";
paths = (
{
closed = 1;
nodes = (
"227 -11 LINE",
"227 -29 OFFCURVE",
"224 -46 OFFCURVE",
"218 -62 CURVE SMOOTH",
"205 -94 OFFCURVE",
"186 -122 OFFCURVE",
"167 -145 CURVE",
"157 -156 OFFCURVE",
"149 -166 OFFCURVE",
"142 -174 CURVE",
"185 -235 LINE",
"205 -222 OFFCURVE",
"241 -196 OFFCURVE",
"272 -157 CURVE SMOOTH",
"303 -118 OFFCURVE",
"328 -67 OFFCURVE",
"328 -6 CURVE SMOOTH",
"328 185 LINE",
"148 185 LINE",
"148 -11 LINE"
);
}
);
width = 474;
}
);
note = uni0326;
unicode = 0326;
},
{
color = 4;
glyphname = acute;
layers = (
{
layerId = "2F8B9CD4-7B7F-4ACC-ADF3-B6E0F7033A19";
paths = (
{
closed = 1;
nodes = (
"599 1516 LINE",
"426 1590 LINE",
"187 1212 LINE",
"281 1180 LINE"
);
}
);
width = 846;
}
);
note = acute;
unicode = 00B4;
},
{
color = 4;
glyphname = breve;
layers = (
{
layerId = "2F8B9CD4-7B7F-4ACC-ADF3-B6E0F7033A19";
paths = (
{
closed = 1;
nodes = (
"163 1422 OFFCURVE",
"206 1344 OFFCURVE",
"268 1288 CURVE SMOOTH",
"330 1232 OFFCURVE",
"411 1198 OFFCURVE",
"498 1198 CURVE SMOOTH",
"586 1198 OFFCURVE",
"668 1232 OFFCURVE",
"730 1288 CURVE SMOOTH",
"792 1344 OFFCURVE",
"835 1422 OFFCURVE",
"844 1509 CURVE",
"733 1509 LINE",
"722 1453 OFFCURVE",
"693 1405 OFFCURVE",
"651 1370 CURVE SMOOTH",
"609 1335 OFFCURVE",
"555 1315 OFFCURVE",
"498 1315 CURVE SMOOTH",
"442 1315 OFFCURVE",
"388 1335 OFFCURVE",
"346 1370 CURVE SMOOTH",
"304 1405 OFFCURVE",
"273 1453 OFFCURVE",
"262 1509 CURVE",
"154 1509 LINE"
);
}
);
width = 997;
}
);
note = breve;
unicode = 02D8;
},
{
color = 4;
glyphname = caron;
layers = (
{
layerId = "2F8B9CD4-7B7F-4ACC-ADF3-B6E0F7033A19";
paths = (
{
closed = 1;
nodes = (
"221 1472 LINE",
"76 1472 LINE",
"254 1135 LINE",
"398 1135 LINE",
"577 1472 LINE",
"432 1472 LINE",
"329 1195 LINE"
);
}
);
width = 705;
}
);
note = caron;
unicode = 02C7;
},
{
color = 4;
glyphname = cedilla;
layers = (
{
layerId = "2F8B9CD4-7B7F-4ACC-ADF3-B6E0F7033A19";
paths = (
{
closed = 1;
nodes = (
"459 -184 OFFCURVE",
"432 -155 OFFCURVE",
"396 -139 CURVE SMOOTH",
"360 -123 OFFCURVE",
"315 -120 OFFCURVE",
"279 -120 CURVE",
"315 -1 LINE",
"217 -1 LINE",
"183 -123 LINE",
"233 -184 LINE",
"285 -184 LINE SMOOTH",
"328 -184 OFFCURVE",
"350 -200 OFFCURVE",
"350 -247 CURVE SMOOTH",
"350 -283 OFFCURVE",
"336 -310 OFFCURVE",
"272 -310 CURVE SMOOTH",
"212 -310 OFFCURVE",
"171 -299 OFFCURVE",
"134 -268 CURVE",
"104 -327 LINE",
"121 -344 OFFCURVE",
"140 -361 OFFCURVE",
"168 -373 CURVE SMOOTH",
"196 -385 OFFCURVE",
"234 -393 OFFCURVE",
"290 -393 CURVE SMOOTH",
"342 -393 OFFCURVE",
"384 -377 OFFCURVE",
"413 -349 CURVE SMOOTH",
"442 -321 OFFCURVE",
"459 -281 OFFCURVE",
"459 -236 CURVE SMOOTH"
);
}
);
width = 563;
}
);
note = cedilla;
unicode = 00B8;
},
{
color = 4;
glyphname = circumflex;
layers = (
{
layerId = "2F8B9CD4-7B7F-4ACC-ADF3-B6E0F7033A19";
paths = (
{
closed = 1;
nodes = (
"398 1472 LINE",
"254 1472 LINE",
"76 1135 LINE",
"221 1135 LINE",
"329 1412 LINE",
"432 1135 LINE",
"577 1135 LINE"
);
}
);
width = 705;
}
);
note = circumflex;
unicode = 02C6;
},
{
color = 4;
glyphname = dieresis;
layers = (
{
layerId = "2F8B9CD4-7B7F-4ACC-ADF3-B6E0F7033A19";
paths = (
{
closed = 1;
nodes = (
"64 1440 OFFCURVE",
"44 1406 OFFCURVE",
"44 1341 CURVE SMOOTH",
"44 1277 OFFCURVE",
"68 1246 OFFCURVE",
"136 1246 CURVE SMOOTH",
"212 1246 OFFCURVE",
"230 1277 OFFCURVE",
"230 1341 CURVE SMOOTH",
"230 1373 OFFCURVE",
"226 1398 OFFCURVE",
"213 1415 CURVE SMOOTH",
"200 1431 OFFCURVE",
"176 1440 OFFCURVE",
"136 1440 CURVE SMOOTH"
);
},
{
closed = 1;
nodes = (
"482 1440 OFFCURVE",
"462 1406 OFFCURVE",
"462 1341 CURVE SMOOTH",
"462 1277 OFFCURVE",
"486 1246 OFFCURVE",
"554 1246 CURVE SMOOTH",
"630 1246 OFFCURVE",
"648 1277 OFFCURVE",
"648 1341 CURVE SMOOTH",
"648 1373 OFFCURVE",
"644 1398 OFFCURVE",
"631 1415 CURVE SMOOTH",
"618 1431 OFFCURVE",
"594 1440 OFFCURVE",
"554 1440 CURVE SMOOTH"
);
}
);
width = 688;
}
);
note = dieresis;
unicode = 00A8;
},
{
color = 4;
glyphname = dotaccent;
layers = (
{
layerId = "2F8B9CD4-7B7F-4ACC-ADF3-B6E0F7033A19";
paths = (
{
closed = 1;
nodes = (
"169 1370 OFFCURVE",
"149 1336 OFFCURVE",
"149 1271 CURVE SMOOTH",
"149 1207 OFFCURVE",
"173 1185 OFFCURVE",
"241 1185 CURVE SMOOTH",
"317 1185 OFFCURVE",
"335 1207 OFFCURVE",
"335 1271 CURVE SMOOTH",
"335 1303 OFFCURVE",
"331 1328 OFFCURVE",
"318 1345 CURVE SMOOTH",
"305 1361 OFFCURVE",
"281 1370 OFFCURVE",
"241 1370 CURVE SMOOTH"
);
}
);
width = 484;
}
);
note = dotaccent;
unicode = 02D9;
},
{
color = 4;
glyphname = grave;
layers = (
{
layerId = "2F8B9CD4-7B7F-4ACC-ADF3-B6E0F7033A19";
paths = (
{
closed = 1;
nodes = (
"122 1516 LINE",
"444 1180 LINE",
"537 1212 LINE",
"297 1590 LINE"
);
}
);
width = 846;
}
);
note = grave;
unicode = 0060;
},
{
color = 4;
glyphname = hungarumlaut;
layers = (
{
layerId = "2F8B9CD4-7B7F-4ACC-ADF3-B6E0F7033A19";
paths = (
{
closed = 1;
nodes = (
"154 1272 LINE",
"217 1194 LINE",
"524 1432 LINE",
"432 1534 LINE"
);
},
{
closed = 1;
nodes = (
"477 1272 LINE",
"541 1194 LINE",
"848 1432 LINE",
"756 1534 LINE"
);
}
);
width = 1001;
}
);
note = hungarumlaut;
unicode = 02DD;
},
{
color = 4;
glyphname = macron;
layers = (
{
layerId = "2F8B9CD4-7B7F-4ACC-ADF3-B6E0F7033A19";
paths = (
{
closed = 1;
nodes = (
"174 1212 LINE",
"793 1212 LINE",
"793 1368 LINE",
"174 1368 LINE"
);
}
);
width = 965;
}
);
note = macron;
unicode = 00AF;
},
{
color = 4;
glyphname = ogonek;
layers = (
{
layerId = "2F8B9CD4-7B7F-4ACC-ADF3-B6E0F7033A19";
paths = (
{
closed = 1;
nodes = (
"415 -215 OFFCURVE",
"369 -235 OFFCURVE",
"326 -235 CURVE SMOOTH",
"281 -235 OFFCURVE",
"262 -214 OFFCURVE",
"262 -179 CURVE SMOOTH",
"262 -132 OFFCURVE",
"296 -65 OFFCURVE",
"341 0 CURVE",
"263 0 LINE",
"228 -33 OFFCURVE",
"199 -73 OFFCURVE",
"178 -113 CURVE SMOOTH",
"157 -153 OFFCURVE",
"144 -194 OFFCURVE",
"144 -229 CURVE SMOOTH",
"144 -269 OFFCURVE",
"158 -298 OFFCURVE",
"182 -317 CURVE",
"205 -337 OFFCURVE",
"236 -346 OFFCURVE",
"272 -346 CURVE SMOOTH",
"308 -346 OFFCURVE",
"348 -336 OFFCURVE",
"385 -317 CURVE SMOOTH",
"421 -298 OFFCURVE",
"455 -269 OFFCURVE",
"482 -233 CURVE",
"455 -188 LINE"
);
}
);
width = 673;
}
);
note = ogonek;
unicode = 02DB;
},
{
color = 4;
glyphname = ring;
layers = (
{
layerId = "2F8B9CD4-7B7F-4ACC-ADF3-B6E0F7033A19";
paths = (
{
closed = 1;
nodes = (
"125 1268 OFFCURVE",
"142 1228 OFFCURVE",
"171 1200 CURVE SMOOTH",
"200 1172 OFFCURVE",
"239 1156 OFFCURVE",
"286 1156 CURVE SMOOTH",
"333 1156 OFFCURVE",
"373 1172 OFFCURVE",
"402 1200 CURVE SMOOTH",
"431 1227 OFFCURVE",
"448 1266 OFFCURVE",
"448 1314 CURVE SMOOTH",
"448 1361 OFFCURVE",
"431 1400 OFFCURVE",
"403 1428 CURVE",
"374 1455 OFFCURVE",
"333 1471 OFFCURVE",
"288 1471 CURVE SMOOTH",
"241 1471 OFFCURVE",
"200 1456 OFFCURVE",
"171 1429 CURVE SMOOTH",
"142 1401 OFFCURVE",
"125 1363 OFFCURVE",
"125 1316 CURVE SMOOTH"
);
},
{
closed = 1;
nodes = (
"204 1363 OFFCURVE",
"231 1399 OFFCURVE",
"287 1399 CURVE SMOOTH",
"344 1399 OFFCURVE",
"371 1363 OFFCURVE",
"371 1314 CURVE SMOOTH",
"371 1266 OFFCURVE",
"344 1230 OFFCURVE",
"287 1230 CURVE SMOOTH",
"230 1230 OFFCURVE",
"204 1265 OFFCURVE",
"204 1316 CURVE SMOOTH"
);
}
);
width = 701;
}
);
note = ring;
unicode = 02DA;
},
